<svg width="201" height="32" viewBox="0 0 201 32" fill="none" xmlns="http://www.w3.org/2000/svg">
<path fill-rule="evenodd" clip-rule="evenodd" d="M0 16C0 8.19317 5.5912 1.69224 12.9877 0.283137C11.8375 9.29386 7.87665 17.4263 2.01207 23.7737C0.730257 21.4722 0 18.8214 0 16ZM11.4359 31.3396C12.8822 31.7693 14.4142 32 16 32C17.5858 32 19.1177 31.7693 20.5641 31.3396L16.6482 0.0128916C16.4332 0.00432435 16.2171 0 16 0C15.7829 0 15.5667 0.00432547 15.3517 0.0128949L11.4359 31.3396ZM19.0122 0.283121C20.1625 9.29388 24.1233 17.4264 29.9879 23.7738C31.2697 21.4722 32 18.8214 32 16C32 8.19314 26.4088 1.69219 19.0122 0.283121Z" fill="#E33626"/>
<path d="M48.5742 17.2646H45.3516L45.3408 14.8906H48.0156C48.4453 14.8906 48.7926 14.8226 49.0576 14.6865C49.3226 14.5433 49.5124 14.3356 49.627 14.0635C49.7487 13.7913 49.8096 13.4548 49.8096 13.0537C49.8096 12.5882 49.7487 12.2158 49.627 11.9365C49.5124 11.6572 49.3262 11.4531 49.0684 11.3242C48.8105 11.1953 48.474 11.1309 48.0586 11.1309H46.5762V24H43.1602V8.35938H48.0586C48.8678 8.35938 49.5876 8.44531 50.2178 8.61719C50.8551 8.78906 51.3958 9.05404 51.8398 9.41211C52.291 9.77018 52.6348 10.2178 52.8711 10.7549C53.1074 11.292 53.2256 11.9258 53.2256 12.6562C53.2256 13.2936 53.1003 13.8916 52.8496 14.4502C52.6061 15.0016 52.2051 15.4492 51.6465 15.793C51.0951 16.1367 50.3503 16.3229 49.4121 16.3516L48.5742 17.2646ZM48.4561 24H44.4492L45.7061 21.2393H48.4561C48.8499 21.2393 49.1615 21.1569 49.3906 20.9922C49.627 20.8203 49.7952 20.5911 49.8955 20.3047C49.9958 20.0182 50.0459 19.696 50.0459 19.3379C50.0459 18.9154 49.9993 18.5501 49.9062 18.2422C49.8132 17.9271 49.6592 17.6872 49.4443 17.5225C49.2367 17.3506 48.9466 17.2646 48.5742 17.2646H45.8457L45.8672 14.8906H49.1113L49.917 15.8359C50.805 15.8001 51.5068 15.9541 52.0225 16.2979C52.5381 16.6344 52.9033 17.082 53.1182 17.6406C53.333 18.1921 53.4404 18.7721 53.4404 19.3809C53.4404 20.3978 53.2542 21.25 52.8818 21.9375C52.5094 22.6178 51.9508 23.1335 51.2061 23.4844C50.4684 23.8281 49.5518 24 48.4561 24ZM64.709 21.2393V24H57.8877V21.2393H64.709ZM59.0156 8.35938V24H55.5996V8.35938H59.0156ZM63.8066 14.6328V17.2969H57.8877V14.6328H63.8066ZM64.709 8.35938V11.1309H57.8877V8.35938H64.709ZM72.959 19.8643C72.959 19.5993 72.9339 19.363 72.8838 19.1553C72.8337 18.9404 72.737 18.7435 72.5938 18.5645C72.4505 18.3783 72.2357 18.1921 71.9492 18.0059C71.6628 17.8197 71.2868 17.6263 70.8213 17.4258C70.2484 17.1895 69.6898 16.9316 69.1455 16.6523C68.6084 16.3659 68.125 16.0365 67.6953 15.6641C67.2656 15.2845 66.9219 14.8405 66.6641 14.332C66.4062 13.8164 66.2773 13.2148 66.2773 12.5273C66.2773 11.8613 66.4027 11.2598 66.6533 10.7227C66.904 10.1784 67.2549 9.71647 67.7061 9.33691C68.1572 8.9502 68.6908 8.65658 69.3066 8.45605C69.9225 8.24837 70.5993 8.14453 71.3369 8.14453C72.3324 8.14453 73.2025 8.34863 73.9473 8.75684C74.6921 9.15788 75.2721 9.72363 75.6875 10.4541C76.1029 11.1774 76.3105 12.0225 76.3105 12.9893H72.916C72.916 12.5667 72.8587 12.1979 72.7441 11.8828C72.6296 11.5605 72.4505 11.3099 72.207 11.1309C71.9707 10.9447 71.6592 10.8516 71.2725 10.8516C70.9144 10.8516 70.6172 10.9268 70.3809 11.0771C70.1445 11.2275 69.9691 11.4316 69.8545 11.6895C69.7399 11.9473 69.6826 12.2337 69.6826 12.5488C69.6826 12.7995 69.7399 13.0215 69.8545 13.2148C69.9762 13.4082 70.1374 13.5872 70.3379 13.752C70.5456 13.9167 70.7891 14.0742 71.0684 14.2246C71.3548 14.375 71.6628 14.5182 71.9922 14.6543C72.694 14.9336 73.3171 15.238 73.8613 15.5674C74.4128 15.8968 74.8711 16.2692 75.2363 16.6846C75.6087 17.0928 75.888 17.5583 76.0742 18.0811C76.2676 18.5967 76.3643 19.1839 76.3643 19.8428C76.3643 20.516 76.2497 21.1247 76.0205 21.6689C75.7913 22.2061 75.4619 22.6644 75.0322 23.0439C74.6097 23.4235 74.0941 23.7135 73.4854 23.9141C72.8766 24.1146 72.1963 24.2148 71.4443 24.2148C70.7354 24.2148 70.0514 24.1146 69.3926 23.9141C68.7337 23.7064 68.1465 23.3913 67.6309 22.9688C67.1224 22.5462 66.7178 22.0055 66.417 21.3467C66.1162 20.6878 65.9658 19.9036 65.9658 18.9941H69.3818C69.3818 19.4596 69.4212 19.8571 69.5 20.1865C69.5859 20.5088 69.7148 20.7666 69.8867 20.96C70.0658 21.1533 70.2842 21.2965 70.542 21.3896C70.807 21.4756 71.1221 21.5186 71.4873 21.5186C71.8597 21.5186 72.1533 21.4434 72.3682 21.293C72.583 21.1426 72.7334 20.9456 72.8193 20.7021C72.9124 20.4515 72.959 20.1722 72.959 19.8643ZM84.8828 8.35938V24H81.4775V8.35938H84.8828ZM88.7178 8.35938V11.1309H77.7285V8.35938H88.7178ZM98.418 8.35938V24H95.0127V8.35938H98.418ZM112.007 8.35938V24H108.666L104.24 14.2676V24H100.91V8.35938H104.251L108.688 18.1455V8.35938H112.007ZM130.236 15.707V22.2061C130.007 22.4424 129.667 22.7181 129.216 23.0332C128.772 23.3483 128.199 23.624 127.497 23.8604C126.802 24.0967 125.968 24.2148 124.994 24.2148C124.113 24.2148 123.315 24.0788 122.599 23.8066C121.89 23.5345 121.281 23.1227 120.772 22.5713C120.271 22.0127 119.884 21.3145 119.612 20.4766C119.347 19.6387 119.215 18.6432 119.215 17.4902V14.8691C119.215 13.7305 119.347 12.7386 119.612 11.8936C119.877 11.0485 120.257 10.3467 120.751 9.78809C121.245 9.22949 121.832 8.81413 122.513 8.54199C123.193 8.26986 123.959 8.13379 124.812 8.13379C126.022 8.13379 127.017 8.33789 127.798 8.74609C128.578 9.1543 129.166 9.7487 129.56 10.5293C129.953 11.3099 130.175 12.266 130.226 13.3975H126.949C126.906 12.7673 126.806 12.2695 126.648 11.9043C126.498 11.5391 126.28 11.2777 125.993 11.1201C125.714 10.9626 125.352 10.8838 124.908 10.8838C124.536 10.8838 124.206 10.9554 123.92 11.0986C123.641 11.2347 123.404 11.4603 123.211 11.7754C123.025 12.0833 122.885 12.4915 122.792 13C122.699 13.5013 122.652 14.1172 122.652 14.8477V17.4902C122.652 18.2207 122.699 18.8402 122.792 19.3486C122.892 19.8499 123.043 20.2581 123.243 20.5732C123.451 20.8812 123.716 21.1068 124.038 21.25C124.368 21.3861 124.758 21.4541 125.209 21.4541C125.538 21.4541 125.803 21.4183 126.004 21.3467C126.212 21.2751 126.38 21.1927 126.509 21.0996C126.645 21.0065 126.752 20.9421 126.831 20.9062V18.1885H124.779V15.707H130.236ZM141.473 21.2393V24H134.651V21.2393H141.473ZM135.779 8.35938V24H132.363V8.35938H135.779ZM140.57 14.6328V17.2969H134.651V14.6328H140.57ZM141.473 8.35938V11.1309H134.651V8.35938H141.473ZM154.31 14.9873V17.4795C154.31 18.5895 154.174 19.5671 153.901 20.4121C153.629 21.25 153.239 21.9518 152.73 22.5176C152.229 23.0833 151.628 23.5094 150.926 23.7959C150.231 24.0752 149.461 24.2148 148.616 24.2148C147.764 24.2148 146.987 24.0752 146.285 23.7959C145.583 23.5094 144.978 23.0833 144.47 22.5176C143.961 21.9518 143.567 21.25 143.288 20.4121C143.016 19.5671 142.88 18.5895 142.88 17.4795V14.9873C142.88 13.863 143.016 12.8747 143.288 12.0225C143.567 11.1631 143.958 10.4505 144.459 9.88477C144.967 9.31185 145.569 8.87858 146.264 8.58496C146.965 8.29134 147.743 8.14453 148.595 8.14453C149.447 8.14453 150.22 8.29134 150.915 8.58496C151.617 8.87858 152.218 9.31185 152.72 9.88477C153.228 10.4505 153.618 11.1631 153.891 12.0225C154.17 12.8747 154.31 13.863 154.31 14.9873ZM150.883 17.4795V14.9658C150.883 14.2425 150.833 13.6266 150.732 13.1182C150.639 12.6097 150.496 12.1943 150.303 11.8721C150.109 11.5498 149.869 11.3135 149.583 11.1631C149.304 11.0127 148.974 10.9375 148.595 10.9375C148.208 10.9375 147.871 11.0127 147.585 11.1631C147.299 11.3135 147.059 11.5498 146.865 11.8721C146.679 12.1943 146.539 12.6097 146.446 13.1182C146.36 13.6266 146.317 14.2425 146.317 14.9658V17.4795C146.317 18.1813 146.364 18.7829 146.457 19.2842C146.55 19.7855 146.693 20.1937 146.887 20.5088C147.08 20.8239 147.32 21.0566 147.606 21.207C147.893 21.3574 148.229 21.4326 148.616 21.4326C148.989 21.4326 149.314 21.3574 149.594 21.207C149.88 21.0566 150.117 20.8239 150.303 20.5088C150.496 20.1937 150.639 19.7855 150.732 19.2842C150.833 18.7829 150.883 18.1813 150.883 17.4795ZM156.415 8.35938H161.604C162.649 8.35938 163.548 8.53841 164.3 8.89648C165.052 9.25456 165.628 9.78451 166.029 10.4863C166.438 11.1882 166.642 12.0547 166.642 13.0859C166.642 13.9596 166.527 14.6973 166.298 15.2988C166.069 15.8932 165.746 16.3874 165.331 16.7812C164.916 17.1751 164.425 17.4938 163.859 17.7373L162.774 18.3711H158.639L158.628 15.6104H161.518C161.904 15.6104 162.223 15.5208 162.474 15.3418C162.724 15.1628 162.91 14.9085 163.032 14.5791C163.161 14.2425 163.226 13.8451 163.226 13.3867C163.226 12.9141 163.165 12.5094 163.043 12.1729C162.928 11.8363 162.753 11.5785 162.517 11.3994C162.287 11.2204 161.983 11.1309 161.604 11.1309H159.831V24H156.415V8.35938ZM163.44 24L160.615 17.0498L164.203 17.0391L167.093 23.8389V24H163.44ZM179.564 15.707V22.2061C179.335 22.4424 178.995 22.7181 178.544 23.0332C178.1 23.3483 177.527 23.624 176.825 23.8604C176.131 24.0967 175.296 24.2148 174.322 24.2148C173.441 24.2148 172.643 24.0788 171.927 23.8066C171.218 23.5345 170.609 23.1227 170.101 22.5713C169.599 22.0127 169.213 21.3145 168.94 20.4766C168.675 19.6387 168.543 18.6432 168.543 17.4902V14.8691C168.543 13.7305 168.675 12.7386 168.94 11.8936C169.205 11.0485 169.585 10.3467 170.079 9.78809C170.573 9.22949 171.16 8.81413 171.841 8.54199C172.521 8.26986 173.287 8.13379 174.14 8.13379C175.35 8.13379 176.345 8.33789 177.126 8.74609C177.907 9.1543 178.494 9.7487 178.888 10.5293C179.282 11.3099 179.504 12.266 179.554 13.3975H176.277C176.234 12.7673 176.134 12.2695 175.977 11.9043C175.826 11.5391 175.608 11.2777 175.321 11.1201C175.042 10.9626 174.68 10.8838 174.236 10.8838C173.864 10.8838 173.535 10.9554 173.248 11.0986C172.969 11.2347 172.732 11.4603 172.539 11.7754C172.353 12.0833 172.213 12.4915 172.12 13C172.027 13.5013 171.98 14.1172 171.98 14.8477V17.4902C171.98 18.2207 172.027 18.8402 172.12 19.3486C172.22 19.8499 172.371 20.2581 172.571 20.5732C172.779 20.8812 173.044 21.1068 173.366 21.25C173.696 21.3861 174.086 21.4541 174.537 21.4541C174.867 21.4541 175.132 21.4183 175.332 21.3467C175.54 21.2751 175.708 21.1927 175.837 21.0996C175.973 21.0065 176.08 20.9421 176.159 20.9062V18.1885H174.107V15.707H179.564ZM185.258 8.35938V24H181.853V8.35938H185.258ZM193.733 11.3994L190.597 24H186.955L191.821 8.35938H194.088L193.733 11.3994ZM196.204 24L193.057 11.3994L192.648 8.35938H194.958L199.846 24H196.204ZM196.322 18.167V20.9277H189.394V18.167H196.322Z" fill="white"/>
</svg>
