<svg width="32" height="32" viewBox="0 0 32 32" fill="none" xmlns="http://www.w3.org/2000/svg">
<g clip-path="url(#clip0_2358_7232)">
<path d="M11.0173 24.5368L11.6364 27.9625C11.7415 28.587 11.0173 29.1064 10.4979 28.7918L7.38139 27.1339C7.17154 27.0288 6.86198 27.0288 6.65213 27.1339L3.54105 28.7918C2.91655 29.1064 2.29238 28.587 2.39714 27.9628L2.91655 24.5368C3.02165 24.327 2.91655 24.1225 2.7067 23.9123L0.214742 21.5251C-0.199574 21.0057 0.00994162 20.2818 0.634446 20.1767L4.06013 19.6573C4.37002 19.6573 4.57988 19.4475 4.67958 19.243L6.23781 16.1262C6.30668 16.0078 6.40543 15.9095 6.52418 15.8412C6.64293 15.7729 6.77753 15.7369 6.91453 15.7369C7.05153 15.7369 7.18612 15.7729 7.30488 15.8412C7.42363 15.9095 7.52237 16.0078 7.59124 16.1262L9.24918 19.1379C9.45903 19.3424 9.66349 19.5522 9.87368 19.5522L13.2997 20.072C13.9239 20.1767 14.1283 21.0057 13.714 21.4204L11.2221 23.9123C11.0173 24.0174 11.0173 24.3266 11.0173 24.5368ZM29.0814 24.6416L29.7059 28.0676C29.8107 28.6921 29.0814 29.2115 28.562 28.8966L25.4509 27.2386C25.2411 27.1339 24.9315 27.1339 24.7217 27.2386L21.6052 28.8966C20.9861 29.2115 20.3616 28.6921 20.4667 28.0679L21.0909 24.6416C21.1906 24.4317 21.0909 24.2273 20.881 24.0174L18.389 21.5251C17.9744 21.0057 18.1792 20.2818 18.8034 20.1767L22.2294 19.6573C22.5443 19.5526 22.7488 19.4475 22.8539 19.243L24.4121 16.1262C24.4804 16.0078 24.5786 15.9094 24.697 15.841C24.8153 15.7726 24.9496 15.7366 25.0863 15.7366C25.223 15.7366 25.3573 15.7726 25.4756 15.841C25.594 15.9094 25.6922 16.0078 25.7605 16.1262L27.3187 19.2427C27.5286 19.4475 27.733 19.6573 27.9429 19.6573L31.3689 20.1767C31.9934 20.2764 32.1982 21.1108 31.7832 21.5251L29.2916 24.0174C29.0818 24.1222 29.0814 24.4317 29.0814 24.6416ZM20.052 12.905L20.6712 16.3307C20.7762 16.9555 20.052 17.4749 19.5326 17.165L16.4162 15.502C16.2063 15.3973 15.8968 15.3973 15.6869 15.502L12.5755 17.165C11.9513 17.4749 11.3268 16.9555 11.4319 16.331L12.0561 12.905C12.1558 12.7002 12.0561 12.4907 11.8462 12.2859L9.35427 9.79358C8.93996 9.27417 9.14442 8.54491 9.76859 8.44015L13.1949 7.92074C13.5096 7.92074 13.7144 7.71594 13.8191 7.50642L15.3773 4.38963C15.4456 4.27118 15.5438 4.17281 15.6622 4.10441C15.7805 4.03601 15.9148 4 16.0515 4C16.1882 4 16.3225 4.03601 16.4409 4.10441C16.5592 4.17281 16.6575 4.27118 16.7257 4.38963L18.284 7.50609C18.4938 7.71594 18.6983 7.9204 18.9085 7.9204L22.3341 8.44015C22.9586 8.54491 23.1634 9.37388 22.7488 9.79358L20.2568 12.2859C20.052 12.3856 20.052 12.7002 20.052 12.905Z" fill="#E22E1D"/>
</g>
<defs>
<clipPath id="clip0_2358_7232">
<rect width="32" height="32" fill="white"/>
</clipPath>
</defs>
</svg>
