<svg width="32" height="32" viewBox="0 0 32 32" fill="none" xmlns="http://www.w3.org/2000/svg">
<path fill-rule="evenodd" clip-rule="evenodd" d="M18.9789 31.9999L17.0258 24.7108C17.7009 24.5385 18.3216 24.1981 18.8298 23.7214C19.0589 23.5068 19.312 23.439 19.6177 23.5103C21.7326 24.0036 23.8726 22.7744 24.5124 20.6997L26.9667 29.8596L22.3684 28.674L18.9789 32V31.9999ZM14.3106 0.66782C13.6745 1.26375 12.8536 1.48375 12.0047 1.28568C10.7368 0.98995 9.45549 1.72968 9.07769 2.9756C8.82476 3.80973 8.22376 4.41072 7.38964 4.66365C6.14378 5.04145 5.40399 6.32277 5.69972 7.59063C5.89772 8.43949 5.67779 9.26042 5.08186 9.89654C4.19146 10.847 4.19146 12.3259 5.08186 13.2764C5.67779 13.9125 5.89772 14.7334 5.69972 15.5823C5.40399 16.8502 6.14378 18.1315 7.38964 18.5093C8.22376 18.7623 8.82476 19.3632 9.07769 20.1973C9.45549 21.4433 10.7368 22.183 12.0047 21.8872C12.8535 21.6892 13.6745 21.9092 14.3106 22.5051C15.261 23.3955 16.7399 23.3956 17.6904 22.5051C18.3265 21.9092 19.1475 21.6892 19.9963 21.8872C21.2642 22.183 22.5455 21.4432 22.9233 20.1973C23.1762 19.3632 23.7772 18.7623 24.6114 18.5093C25.8572 18.1315 26.597 16.8502 26.3013 15.5823C26.1033 14.7334 26.3232 13.9125 26.9191 13.2764C27.8095 12.3259 27.8096 10.8471 26.9191 9.89654C26.3232 9.26042 26.1033 8.43949 26.3013 7.59063C26.5971 6.32277 25.8572 5.04145 24.6114 4.66365C23.7772 4.41072 23.1762 3.80973 22.9233 2.9756C22.5455 1.72968 21.2642 0.98995 19.9963 1.28568C19.1475 1.48368 18.3265 1.26375 17.6904 0.66782C16.7399 -0.22264 15.2611 -0.222573 14.3106 0.66782ZM16.0005 5.34111L17.8392 9.71501L22.5672 10.1121L18.9755 13.2124L20.0589 17.8317L16.0005 15.3738L11.9421 17.8317L13.0255 13.2124L9.43382 10.1121L14.1618 9.71501L16.0005 5.34111ZM13.0221 31.9999L9.63262 28.6739L5.03426 29.8596L7.48864 20.6997C8.12837 22.7744 10.2685 24.0036 12.3833 23.5102C12.689 23.4389 12.9421 23.5067 13.1712 23.7213C13.6794 24.198 14.3 24.5384 14.9752 24.7108L13.0221 31.9998V31.9999Z" fill="#E22E1D"/>
</svg>
