<svg width="32" height="32" viewBox="0 0 32 32" fill="none" xmlns="http://www.w3.org/2000/svg">
<g clip-path="url(#clip0_2358_7265)">
<path d="M20.7987 21.0125V16.4441C20.7987 15.8136 20.9951 15.6173 21.6152 15.6173H28.1578C28.7159 15.6173 28.9433 15.8446 28.9433 16.4028V23.9996C28.9433 24.258 28.9846 24.3613 29.2741 24.351C29.8012 24.32 30.6177 24.3407 31.1448 24.3407C31.3102 24.3407 31.4549 24.3613 31.5273 24.5267C31.5996 24.6921 31.5376 24.8161 31.4342 24.9401C30.0182 26.6042 26.6384 30.1494 25.2224 31.8134C25.0054 32.0718 24.84 32.0718 24.6126 31.8031C23.2069 30.1494 19.9202 26.6145 18.5145 24.9608C18.4008 24.8264 18.3181 24.6921 18.4111 24.5164C18.5042 24.3407 18.6385 24.3407 18.8039 24.3407C19.331 24.3407 19.9512 24.32 20.4783 24.351C20.7677 24.3613 20.8194 24.258 20.8194 23.9996C20.7987 22.4389 20.7987 22.5732 20.7987 21.0125ZM14.0288 22.7283C13.8841 22.6353 13.8117 22.4595 13.8324 22.2942C13.8427 21.8291 13.8324 21.3743 13.8427 20.9092C13.8427 20.7851 13.8014 20.7438 13.6877 20.7335C12.7161 20.5888 11.7962 20.2063 11.0107 19.6275C10.7833 19.4725 10.5766 19.2968 10.3906 19.1004C10.2459 18.935 10.2252 18.8007 10.3596 18.625C10.6593 18.2219 10.959 17.8291 11.2691 17.4364C11.4345 17.2296 11.5999 17.209 11.8066 17.3847C12.4474 17.9635 13.2226 18.3666 14.0598 18.5526C14.7626 18.6973 15.4344 18.656 16.0753 18.2736C16.7471 17.8705 17.0778 16.8059 16.1993 16.1237C15.7445 15.7723 15.2071 15.5656 14.6696 15.3382C13.9978 15.0591 13.3156 14.8111 12.6748 14.47C12.034 14.1289 11.4655 13.7155 11.0417 13.116C10.5973 12.4855 10.4113 11.7207 10.5043 10.9558C10.6696 9.46747 11.5689 8.55792 12.8712 7.97911C13.1399 7.86542 13.419 7.78273 13.7084 7.73106C13.8221 7.71038 13.8324 7.6587 13.8324 7.56568V6.06699C13.8324 5.79826 13.9461 5.68457 14.2148 5.68457H15.3724C15.6101 5.68457 15.7135 5.78793 15.7135 6.02565V7.52434C15.7135 7.6277 15.7445 7.66904 15.8479 7.67938C16.8298 7.79307 17.76 8.18583 18.5352 8.79564C18.5765 8.82665 18.6179 8.86799 18.6592 8.90933C18.8349 9.07471 18.8556 9.16773 18.7316 9.37444C18.4938 9.80855 18.2561 10.2323 18.0184 10.6664C17.884 10.9041 17.698 10.9455 17.4706 10.7698C17.1709 10.5321 16.8504 10.3253 16.499 10.16C15.7445 9.80855 14.9693 9.65351 14.1528 9.87056C13.605 10.0153 13.1296 10.2737 12.9435 10.8628C12.7885 11.3486 12.9435 11.8137 13.3259 12.1444C13.8221 12.5889 14.4319 12.8163 15.0417 13.054C15.7755 13.3434 16.5094 13.6225 17.2122 13.9945C17.7083 14.2529 18.1424 14.6043 18.4938 15.0281C18.8763 15.4932 19.052 16.0514 19.1036 16.6508C19.1036 16.7128 19.114 16.7852 19.114 16.8472C19.145 16.9092 19.1036 16.9919 19.145 17.0539V17.1573C19.1036 17.395 19.1243 17.6431 19.0623 17.8808C18.9073 18.4803 18.6179 19.0281 18.1941 19.4932C17.5843 20.1753 16.8091 20.5681 15.9306 20.7645C15.8272 20.7645 15.7548 20.8575 15.7548 20.9609V20.9815C15.7652 21.4363 15.7548 21.9014 15.7548 22.3665C15.7548 22.5422 15.6928 22.6766 15.5068 22.7283H14.0288Z" fill="#E22E1D"/>
<path d="M15.6833 25.178C15.3629 25.209 15.0321 25.2193 14.7014 25.2193C8.62392 25.2193 3.69376 20.2892 3.69376 14.2117C3.69376 8.13427 8.62392 3.2041 14.7014 3.2041C20.7788 3.2041 25.709 8.13427 25.709 14.2117H28.9131V14.2014C28.9027 6.47021 22.4325 1.25868e-05 14.7117 1.25868e-05C6.86684 -0.0103232 0.5 6.34618 0.5 14.191V14.2117C0.5 21.9429 6.98053 28.4131 14.7014 28.4131C15.9623 28.4131 17.2233 28.2477 18.4429 27.917L15.6833 25.178Z" fill="#E22E1D"/>
</g>
<defs>
<clipPath id="clip0_2358_7265">
<rect width="32" height="32" fill="white"/>
</clipPath>
</defs>
</svg>
