<svg width="32" height="32" viewBox="0 0 32 32" fill="none" xmlns="http://www.w3.org/2000/svg">
<g clip-path="url(#clip0_2358_7247)">
<path d="M13.9426 6.99554L5.21306 22.1088C4.84882 22.7397 4.75011 23.4894 4.93865 24.1931C5.12719 24.8968 5.58753 25.4967 6.21841 25.861L14.5469 30.6735C14.3652 30.2211 14.272 29.7381 14.2722 29.2506V11.7971C14.2713 10.2316 14.8779 8.72695 15.9643 7.59985L19.4693 3.97949L16.8542 4.71565C15.6253 5.07038 14.5817 5.88757 13.9426 6.99554ZM1.55424 16.9337C1.03929 17.4488 0.75 18.1473 0.75 18.8757C0.75 19.6041 1.03929 20.3026 1.55424 20.8177L3.75173 23.0152C3.82194 22.5004 3.99574 22.0052 4.26265 21.5594C5.54268 19.3619 11.2012 9.54463 14.2722 4.27066C13.9041 4.55633 14.5744 3.92456 1.55424 16.9337ZM22.9028 19.9113H23.0622V17.7138H22.9028C22.6114 17.7138 22.332 17.8296 22.1259 18.0356C21.9199 18.2417 21.8041 18.5211 21.8041 18.8125C21.8041 19.1039 21.9199 19.3834 22.1259 19.5895C22.332 19.7955 22.6114 19.9113 22.9028 19.9113Z" fill="#E22E1D"/>
<path d="M26.9079 0.0625C26.6868 1.35576 26.1299 2.56823 25.2928 3.57848C25.0368 3.31517 24.7306 3.10587 24.3923 2.96294C24.054 2.82002 23.6905 2.74638 23.3233 2.74638C22.956 2.74638 22.5925 2.82002 22.2542 2.96294C21.9159 3.10587 21.6097 3.31517 21.3538 3.57848L16.7555 8.3745C15.8694 9.29381 15.3733 10.5203 15.3711 11.7971V29.2506C15.3711 29.9791 15.6605 30.6778 16.1756 31.193C16.6908 31.7081 17.3894 31.9975 18.118 31.9975H28.556C29.2845 31.9975 29.9832 31.7081 30.4983 31.193C31.0135 30.6778 31.3029 29.9791 31.3029 29.2506V11.7971C31.3006 10.5203 30.8045 9.29381 29.9185 8.3745L26.8365 5.17715C26.1478 5.92682 25.3068 6.5206 24.3698 6.91866C24.3023 7.10848 24.1839 7.27608 24.0276 7.40316C23.8713 7.53023 23.6831 7.61189 23.4835 7.63919C23.2839 7.66649 23.0806 7.63839 22.8959 7.55796C22.7112 7.47753 22.5521 7.34787 22.4362 7.18315C22.3202 7.01843 22.2517 6.82499 22.2383 6.62399C22.2248 6.42298 22.2669 6.22215 22.3599 6.04343C22.4528 5.86472 22.5932 5.71501 22.7655 5.61068C22.9378 5.50634 23.1355 5.45139 23.337 5.45184C23.4894 5.45296 23.6399 5.48578 23.7789 5.5482C23.9179 5.61062 24.0425 5.70129 24.1446 5.81442C24.4821 5.66298 24.8041 5.47899 25.106 5.26505C25.4519 5.00514 25.7753 4.71662 26.0729 4.40254C27.0999 3.21139 27.7701 1.75473 28.0066 0.199843L26.9079 0.0625ZM22.903 16.6151H23.0623V15.2801H24.161V16.6151H24.3204C24.9032 16.6151 25.4621 16.8466 25.8742 17.2587C26.2863 17.6708 26.5179 18.2298 26.5179 18.8126H25.4191C25.4191 18.5212 25.3033 18.2417 25.0973 18.0356C24.8912 17.8296 24.6118 17.7138 24.3204 17.7138H24.161V19.9113H24.3204C24.9032 19.9113 25.4621 20.1428 25.8742 20.5549C26.2863 20.967 26.5179 21.526 26.5179 22.1088C26.5179 22.6916 26.2863 23.2505 25.8742 23.6627C25.4621 24.0748 24.9032 24.3063 24.3204 24.3063H24.161V25.6413H23.0623V24.3063H22.903C22.3202 24.3063 21.7612 24.0748 21.3491 23.6627C20.937 23.2505 20.7055 22.6916 20.7055 22.1088H21.8042C21.8042 22.4002 21.92 22.6797 22.1261 22.8857C22.3321 23.0918 22.6116 23.2075 22.903 23.2075H23.0623V21.0101H22.903C22.3202 21.0101 21.7612 20.7785 21.3491 20.3664C20.937 19.9543 20.7055 19.3954 20.7055 18.8126C20.7055 18.2298 20.937 17.6708 21.3491 17.2587C21.7612 16.8466 22.3202 16.6151 22.903 16.6151Z" fill="#E22E1D"/>
<path d="M25.4182 22.1085C25.4182 21.8171 25.3025 21.5376 25.0964 21.3316C24.8903 21.1255 24.6109 21.0098 24.3195 21.0098H24.1602V23.2073H24.3195C24.6109 23.2073 24.8903 23.0915 25.0964 22.8854C25.3025 22.6794 25.4182 22.3999 25.4182 22.1085Z" fill="#E22E1D"/>
</g>
<defs>
<clipPath id="clip0_2358_7247">
<rect width="32" height="32" fill="white"/>
</clipPath>
</defs>
</svg>
