<svg width="32" height="32" viewBox="0 0 32 32" fill="none" xmlns="http://www.w3.org/2000/svg">
<g clip-path="url(#clip0_2358_7256)">
<path d="M1.6 28.3568V30.4C1.6 30.8243 1.76857 31.2313 2.06863 31.5313C2.36869 31.8314 2.77565 32 3.2 32H4.8C5.22435 32 5.63131 31.8314 5.93137 31.5313C6.23143 31.2313 6.4 30.8243 6.4 30.4V28.8H25.6V30.4C25.6 30.8243 25.7686 31.2313 26.0686 31.5313C26.3687 31.8314 26.7757 32 27.2 32H28.8C29.2243 32 29.6313 31.8314 29.9314 31.5313C30.2314 31.2313 30.4 30.8243 30.4 30.4V28.3568C30.8854 28.0784 31.2889 27.677 31.5698 27.193C31.8507 26.709 31.9991 26.1595 32 25.6V20.8C32 19.4704 31.1888 18.3328 30.0352 17.848L27.8464 11.2816C27.5289 10.3256 26.9181 9.49392 26.101 8.90481C25.2838 8.3157 24.3018 7.99911 23.2944 8H8.7056C7.69822 7.99911 6.71618 8.3157 5.89901 8.90481C5.08185 9.49392 4.47112 10.3256 4.1536 11.2816L1.9648 17.848C1.38276 18.0915 0.885697 18.5017 0.536107 19.0269C0.186517 19.5522 -7.6944e-07 20.169 0 20.8V25.6C0 26.7808 0.6464 27.8016 1.6 28.3568ZM5.6 25.6C5.28472 25.5999 4.97255 25.5377 4.68131 25.4169C4.39008 25.2962 4.12547 25.1192 3.90261 24.8962C3.45252 24.4458 3.19979 23.8351 3.2 23.1984C3.20021 22.5616 3.45336 21.9511 3.90374 21.501C4.35413 21.0509 4.96487 20.7982 5.6016 20.7984C6.23833 20.7986 6.8489 21.0517 7.29899 21.5021C7.74907 21.9525 8.00181 22.5632 8.0016 23.2C8.00139 23.8367 7.74824 24.4473 7.29786 24.8974C6.84747 25.3474 6.23673 25.6002 5.6 25.6ZM26.4 25.6C25.7635 25.6 25.153 25.3471 24.7029 24.897C24.2529 24.4469 24 23.8365 24 23.2C24 22.5635 24.2529 21.953 24.7029 21.5029C25.153 21.0528 25.7635 20.8 26.4 20.8C27.0365 20.8 27.647 21.0528 28.0971 21.5029C28.5471 21.953 28.8 22.5635 28.8 23.2C28.8 23.8365 28.5471 24.4469 28.0971 24.897C27.647 25.3471 27.0365 25.6 26.4 25.6ZM8.7056 11.2H23.2928C23.6287 11.1999 23.9562 11.3056 24.2287 11.502C24.5012 11.6984 24.705 11.9757 24.8112 12.2944L26.5808 17.6H5.4192L7.1872 12.2944C7.4064 11.64 8.0176 11.2 8.7056 11.2Z" fill="#E22E1D"/>
<path d="M32 8.62061V5.24622L16.5056 0.0814324C16.1632 -0.0331859 15.792 -0.0281089 15.4528 0.0958321L0 5.71502V9.11981L16.024 3.29263L32 8.62061Z" fill="#E22E1D"/>
</g>
<defs>
<clipPath id="clip0_2358_7256">
<rect width="32" height="32" fill="white"/>
</clipPath>
</defs>
</svg>
