<svg width="32" height="32" viewBox="0 0 32 32" fill="none" xmlns="http://www.w3.org/2000/svg">
<g clip-path="url(#clip0_2358_7224)">
<path d="M25.375 16.9377C23.167 16.9377 21.2981 17.5089 20.1217 18.4087L11.1138 16.172C10.8344 15.2973 10.1048 14.5363 9.08475 14.0013L7.93488 15.7274C7.348 16.5166 6.50663 16.9377 5.625 16.9377C4.74337 16.9377 3.902 16.5166 3.37369 15.8107L2.16587 14.001C0.856562 14.6876 0 15.7409 0 16.9377C0 19.0088 2.51837 20.6877 5.625 20.6877C8.13787 20.6877 10.2406 19.5818 10.9623 18.0659L18.92 20.04C18.8606 20.2507 18.8126 20.4644 18.8126 20.6878C18.8126 21.4679 19.1961 22.175 19.8551 22.7624L15.8806 25.0335C14.8526 24.6569 13.6152 24.4377 12.25 24.4377C8.50912 24.4377 5.625 26.05 5.625 28.1877C5.625 30.3255 8.50912 32.0002 12.25 32.0002C15.9909 32.0002 18.8125 30.3255 18.8125 28.1877C18.8125 27.4076 18.429 26.7005 17.7699 26.1132L21.7445 23.842C22.7724 24.2186 24.0098 24.4377 25.375 24.4377C29.1159 24.4377 32 22.8255 32 20.6877C32 18.55 29.1159 16.9377 25.375 16.9377Z" fill="#E22E1D"/>
<path d="M4.87519 14.6871C5.05188 14.9233 5.33019 15.0625 5.625 15.0625C5.91981 15.0625 6.19812 14.9233 6.37481 14.6871L10.1276 8.99687C10.8618 8.01819 11.25 6.85275 11.25 5.625C11.25 2.52319 8.72681 0 5.625 0C2.52319 0 0 2.52319 0 5.625C0 6.85181 0.388187 8.01819 1.12244 8.99687L4.87519 14.6871ZM5.625 2.8125C7.17587 2.8125 8.4375 4.07413 8.4375 5.625C8.4375 7.17587 7.17587 8.4375 5.625 8.4375C4.07413 8.4375 2.8125 7.17587 2.8125 5.625C2.8125 4.07413 4.07413 2.8125 5.625 2.8125Z" fill="#E22E1D"/>
</g>
<defs>
<clipPath id="clip0_2358_7224">
<rect width="32" height="32" fill="white"/>
</clipPath>
</defs>
</svg>
