<svg width="266" height="144" viewBox="0 0 266 144" fill="none" xmlns="http://www.w3.org/2000/svg">
<rect width="265.5" height="144" fill="#CBCCCD" fill-opacity="0.3"/>
<path d="M109 72C109 60.2897 117.387 50.5383 128.482 48.4247C126.756 61.9408 120.815 74.1396 112.018 83.6607C110.095 80.2083 109 76.2321 109 72Z" fill="#CBCCCD"/>
<path d="M126.154 95.0094C128.323 95.6539 130.621 96 133 96C135.379 96 137.677 95.6539 139.846 95.0094L133.972 48.0193C133.65 48.0065 133.326 48 133 48C132.674 48 132.35 48.0065 132.028 48.0193L126.154 95.0094Z" fill="#CBCCCD"/>
<path d="M137.518 48.4247C139.244 61.9408 145.185 74.1396 153.982 83.6607C155.905 80.2083 157 76.2321 157 72C157 60.2897 148.613 50.5383 137.518 48.4247Z" fill="#CBCCCD"/>
</svg>
