<svg width="48" height="48" viewBox="0 0 48 48" fill="none" xmlns="http://www.w3.org/2000/svg">
<path fill-rule="evenodd" clip-rule="evenodd" d="M28.8431 43.6152C28.8431 41.9562 27.4982 40.6113 25.8392 40.6113H22.1608C21.3641 40.6113 20.6001 40.9278 20.0367 41.4911C19.4734 42.0545 19.1569 42.8185 19.1569 43.6152C19.1569 45.2742 20.5018 46.6192 22.1608 46.6192H25.8392C27.4982 46.6192 28.8431 45.2742 28.8431 43.6152ZM6.31509 35.8693C6.81684 35.9077 7.42388 35.9297 8.03362 35.894C8.41581 37.8319 9.45888 39.577 10.9847 40.8313C12.5105 42.0857 14.4245 42.7714 16.3997 42.7715H17.5459C17.4441 43.3294 17.4438 43.901 17.5451 44.459H16.3997C13.9723 44.459 11.6242 43.5945 9.77623 42.0205C7.92828 40.4465 6.70127 38.2658 6.31509 35.8693ZM5.45672 34.0737C3.93111 33.8165 2.54595 33.0271 1.54702 31.8457C0.5481 30.6642 7.6128e-06 29.1671 0 27.62L0 23.6316C-1.78078e-10 21.8958 0.689534 20.2311 1.91692 19.0037C3.1443 17.7763 4.80899 17.0867 6.54478 17.0867H6.98044C7.67681 8.29708 15.0308 1.38086 24 1.38086C32.9692 1.38086 40.3232 8.29708 41.0196 17.0867H41.4552C43.191 17.0867 44.8557 17.7763 46.0831 19.0037C47.3105 20.2311 48 21.8958 48 23.6316V27.62C48 29.3558 47.3105 31.0205 46.0831 32.2479C44.8557 33.4753 43.191 34.1648 41.4552 34.1649H39.5239C38.7229 34.1649 38.0736 33.5155 38.0736 32.7145V18.4544C38.0736 10.6818 31.7726 4.38086 24 4.38086C16.2274 4.38086 9.92644 10.6818 9.92644 18.4544V32.7145C9.92644 33.28 9.60272 33.7701 9.13041 34.0092C7.83028 34.4604 5.814 34.134 5.45672 34.0737Z" fill="black"/>
</svg>
