<svg width="48" height="48" viewBox="0 0 48 48" fill="none" xmlns="http://www.w3.org/2000/svg">
<path d="M31.1024 25.9922L27.0823 30.0259C25.4521 31.6618 22.5837 31.6971 20.9183 30.0259L16.898 25.9922L2.45898 40.4781C2.99645 40.7266 3.58905 40.8749 4.21905 40.8749H43.7815C44.4115 40.8749 45.004 40.7268 45.5412 40.4782L31.1024 25.9922Z" fill="black"/>
<path d="M43.7812 7.125H4.21875C3.58875 7.125 2.99616 7.27331 2.45888 7.52184L17.888 23.0021C17.889 23.0032 17.8902 23.0033 17.8913 23.0044C17.8919 23.005 17.8923 23.0059 17.8925 23.0068L22.9093 28.0403C23.4422 28.5731 24.558 28.5731 25.0909 28.0403L30.1067 23.0077C30.1067 23.0077 30.1079 23.0054 30.1089 23.0044C30.1089 23.0044 30.1112 23.0032 30.1122 23.0021L45.5409 7.52175C45.0037 7.27313 44.4113 7.125 43.7812 7.125ZM0.448687 9.48862C0.170625 10.0509 0 10.6751 0 11.3438V36.6562C0 37.3249 0.170437 37.9491 0.448594 38.5114L14.9126 24.0005L0.448687 9.48862ZM47.5513 9.48844L33.0875 24.0005L47.5513 38.5116C47.8294 37.9493 48 37.3251 48 36.6562V11.3438C48 10.6749 47.8294 10.0508 47.5513 9.48844Z" fill="black"/>
</svg>
