<svg width="20" height="20" viewBox="0 0 20 20" fill="none" xmlns="http://www.w3.org/2000/svg">
<path d="M19.8288 9.55364L13.8292 2.88734C13.7012 2.74601 13.5225 2.66602 13.3332 2.66602H9.3334C9.20462 2.66616 9.07863 2.70347 8.97054 2.77347C8.86246 2.84348 8.77688 2.9432 8.7241 3.06066C8.61743 3.30198 8.66143 3.5833 8.83742 3.77796L14.4358 9.99895L8.83742 16.2186C8.66143 16.4146 8.6161 16.6959 8.7241 16.9359C8.83209 17.1772 9.07074 17.3319 9.3334 17.3319H13.3332C13.5225 17.3319 13.7012 17.2506 13.8292 17.1119L19.8288 10.4456C20.0568 10.1923 20.0568 9.80563 19.8288 9.55364Z" fill="white"/>
<path d="M11.1628 9.55364L5.16314 2.88734C5.03514 2.74601 4.85649 2.66602 4.66716 2.66602H0.66738C0.538605 2.66616 0.412609 2.70347 0.304525 2.77347C0.196442 2.84348 0.110867 2.9432 0.0580799 3.06066C-0.048581 3.30198 -0.00458339 3.5833 0.171407 3.77796L5.76977 9.99895L0.171407 16.2186C-0.00458339 16.4146 -0.0499143 16.6959 0.0580799 16.9359C0.166074 17.1772 0.404728 17.3319 0.66738 17.3319H4.66716C4.85649 17.3319 5.03514 17.2506 5.16314 17.1119L11.1628 10.4456C11.3908 10.1923 11.3908 9.80563 11.1628 9.55364Z" fill="white"/>
</svg>
