<svg width="48" height="48" viewBox="0 0 48 48" fill="none" xmlns="http://www.w3.org/2000/svg">
<path d="M40.8819 9.13607C38.7712 6.73781 36.174 4.81654 33.263 3.50009C30.3521 2.18363 27.1942 1.50218 23.9994 1.50107H23.7144C23.6096 1.49183 23.5042 1.49183 23.3994 1.50107C19.0781 1.61966 14.8824 2.98062 11.3142 5.42116C7.74603 7.8617 4.95647 11.2785 3.2792 15.2628C1.60192 19.2471 1.10795 23.6303 1.85637 27.888C2.60479 32.1456 4.56392 36.0976 7.4994 39.2711C9.52611 41.4849 11.9792 43.2665 14.7115 44.5089C17.4437 45.7513 20.3988 46.4289 23.3994 46.5011C23.5042 46.5111 23.6096 46.5111 23.7144 46.5011H23.9994C28.3268 46.4996 32.562 45.2502 36.1974 42.9026C39.8327 40.5551 42.714 37.209 44.4958 33.2654C46.2776 29.3218 46.8844 24.9481 46.2434 20.6684C45.6024 16.3887 43.7409 12.3846 40.8819 9.13607ZM39.3369 36.0461C37.9276 34.7319 36.3546 33.6051 34.6569 32.6936C35.4001 30.3626 35.8362 27.9448 35.9544 25.5011H43.4544C43.1597 29.347 41.7263 33.0181 39.3369 36.0461ZM4.5594 25.5011H12.0594C12.1794 27.9476 12.6181 30.368 13.3644 32.7011C11.6668 33.6098 10.0938 34.7341 8.6844 36.0461C6.2923 33.0189 4.85623 29.3478 4.5594 25.5011ZM8.3094 12.3911C9.74663 13.7879 11.3663 14.9838 13.1244 15.9461C12.5072 18.0809 12.1447 20.2811 12.0444 22.5011H4.5444C4.82922 18.8403 6.14499 15.335 8.3394 12.3911H8.3094ZM25.4994 6.29357C27.9525 8.54384 29.8718 11.3138 31.1169 14.4011C29.3197 15.1103 27.426 15.5452 25.4994 15.6911V6.29357ZM22.4994 15.6911C20.5729 15.5493 18.679 15.1169 16.8819 14.4086C18.1261 11.3186 20.0454 8.546 22.4994 6.29357V15.6911ZM15.9069 17.2511C18.0196 18.0607 20.2419 18.5486 22.4994 18.6986V22.5011H15.0444C15.1461 20.7256 15.4352 18.9658 15.9069 17.2511ZM15.0444 25.5011H22.4994V30.0536C20.3078 30.1933 18.1491 30.6584 16.0944 31.4336C15.5084 29.5052 15.1559 27.5134 15.0444 25.5011ZM22.4994 33.0611V41.7086C20.2161 39.6064 18.3951 37.0523 17.1519 34.2086C18.8703 33.5723 20.6712 33.1858 22.4994 33.0611ZM25.4994 33.0611C27.3292 33.1995 29.1299 33.5985 30.8469 34.2461C29.6039 37.0899 27.7828 39.6441 25.4994 41.7461V33.0611ZM31.9044 31.4336C29.8492 30.66 27.6908 30.1949 25.4994 30.0536V25.5011H32.9544C32.8435 27.516 32.491 29.5103 31.9044 31.4411V31.4336ZM25.4994 22.5011V18.6986C27.7577 18.5542 29.9808 18.0661 32.0919 17.2511C32.5637 18.9658 32.8528 20.7256 32.9544 22.5011H25.4994ZM33.8169 13.0811C32.5702 10.0882 30.7656 7.35968 28.4994 5.04107C31.9563 5.87061 35.1221 7.62591 37.6569 10.1186C36.5063 11.2633 35.2162 12.2587 33.8169 13.0811ZM14.1744 13.0811C12.7669 12.2636 11.469 11.2707 10.3119 10.1261C12.8518 7.62286 16.0295 5.86409 19.4994 5.04107C17.2332 7.35968 15.4286 10.0882 14.1819 13.0811H14.1744ZM14.4294 35.5286C15.6665 38.2909 17.383 40.8123 19.4994 42.9761C16.2024 42.2023 13.1678 40.5724 10.7019 38.2511C11.8338 37.1978 13.0877 36.2838 14.4369 35.5286H14.4294ZM33.5544 35.5286C34.9094 36.2877 36.1684 37.2068 37.3044 38.2661C34.8231 40.5637 31.79 42.1811 28.4994 42.9611C30.6125 40.7991 32.3264 38.2803 33.5619 35.5211L33.5544 35.5286ZM35.9544 22.5011C35.8432 20.285 35.4706 18.0898 34.8444 15.9611C36.5999 14.9923 38.2169 13.7915 39.6519 12.3911C41.8302 15.34 43.1302 18.8449 43.4019 22.5011H35.9544Z" fill="black"/>
</svg>
