<svg width="46" height="40" viewBox="0 0 46 40" fill="none" xmlns="http://www.w3.org/2000/svg">
<rect width="46" height="40" rx="4" fill="#ECEDEE"/>
<g clip-path="url(#clip0_1604_3177)">
<path d="M20.75 12.75C20.75 12.3344 20.4156 12 20 12C19.5844 12 19.25 12.3344 19.25 12.75V14H18C16.8969 14 16 14.8969 16 16V16.5V18V26C16 27.1031 16.8969 28 18 28H28C29.1031 28 30 27.1031 30 26V18V16.5V16C30 14.8969 29.1031 14 28 14H26.75V12.75C26.75 12.3344 26.4156 12 26 12C25.5844 12 25.25 12.3344 25.25 12.75V14H20.75V12.75ZM17.5 18H28.5V26C28.5 26.275 28.275 26.5 28 26.5H18C17.725 26.5 17.5 26.275 17.5 26V18Z" fill="#6A6E76"/>
</g>
<defs>
<clipPath id="clip0_1604_3177">
<rect width="14" height="16" fill="white" transform="translate(16 12)"/>
</clipPath>
</defs>
</svg>
