<svg width="21" height="16" viewBox="0 0 21 16" fill="none" xmlns="http://www.w3.org/2000/svg">
<path fill-rule="evenodd" clip-rule="evenodd" d="M4.17391 2.37222L3.46467 4.44444H7.60393C7.34108 4.80252 7.1284 5.20503 6.9782 5.64289L6.2286 7.83065C5.5008 8.3944 4.99399 9.24566 4.87476 10.2222H3.1087V11.5556C3.1087 12.0472 2.72011 12.4444 2.23913 12.4444H1.36957C0.888587 12.4444 0.5 12.0472 0.5 11.5556V6.22222C0.5 5.48056 0.945652 4.84444 1.57609 4.57778L2.53261 1.78611C2.89946 0.716667 3.88587 0 4.99457 0H9.91848C11.0272 0 12.0136 0.716667 12.3804 1.78611L12.6821 2.66667H11.0815C11.0013 2.66667 10.9215 2.66892 10.8422 2.67336L10.7391 2.37222C10.6168 2.01667 10.288 1.77778 9.91848 1.77778H4.99457C4.625 1.77778 4.2962 2.01667 4.17391 2.37222ZM3.97826 7.11111C3.97826 6.87536 3.88665 6.64927 3.72357 6.48257C3.5605 6.31587 3.33932 6.22222 3.1087 6.22222C2.87807 6.22222 2.6569 6.31587 2.49382 6.48257C2.33074 6.64927 2.23913 6.87536 2.23913 7.11111C2.23913 7.34686 2.33074 7.57295 2.49382 7.73965C2.6569 7.90635 2.87807 8 3.1087 8C3.33932 8 3.5605 7.90635 3.72357 7.73965C3.88665 7.57295 3.97826 7.34686 3.97826 7.11111Z" fill="white"/>
<path fill-rule="evenodd" clip-rule="evenodd" d="M8.61957 5.34167L7.66304 8.13333C7.03261 8.4 6.58696 9.03611 6.58696 9.77778V15.1111C6.58696 15.6028 6.97554 16 7.45652 16H8.32609C8.80707 16 9.19565 15.6028 9.19565 15.1111V13.7778H17.8913V15.1111C17.8913 15.6028 18.2799 16 18.7609 16H19.6304C20.1114 16 20.5 15.6028 20.5 15.1111V9.77778C20.5 9.03611 20.0543 8.4 19.4239 8.13333L18.4674 5.34167C18.1005 4.27222 17.1141 3.55556 16.0054 3.55556H11.0815C9.97283 3.55556 8.98641 4.27222 8.61957 5.34167ZM9.55163 8L10.2609 5.92778C10.3832 5.57222 10.712 5.33333 11.0815 5.33333H16.0054C16.375 5.33333 16.7038 5.57222 16.8261 5.92778L17.5353 8H9.55163ZM9.81053 10.0381C9.9736 10.2048 10.0652 10.4309 10.0652 10.6667C10.0652 10.9024 9.9736 11.1285 9.81053 11.2952C9.64745 11.4619 9.42628 11.5556 9.19565 11.5556C8.96503 11.5556 8.74385 11.4619 8.58078 11.2952C8.4177 11.1285 8.32609 10.9024 8.32609 10.6667C8.32609 10.4309 8.4177 10.2048 8.58078 10.0381C8.74385 9.87143 8.96503 9.77778 9.19565 9.77778C9.42628 9.77778 9.64745 9.87143 9.81053 10.0381ZM18.5062 11.2952C18.3431 11.4619 18.1219 11.5556 17.8913 11.5556C17.6607 11.5556 17.4395 11.4619 17.2764 11.2952C17.1134 11.1285 17.0217 10.9024 17.0217 10.6667C17.0217 10.4309 17.1134 10.2048 17.2764 10.0381C17.4395 9.87143 17.6607 9.77778 17.8913 9.77778C18.1219 9.77778 18.3431 9.87143 18.5062 10.0381C18.6693 10.2048 18.7609 10.4309 18.7609 10.6667C18.7609 10.9024 18.6693 11.1285 18.5062 11.2952Z" fill="white"/>
</svg>
