<svg width="48" height="40" viewBox="0 0 48 40" fill="none" xmlns="http://www.w3.org/2000/svg">
<mask id="path-1-inside-1_1632_2879" fill="white">
<path d="M0 0H48V40H0V0Z"/>
</mask>
<path d="M0 0H48V40H0V0Z" fill="#ECEDEE"/>
<path d="M47 0V40H49V0H47Z" fill="#CBCCCD" mask="url(#path-1-inside-1_1632_2879)"/>
<g clip-path="url(#clip0_1632_2879)">
<path d="M31.8045 26.8619L27.8252 22.8825C28.9096 21.5563 29.4428 19.8639 29.3144 18.1556C29.1861 16.4472 28.406 14.8535 27.1356 13.7042C25.8652 12.5549 24.2016 11.9378 22.4889 11.9806C20.7763 12.0234 19.1457 12.7229 17.9343 13.9343C16.7229 15.1457 16.0234 16.7763 15.9806 18.4889C15.9378 20.2016 16.5549 21.8652 17.7042 23.1356C18.8535 24.406 20.4472 25.1861 22.1556 25.3144C23.8639 25.4428 25.5563 24.9096 26.8825 23.8252L30.8619 27.8045C30.9876 27.926 31.156 27.9932 31.3308 27.9916C31.5056 27.9901 31.6728 27.92 31.7964 27.7964C31.92 27.6728 31.9901 27.5056 31.9916 27.3308C31.9932 27.156 31.926 26.9876 31.8045 26.8619ZM22.6665 23.9999C21.6117 23.9999 20.5805 23.6871 19.7035 23.101C18.8264 22.515 18.1428 21.682 17.7392 20.7075C17.3355 19.733 17.2299 18.6606 17.4357 17.626C17.6415 16.5915 18.1494 15.6412 18.8953 14.8953C19.6412 14.1494 20.5915 13.6415 21.626 13.4357C22.6606 13.2299 23.733 13.3355 24.7075 13.7392C25.682 14.1428 26.515 14.8264 27.101 15.7035C27.6871 16.5805 27.9999 17.6117 27.9999 18.6665C27.9983 20.0805 27.4359 21.4362 26.436 22.436C25.4362 23.4359 24.0805 23.9983 22.6665 23.9999Z" fill="#6A6E76"/>
</g>
<defs>
<clipPath id="clip0_1632_2879">
<rect width="16" height="16" fill="white" transform="translate(16 12)"/>
</clipPath>
</defs>
</svg>
