<svg width="32" height="32" viewBox="0 0 32 32" fill="none" xmlns="http://www.w3.org/2000/svg">
<rect width="32" height="32" rx="5" fill="#ECEDEE"/>
<g clip-path="url(#clip0_2153_6164)">
<path d="M14.3281 9.6125L13.7344 10.5H18.2656L17.6719 9.6125C17.625 9.54375 17.5469 9.5 17.4625 9.5H14.5344C14.45 9.5 14.3719 9.54062 14.325 9.6125H14.3281ZM18.9219 8.78125L20.0688 10.5H20.5H22H22.25C22.6656 10.5 23 10.8344 23 11.25C23 11.6656 22.6656 12 22.25 12H22V21.5C22 22.8813 20.8813 24 19.5 24H12.5C11.1188 24 10 22.8813 10 21.5V12H9.75C9.33437 12 9 11.6656 9 11.25C9 10.8344 9.33437 10.5 9.75 10.5H10H11.5H11.9313L13.0781 8.77812C13.4031 8.29375 13.95 8 14.5344 8H17.4625C18.0469 8 18.5938 8.29375 18.9187 8.77812L18.9219 8.78125ZM11.5 12V21.5C11.5 22.0531 11.9469 22.5 12.5 22.5H19.5C20.0531 22.5 20.5 22.0531 20.5 21.5V12H11.5ZM14 14V20.5C14 20.775 13.775 21 13.5 21C13.225 21 13 20.775 13 20.5V14C13 13.725 13.225 13.5 13.5 13.5C13.775 13.5 14 13.725 14 14ZM16.5 14V20.5C16.5 20.775 16.275 21 16 21C15.725 21 15.5 20.775 15.5 20.5V14C15.5 13.725 15.725 13.5 16 13.5C16.275 13.5 16.5 13.725 16.5 14ZM19 14V20.5C19 20.775 18.775 21 18.5 21C18.225 21 18 20.775 18 20.5V14C18 13.725 18.225 13.5 18.5 13.5C18.775 13.5 19 13.725 19 14Z" fill="#6A6E76"/>
</g>
<defs>
<clipPath id="clip0_2153_6164">
<rect width="14" height="16" fill="white" transform="translate(9 8)"/>
</clipPath>
</defs>
</svg>
