<svg width="10" height="10" viewBox="0 0 10 10" fill="none" xmlns="http://www.w3.org/2000/svg">
<path d="M9.70664 1.70469C10.0973 1.31406 10.0973 0.679688 9.70664 0.289062C9.31602 -0.101562 8.68164 -0.101562 8.29102 0.289062L5.00039 3.58281L1.70664 0.292187C1.31602 -0.0984375 0.681641 -0.0984375 0.291016 0.292187C-0.0996094 0.682812 -0.0996094 1.31719 0.291016 1.70781L3.58477 4.99844L0.294141 8.29219C-0.0964843 8.68281 -0.0964843 9.31719 0.294141 9.70781C0.684766 10.0984 1.31914 10.0984 1.70977 9.70781L5.00039 6.41406L8.29414 9.70469C8.68477 10.0953 9.31914 10.0953 9.70977 9.70469C10.1004 9.31406 10.1004 8.67969 9.70977 8.28906L6.41602 4.99844L9.70664 1.70469Z" fill="#6A6E76"/>
</svg>
