<svg width="16" height="16" viewBox="0 0 16 16" fill="none" xmlns="http://www.w3.org/2000/svg">
<g clip-path="url(#clip0_2290_5967)">
<path d="M8.70645 0.292969C8.31582 -0.0976563 7.68145 -0.0976563 7.29082 0.292969L5.29082 2.29297C4.9002 2.68359 4.9002 3.31797 5.29082 3.70859C5.68145 4.09922 6.31582 4.09922 6.70645 3.70859L7.0002 3.41484V6.99922H3.41582L3.70957 6.70547C4.1002 6.31485 4.1002 5.68047 3.70957 5.28984C3.31895 4.89922 2.68457 4.89922 2.29395 5.28984L0.293945 7.28984C-0.0966797 7.68047 -0.0966797 8.31485 0.293945 8.70547L2.29395 10.7055C2.68457 11.0961 3.31895 11.0961 3.70957 10.7055C4.1002 10.3148 4.1002 9.68047 3.70957 9.28984L3.41582 8.99609L7.0002 8.99922V12.5836L6.70645 12.2898C6.31582 11.8992 5.68145 11.8992 5.29082 12.2898C4.9002 12.6805 4.9002 13.3148 5.29082 13.7055L7.29082 15.7055C7.68145 16.0961 8.31582 16.0961 8.70645 15.7055L10.7064 13.7055C11.0971 13.3148 11.0971 12.6805 10.7064 12.2898C10.3158 11.8992 9.68145 11.8992 9.29082 12.2898L8.99707 12.5836L9.0002 8.99922H12.5846L12.2908 9.29297C11.9002 9.68359 11.9002 10.318 12.2908 10.7086C12.6814 11.0992 13.3158 11.0992 13.7064 10.7086L15.7064 8.7086C16.0971 8.31797 16.0971 7.68359 15.7064 7.29297L13.7064 5.29297C13.3158 4.90234 12.6814 4.90234 12.2908 5.29297C11.9002 5.68359 11.9002 6.31797 12.2908 6.70859L12.5846 7.00235L9.0002 6.99922V3.41484L9.29395 3.70859C9.68457 4.09922 10.3189 4.09922 10.7096 3.70859C11.1002 3.31797 11.1002 2.68359 10.7096 2.29297L8.70957 0.292969H8.70645Z" fill="#6A6E76"/>
</g>
<defs>
<clipPath id="clip0_2290_5967">
<rect width="16" height="16" fill="white"/>
</clipPath>
</defs>
</svg>
