<svg width="24" height="24" viewBox="0 0 24 24" fill="none" xmlns="http://www.w3.org/2000/svg">
<path d="M4.99991 21C4.46948 21 3.96077 20.7893 3.5857 20.4142C3.21063 20.0391 2.99991 19.5304 2.99991 19C2.99991 18.4695 3.21063 17.9608 3.5857 17.5858C3.96077 17.2107 4.46948 17 4.99991 17H18.9999C19.5303 17 20.0391 17.2107 20.4141 17.5858C20.7892 17.9608 20.9999 18.4695 20.9999 19C20.9999 19.5304 20.7892 20.0391 20.4141 20.4142C20.0391 20.7893 19.5303 21 18.9999 21H4.99991ZM19.9999 5.99998C19.623 5.99811 19.2534 6.10331 18.934 6.30331C18.6145 6.50332 18.3585 6.78992 18.1956 7.12977C18.0327 7.46962 17.9696 7.84874 18.0138 8.22302C18.0579 8.5973 18.2074 8.95135 18.4449 9.24398L14.9999 12L12.7879 6.83798C13.2113 6.6565 13.559 6.33446 13.7724 5.92626C13.9857 5.51807 14.0517 5.04873 13.9591 4.59754C13.8664 4.14635 13.6209 3.74096 13.2639 3.44985C12.907 3.15874 12.4605 2.99976 11.9999 2.99976C11.5393 2.99976 11.0928 3.15874 10.7359 3.44985C10.3789 3.74096 10.1334 4.14635 10.0408 4.59754C9.94814 5.04873 10.0141 5.51807 10.2275 5.92626C10.4408 6.33446 10.7886 6.6565 11.2119 6.83798L8.99991 12L5.55491 9.24398C5.8349 8.89009 5.98644 8.45163 5.98472 8.00038C5.983 7.54913 5.82811 7.11184 5.54543 6.76011C5.26274 6.40837 4.86901 6.16304 4.4287 6.06428C3.98838 5.96552 3.52759 6.01919 3.12176 6.21649C2.71592 6.4138 2.38911 6.74305 2.19482 7.15033C2.00054 7.55762 1.95029 8.0188 2.05232 8.45837C2.15434 8.89793 2.40259 9.28983 2.75641 9.5699C3.11023 9.84997 3.54866 10.0016 3.99991 9.99998C4.11975 9.99869 4.23923 9.98664 4.35691 9.96398L5.53291 15H18.4669L19.6429 9.96398C19.9159 10.0134 20.1962 10.0055 20.4659 9.94067C20.7356 9.87585 20.9889 9.75557 21.2096 9.58748C21.4303 9.4194 21.6136 9.2072 21.7478 8.96439C21.882 8.72158 21.9641 8.45349 21.989 8.17719C22.0139 7.90089 21.981 7.62244 21.8923 7.35956C21.8037 7.09669 21.6613 6.85515 21.4742 6.65034C21.287 6.44553 21.0593 6.28192 20.8055 6.16995C20.5517 6.05798 20.2773 6.00009 19.9999 5.99998Z" fill="#E33C26"/>
</svg>
