<svg width="48" height="24" viewBox="0 0 48 24" fill="none" xmlns="http://www.w3.org/2000/svg">
<path fill-rule="evenodd" clip-rule="evenodd" d="M48 12.57C48 9.15667 46.3467 6.46334 43.1867 6.46334C40.0134 6.46334 38.0934 9.15667 38.0934 12.5434C38.0934 16.5567 40.36 18.5833 43.6133 18.5833C45.2 18.5833 46.4 18.2233 47.3066 17.7166V15.0499C46.3999 15.5033 45.36 15.7833 44.04 15.7833C42.7466 15.7833 41.5999 15.33 41.4533 13.7566H47.9733C47.9734 13.5833 48 12.8899 48 12.57ZM41.4134 11.3033C41.4134 9.79658 42.3334 9.16989 43.1734 9.16989C43.9867 9.16989 44.8534 9.79658 44.8534 11.3033H41.4134ZM32.9467 6.46334C31.64 6.46334 30.8 7.07663 30.3333 7.50336L30.16 6.6767H27.2267V22.2234L30.56 21.5167L30.5733 17.7435C31.0533 18.0901 31.7599 18.5834 32.9333 18.5834C35.32 18.5834 37.4933 16.6634 37.4933 12.4368C37.4801 8.57 35.28 6.46334 32.9467 6.46334ZM32.1467 15.65C31.3599 15.65 30.8934 15.37 30.5733 15.0233L30.56 10.0766C30.9067 9.6899 31.3866 9.42328 32.1467 9.42328C33.36 9.42328 34.2 10.7833 34.2 12.5299C34.2001 14.3167 33.3733 15.65 32.1467 15.65ZM22.64 5.67662L25.9867 4.95665V2.25L22.64 2.95666V5.67662ZM22.64 6.68992H25.9867V18.3566H22.64V6.68992ZM19.0534 7.6766L18.84 6.68992H15.96V18.3566H19.2934V10.4499C20.08 9.42319 21.4133 9.60993 21.8267 9.75655V6.68992C21.4 6.52999 19.84 6.23666 19.0534 7.6766ZM12.3867 3.79663L9.13333 4.48998L9.12002 15.1699C9.12002 17.1433 10.6 18.5966 12.5734 18.5966C13.6667 18.5966 14.4667 18.3966 14.9067 18.1566V15.45C14.4801 15.6233 12.3734 16.2366 12.3734 14.2633V9.52997H14.9067V6.69001H12.3734L12.3867 3.79663ZM3.37337 10.0766C3.37337 9.55659 3.80001 9.35663 4.50667 9.35663C5.51997 9.35663 6.79998 9.66327 7.81338 10.21V7.07662C6.70671 6.63667 5.61334 6.46334 4.50667 6.46334C1.80002 6.46334 0 7.87666 0 10.2366C0 13.9166 5.06671 13.33 5.06671 14.9166C5.06671 15.53 4.53339 15.73 3.7867 15.73C2.68002 15.73 1.2667 15.2766 0.146713 14.6633V17.8366C1.3867 18.37 2.64008 18.5966 3.7867 18.5966C6.55999 18.5966 8.4667 17.2233 8.4667 14.8367C8.45339 10.8633 3.37337 11.57 3.37337 10.0766Z" fill="#6A6E76"/>
</svg>
