<svg width="52" height="52" viewBox="0 0 52 52" fill="none" xmlns="http://www.w3.org/2000/svg">
<rect width="52" height="52" rx="8" fill="#F2F2F3"/>
<g clip-path="url(#clip0_1051_295)">
<rect x="17" y="19" width="18" height="16" rx="2" stroke="#101214" stroke-width="2"/>
<path d="M22 17C22 16.4477 21.5523 16 21 16C20.4477 16 20 16.4477 20 17H22ZM20 17C20 17.0009 20 17.0018 20 17.0027C20 17.0037 20 17.0046 20 17.0055C20 17.0065 20 17.0074 20 17.0083C20 17.0093 20 17.0102 20 17.0112C20 17.0121 20 17.0131 20 17.014C20 17.015 20 17.016 20 17.0169C20 17.0179 20 17.0189 20 17.0198C20 17.0208 20 17.0218 20 17.0228C20 17.0238 20 17.0248 20 17.0258C20 17.0268 20 17.0278 20 17.0288C20 17.0298 20 17.0308 20 17.0318C20 17.0328 20 17.0338 20 17.0349C20 17.0359 20 17.0369 20 17.038C20 17.039 20 17.04 20 17.0411C20 17.0421 20 17.0432 20 17.0442C20 17.0453 20 17.0463 20 17.0474C20 17.0484 20 17.0495 20 17.0506C20 17.0516 20 17.0527 20 17.0538C20 17.0549 20 17.056 20 17.0571C20 17.0581 20 17.0592 20 17.0603C20 17.0614 20 17.0625 20 17.0636C20 17.0647 20 17.0659 20 17.067C20 17.0681 20 17.0692 20 17.0703C20 17.0715 20 17.0726 20 17.0737C20 17.0748 20 17.076 20 17.0771C20 17.0783 20 17.0794 20 17.0806C20 17.0817 20 17.0829 20 17.084C20 17.0852 20 17.0864 20 17.0875C20 17.0887 20 17.0899 20 17.091C20 17.0922 20 17.0934 20 17.0946C20 17.0958 20 17.097 20 17.0982C20 17.0993 20 17.1005 20 17.1017C20 17.1029 20 17.1042 20 17.1054C20 17.1066 20 17.1078 20 17.109C20 17.1102 20 17.1115 20 17.1127C20 17.1139 20 17.1151 20 17.1164C20 17.1176 20 17.1189 20 17.1201C20 17.1214 20 17.1226 20 17.1239C20 17.1251 20 17.1264 20 17.1276C20 17.1289 20 17.1302 20 17.1314C20 17.1327 20 17.134 20 17.1352C20 17.1365 20 17.1378 20 17.1391C20 17.1404 20 17.1417 20 17.143C20 17.1443 20 17.1456 20 17.1469C20 17.1482 20 17.1495 20 17.1508C20 17.1521 20 17.1534 20 17.1547C20 17.1561 20 17.1574 20 17.1587C20 17.16 20 17.1614 20 17.1627C20 17.164 20 17.1654 20 17.1667C20 17.1681 20 17.1694 20 17.1708C20 17.1721 20 17.1735 20 17.1748C20 17.1762 20 17.1776 20 17.1789C20 17.1803 20 17.1817 20 17.183C20 17.1844 20 17.1858 20 17.1872C20 17.1886 20 17.19 20 17.1913C20 17.1927 20 17.1941 20 17.1955C20 17.1969 20 17.1983 20 17.1997C20 17.2011 20 17.2026 20 17.204C20 17.2054 20 17.2068 20 17.2082C20 17.2096 20 17.2111 20 17.2125C20 17.2139 20 17.2154 20 17.2168C20 17.2182 20 17.2197 20 17.2211C20 17.2226 20 17.224 20 17.2255C20 17.2269 20 17.2284 20 17.2299C20 17.2313 20 17.2328 20 17.2342C20 17.2357 20 17.2372 20 17.2387C20 17.2401 20 17.2416 20 17.2431C20 17.2446 20 17.2461 20 17.2476C20 17.249 20 17.2505 20 17.252C20 17.2535 20 17.255 20 17.2565C20 17.2581 20 17.2596 20 17.2611C20 17.2626 20 17.2641 20 17.2656C20 17.2671 20 17.2687 20 17.2702C20 17.2717 20 17.2732 20 17.2748C20 17.2763 20 17.2779 20 17.2794C20 17.2809 20 17.2825 20 17.284C20 17.2856 20 17.2871 20 17.2887C20 17.2902 20 17.2918 20 17.2934C20 17.2949 20 17.2965 20 17.2981C20 17.2996 20 17.3012 20 17.3028C20 17.3044 20 17.3059 20 17.3075C20 17.3091 20 17.3107 20 17.3123C20 17.3139 20 17.3155 20 17.3171C20 17.3187 20 17.3203 20 17.3219C20 17.3235 20 17.3251 20 17.3267C20 17.3283 20 17.3299 20 17.3316C20 17.3332 20 17.3348 20 17.3364C20 17.338 20 17.3397 20 17.3413C20 17.3429 20 17.3446 20 17.3462C20 17.3478 20 17.3495 20 17.3511C20 17.3528 20 17.3544 20 17.3561C20 17.3577 20 17.3594 20 17.3611C20 17.3627 20 17.3644 20 17.366C20 17.3677 20 17.3694 20 17.371C20 17.3727 20 17.3744 20 17.3761C20 17.3777 20 17.3794 20 17.3811C20 17.3828 20 17.3845 20 17.3862C20 17.3879 20 17.3896 20 17.3913C20 17.393 20 17.3947 20 17.3964C20 17.3981 20 17.3998 20 17.4015C20 17.4032 20 17.4049 20 17.4066C20 17.4084 20 17.4101 20 17.4118C20 17.4135 20 17.4152 20 17.417C20 17.4187 20 17.4204 20 17.4222C20 17.4239 20 17.4257 20 17.4274C20 17.4291 20 17.4309 20 17.4326C20 17.4344 20 17.4361 20 17.4379C20 17.4396 20 17.4414 20 17.4432C20 17.4449 20 17.4467 20 17.4485C20 17.4502 20 17.452 20 17.4538C20 17.4555 20 17.4573 20 17.4591C20 17.4609 20 17.4626 20 17.4644C20 17.4662 20 17.468 20 17.4698C20 17.4716 20 17.4734 20 17.4752C20 17.477 20 17.4788 20 17.4806C20 17.4824 20 17.4842 20 17.486C20 17.4878 20 17.4896 20 17.4914C20 17.4932 20 17.4951 20 17.4969C20 17.4987 20 17.5005 20 17.5024C20 17.5042 20 17.506 20 17.5078C20 17.5097 20 17.5115 20 17.5133C20 17.5152 20 17.517 20 17.5189C20 17.5207 20 17.5226 20 17.5244C20 17.5263 20 17.5281 20 17.53C20 17.5318 20 17.5337 20 17.5355C20 17.5374 20 17.5393 20 17.5411C20 17.543 20 17.5449 20 17.5467C20 17.5486 20 17.5505 20 17.5523C20 17.5542 20 17.5561 20 17.558C20 17.5599 20 17.5617 20 17.5636C20 17.5655 20 17.5674 20 17.5693C20 17.5712 20 17.5731 20 17.575C20 17.5769 20 17.5788 20 17.5807C20 17.5826 20 17.5845 20 17.5864C20 17.5883 20 17.5902 20 17.5921C20 17.5941 20 17.596 20 17.5979C20 17.5998 20 17.6017 20 17.6037C20 17.6056 20 17.6075 20 17.6094C20 17.6114 20 17.6133 20 17.6152C20 17.6172 20 17.6191 20 17.621C20 17.623 20 17.6249 20 17.6269C20 17.6288 20 17.6308 20 17.6327C20 17.6347 20 17.6366 20 17.6386C20 17.6405 20 17.6425 20 17.6444C20 17.6464 20 17.6484 20 17.6503C20 17.6523 20 17.6543 20 17.6562C20 17.6582 20 17.6602 20 17.6621C20 17.6641 20 17.6661 20 17.6681C20 17.6701 20 17.672 20 17.674C20 17.676 20 17.678 20 17.68C20 17.682 20 17.684 20 17.686C20 17.6879 20 17.6899 20 17.6919C20 17.6939 20 17.6959 20 17.6979C20 17.6999 20 17.702 20 17.704C20 17.706 20 17.708 20 17.71C20 17.712 20 17.714 20 17.716C20 17.718 20 17.7201 20 17.7221C20 17.7241 20 17.7261 20 17.7282C20 17.7302 20 17.7322 20 17.7342C20 17.7363 20 17.7383 20 17.7403C20 17.7424 20 17.7444 20 17.7464C20 17.7485 20 17.7505 20 17.7526C20 17.7546 20 17.7567 20 17.7587C20 17.7608 20 17.7628 20 17.7649C20 17.7669 20 17.769 20 17.771C20 17.7731 20 17.7751 20 17.7772C20 17.7793 20 17.7813 20 17.7834C20 17.7854 20 17.7875 20 17.7896C20 17.7916 20 17.7937 20 17.7958C20 17.7979 20 17.7999 20 17.802C20 17.8041 20 17.8062 20 17.8083C20 17.8103 20 17.8124 20 17.8145C20 17.8166 20 17.8187 20 17.8208C20 17.8229 20 17.8249 20 17.827C20 17.8291 20 17.8312 20 17.8333C20 17.8354 20 17.8375 20 17.8396C20 17.8417 20 17.8438 20 17.8459C20 17.848 20 17.8501 20 17.8522C20 17.8544 20 17.8565 20 17.8586C20 17.8607 20 17.8628 20 17.8649C20 17.867 20 17.8692 20 17.8713C20 17.8734 20 17.8755 20 17.8776C20 17.8798 20 17.8819 20 17.884C20 17.8861 20 17.8883 20 17.8904C20 17.8925 20 17.8947 20 17.8968C20 17.8989 20 17.9011 20 17.9032C20 17.9054 20 17.9075 20 17.9096C20 17.9118 20 17.9139 20 17.9161C20 17.9182 20 17.9204 20 17.9225C20 17.9247 20 17.9268 20 17.929C20 17.9311 20 17.9333 20 17.9354C20 17.9376 20 17.9397 20 17.9419C20 17.9441 20 17.9462 20 17.9484C20 17.9505 20 17.9527 20 17.9549C20 17.957 20 17.9592 20 17.9614C20 17.9635 20 17.9657 20 17.9679C20 17.9701 20 17.9722 20 17.9744C20 17.9766 20 17.9788 20 17.9809C20 17.9831 20 17.9853 20 17.9875C20 17.9897 20 17.9918 20 17.994C20 17.9962 20 17.9984 20 18.0006C20 18.0028 20 18.005 20 18.0072C20 18.0093 20 18.0115 20 18.0137C20 18.0159 20 18.0181 20 18.0203C20 18.0225 20 18.0247 20 18.0269C20 18.0291 20 18.0313 20 18.0335C20 18.0357 20 18.0379 20 18.0401C20 18.0423 20 18.0446 20 18.0468C20 18.049 20 18.0512 20 18.0534C20 18.0556 20 18.0578 20 18.06C20 18.0622 20 18.0645 20 18.0667C20 18.0689 20 18.0711 20 18.0733C20 18.0756 20 18.0778 20 18.08C20 18.0822 20 18.0844 20 18.0867C20 18.0889 20 18.0911 20 18.0934C20 18.0956 20 18.0978 20 18.1C20 18.1023 20 18.1045 20 18.1067C20 18.109 20 18.1112 20 18.1134C20 18.1157 20 18.1179 20 18.1202C20 18.1224 20 18.1246 20 18.1269C20 18.1291 20 18.1314 20 18.1336C20 18.1358 20 18.1381 20 18.1403C20 18.1426 20 18.1448 20 18.1471C20 18.1493 20 18.1516 20 18.1538C20 18.1561 20 18.1583 20 18.1606C20 18.1628 20 18.1651 20 18.1673C20 18.1696 20 18.1718 20 18.1741C20 18.1764 20 18.1786 20 18.1809C20 18.1831 20 18.1854 20 18.1877C20 18.1899 20 18.1922 20 18.1945C20 18.1967 20 18.199 20 18.2012C20 18.2035 20 18.2058 20 18.208C20 18.2103 20 18.2126 20 18.2149C20 18.2171 20 18.2194 20 18.2217C20 18.2239 20 18.2262 20 18.2285C20 18.2308 20 18.233 20 18.2353C20 18.2376 20 18.2399 20 18.2421C20 18.2444 20 18.2467 20 18.249C20 18.2513 20 18.2535 20 18.2558C20 18.2581 20 18.2604 20 18.2627C20 18.265 20 18.2672 20 18.2695C20 18.2718 20 18.2741 20 18.2764C20 18.2787 20 18.281 20 18.2832C20 18.2855 20 18.2878 20 18.2901C20 18.2924 20 18.2947 20 18.297C20 18.2993 20 18.3016 20 18.3039C20 18.3062 20 18.3085 20 18.3108C20 18.3131 20 18.3153 20 18.3176C20 18.3199 20 18.3222 20 18.3245C20 18.3268 20 18.3291 20 18.3314C20 18.3337 20 18.336 20 18.3383C20 18.3406 20 18.3429 20 18.3452C20 18.3476 20 18.3499 20 18.3522C20 18.3545 20 18.3568 20 18.3591C20 18.3614 20 18.3637 20 18.366C20 18.3683 20 18.3706 20 18.3729C20 18.3752 20 18.3775 20 18.3798C20 18.3822 20 18.3845 20 18.3868C20 18.3891 20 18.3914 20 18.3937C20 18.396 20 18.3983 20 18.4006C20 18.403 20 18.4053 20 18.4076C20 18.4099 20 18.4122 20 18.4145C20 18.4169 20 18.4192 20 18.4215C20 18.4238 20 18.4261 20 18.4284C20 18.4308 20 18.4331 20 18.4354C20 18.4377 20 18.44 20 18.4423C20 18.4447 20 18.447 20 18.4493C20 18.4516 20 18.454 20 18.4563C20 18.4586 20 18.4609 20 18.4632C20 18.4656 20 18.4679 20 18.4702C20 18.4725 20 18.4749 20 18.4772C20 18.4795 20 18.4818 20 18.4842C20 18.4865 20 18.4888 20 18.4911C20 18.4935 20 18.4958 20 18.4981C20 18.5004 20 18.5028 20 18.5051C20 18.5074 20 18.5097 20 18.5121C20 18.5144 20 18.5167 20 18.5191C20 18.5214 20 18.5237 20 18.526C20 18.5284 20 18.5307 20 18.533C20 18.5354 20 18.5377 20 18.54C20 18.5423 20 18.5447 20 18.547C20 18.5493 20 18.5517 20 18.554C20 18.5563 20 18.5587 20 18.561C20 18.5633 20 18.5657 20 18.568C20 18.5703 20 18.5727 20 18.575C20 18.5773 20 18.5797 20 18.582C20 18.5843 20 18.5867 20 18.589C20 18.5913 20 18.5937 20 18.596C20 18.5983 20 18.6007 20 18.603C20 18.6053 20 18.6077 20 18.61C20 18.6123 20 18.6147 20 18.617C20 18.6193 20 18.6217 20 18.624C20 18.6263 20 18.6287 20 18.631C20 18.6333 20 18.6357 20 18.638C20 18.6403 20 18.6427 20 18.645C20 18.6473 20 18.6497 20 18.652C20 18.6543 20 18.6567 20 18.659C20 18.6613 20 18.6637 20 18.666C20 18.6683 20 18.6707 20 18.673C20 18.6753 20 18.6777 20 18.68C20 18.6823 20 18.6847 20 18.687C20 18.6893 20 18.6917 20 18.694C20 18.6963 20 18.6987 20 18.701C20 18.7033 20 18.7057 20 18.708C20 18.7103 20 18.7127 20 18.715C20 18.7173 20 18.7197 20 18.722C20 18.7243 20 18.7267 20 18.729C20 18.7313 20 18.7337 20 18.736C20 18.7383 20 18.7407 20 18.743C20 18.7453 20 18.7477 20 18.75C20 18.7523 20 18.7546 20 18.757C20 18.7593 20 18.7616 20 18.764C20 18.7663 20 18.7686 20 18.771C20 18.7733 20 18.7756 20 18.7779C20 18.7803 20 18.7826 20 18.7849C20 18.7873 20 18.7896 20 18.7919C20 18.7942 20 18.7966 20 18.7989C20 18.8012 20 18.8035 20 18.8059C20 18.8082 20 18.8105 20 18.8128C20 18.8152 20 18.8175 20 18.8198C20 18.8221 20 18.8245 20 18.8268C20 18.8291 20 18.8314 20 18.8338C20 18.8361 20 18.8384 20 18.8407C20 18.8431 20 18.8454 20 18.8477C20 18.85 20 18.8523 20 18.8547C20 18.857 20 18.8593 20 18.8616C20 18.8639 20 18.8663 20 18.8686C20 18.8709 20 18.8732 20 18.8755C20 18.8778 20 18.8802 20 18.8825C20 18.8848 20 18.8871 20 18.8894C20 18.8917 20 18.8941 20 18.8964C20 18.8987 20 18.901 20 18.9033C20 18.9056 20 18.9079 20 18.9102C20 18.9126 20 18.9149 20 18.9172C20 18.9195 20 18.9218 20 18.9241C20 18.9264 20 18.9287 20 18.931C20 18.9333 20 18.9356 20 18.938C20 18.9403 20 18.9426 20 18.9449C20 18.9472 20 18.9495 20 18.9518C20 18.9541 20 18.9564 20 18.9587C20 18.961 20 18.9633 20 18.9656C20 18.9679 20 18.9702 20 18.9725C20 18.9748 20 18.9771 20 18.9794C20 18.9817 20 18.984 20 18.9863C20 18.9886 20 18.9909 20 18.9932C20 18.9955 20 18.9978 20 19.0001C20 19.0023 20 19.0046 20 19.0069C20 19.0092 20 19.0115 20 19.0138C20 19.0161 20 19.0184 20 19.0207C20 19.023 20 19.0252 20 19.0275C20 19.0298 20 19.0321 20 19.0344C20 19.0367 20 19.039 20 19.0412C20 19.0435 20 19.0458 20 19.0481C20 19.0504 20 19.0526 20 19.0549C20 19.0572 20 19.0595 20 19.0618C20 19.064 20 19.0663 20 19.0686C20 19.0709 20 19.0731 20 19.0754C20 19.0777 20 19.08 20 19.0822C20 19.0845 20 19.0868 20 19.089C20 19.0913 20 19.0936 20 19.0958C20 19.0981 20 19.1004 20 19.1026C20 19.1049 20 19.1072 20 19.1094C20 19.1117 20 19.114 20 19.1162C20 19.1185 20 19.1207 20 19.123C20 19.1253 20 19.1275 20 19.1298C20 19.132 20 19.1343 20 19.1365C20 19.1388 20 19.141 20 19.1433C20 19.1455 20 19.1478 20 19.15C20 19.1523 20 19.1545 20 19.1568C20 19.159 20 19.1613 20 19.1635C20 19.1658 20 19.168 20 19.1702C20 19.1725 20 19.1747 20 19.177C20 19.1792 20 19.1814 20 19.1837C20 19.1859 20 19.1882 20 19.1904C20 19.1926 20 19.1949 20 19.1971C20 19.1993 20 19.2016 20 19.2038C20 19.206 20 19.2082 20 19.2105C20 19.2127 20 19.2149 20 19.2171C20 19.2194 20 19.2216 20 19.2238C20 19.226 20 19.2283 20 19.2305C20 19.2327 20 19.2349 20 19.2371C20 19.2393 20 19.2416 20 19.2438C20 19.246 20 19.2482 20 19.2504C20 19.2526 20 19.2548 20 19.257C20 19.2592 20 19.2614 20 19.2636C20 19.2659 20 19.2681 20 19.2703C20 19.2725 20 19.2747 20 19.2769C20 19.2791 20 19.2813 20 19.2835C20 19.2856 20 19.2878 20 19.29C20 19.2922 20 19.2944 20 19.2966C20 19.2988 20 19.301 20 19.3032C20 19.3054 20 19.3075 20 19.3097C20 19.3119 20 19.3141 20 19.3163C20 19.3185 20 19.3206 20 19.3228C20 19.325 20 19.3272 20 19.3293C20 19.3315 20 19.3337 20 19.3359C20 19.338 20 19.3402 20 19.3424C20 19.3445 20 19.3467 20 19.3489C20 19.351 20 19.3532 20 19.3553C20 19.3575 20 19.3597 20 19.3618C20 19.364 20 19.3661 20 19.3683C20 19.3704 20 19.3726 20 19.3747C20 19.3769 20 19.379 20 19.3812C20 19.3833 20 19.3855 20 19.3876C20 19.3898 20 19.3919 20 19.394C20 19.3962 20 19.3983 20 19.4005C20 19.4026 20 19.4047 20 19.4069C20 19.409 20 19.4111 20 19.4133C20 19.4154 20 19.4175 20 19.4196C20 19.4218 20 19.4239 20 19.426C20 19.4281 20 19.4303 20 19.4324C20 19.4345 20 19.4366 20 19.4387C20 19.4408 20 19.4429 20 19.4451C20 19.4472 20 19.4493 20 19.4514C20 19.4535 20 19.4556 20 19.4577C20 19.4598 20 19.4619 20 19.464C20 19.4661 20 19.4682 20 19.4703C20 19.4724 20 19.4745 20 19.4766C20 19.4787 20 19.4808 20 19.4828C20 19.4849 20 19.487 20 19.4891C20 19.4912 20 19.4933 20 19.4953C20 19.4974 20 19.4995 20 19.5016C20 19.5036 20 19.5057 20 19.5078C20 19.5099 20 19.5119 20 19.514C20 19.5161 20 19.5181 20 19.5202C20 19.5222 20 19.5243 20 19.5264C20 19.5284 20 19.5305 20 19.5325C20 19.5346 20 19.5366 20 19.5387C20 19.5407 20 19.5428 20 19.5448C20 19.5469 20 19.5489 20 19.551C20 19.553 20 19.555 20 19.5571C20 19.5591 20 19.5611 20 19.5632C20 19.5652 20 19.5672 20 19.5693C20 19.5713 20 19.5733 20 19.5753C20 19.5774 20 19.5794 20 19.5814C20 19.5834 20 19.5854 20 19.5875C20 19.5895 20 19.5915 20 19.5935C20 19.5955 20 19.5975 20 19.5995C20 19.6015 20 19.6035 20 19.6055C20 19.6075 20 19.6095 20 19.6115C20 19.6135 20 19.6155 20 19.6175C20 19.6195 20 19.6215 20 19.6235C20 19.6254 20 19.6274 20 19.6294C20 19.6314 20 19.6334 20 19.6353C20 19.6373 20 19.6393 20 19.6413C20 19.6432 20 19.6452 20 19.6472C20 19.6491 20 19.6511 20 19.6531C20 19.655 20 19.657 20 19.659C20 19.6609 20 19.6629 20 19.6648C20 19.6668 20 19.6687 20 19.6707C20 19.6726 20 19.6746 20 19.6765C20 19.6784 20 19.6804 20 19.6823C20 19.6843 20 19.6862 20 19.6881C20 19.6901 20 19.692 20 19.6939C20 19.6958 20 19.6978 20 19.6997C20 19.7016 20 19.7035 20 19.7054C20 19.7074 20 19.7093 20 19.7112C20 19.7131 20 19.715 20 19.7169C20 19.7188 20 19.7207 20 19.7226C20 19.7245 20 19.7264 20 19.7283C20 19.7302 20 19.7321 20 19.734C20 19.7359 20 19.7378 20 19.7396C20 19.7415 20 19.7434 20 19.7453C20 19.7472 20 19.749 20 19.7509C20 19.7528 20 19.7547 20 19.7565C20 19.7584 20 19.7603 20 19.7621C20 19.764 20 19.7659 20 19.7677C20 19.7696 20 19.7714 20 19.7733C20 19.7751 20 19.777 20 19.7788C20 19.7807 20 19.7825 20 19.7843C20 19.7862 20 19.788 20 19.7899C20 19.7917 20 19.7935 20 19.7954C20 19.7972 20 19.799 20 19.8008C20 19.8027 20 19.8045 20 19.8063C20 19.8081 20 19.8099 20 19.8117C20 19.8135 20 19.8154 20 19.8172C20 19.819 20 19.8208 20 19.8226C20 19.8244 20 19.8262 20 19.828C20 19.8298 20 19.8315 20 19.8333C20 19.8351 20 19.8369 20 19.8387C20 19.8405 20 19.8422 20 19.844C20 19.8458 20 19.8476 20 19.8493C20 19.8511 20 19.8529 20 19.8546C20 19.8564 20 19.8582 20 19.8599C20 19.8617 20 19.8634 20 19.8652C20 19.8669 20 19.8687 20 19.8704C20 19.8722 20 19.8739 20 19.8757C20 19.8774 20 19.8791 20 19.8809C20 19.8826 20 19.8843 20 19.8861C20 19.8878 20 19.8895 20 19.8912C20 19.8929 20 19.8947 20 19.8964C20 19.8981 20 19.8998 20 19.9015C20 19.9032 20 19.9049 20 19.9066C20 19.9083 20 19.91 20 19.9117C20 19.9134 20 19.9151 20 19.9168C20 19.9185 20 19.9202 20 19.9218C20 19.9235 20 19.9252 20 19.9269C20 19.9286 20 19.9302 20 19.9319C20 19.9336 20 19.9352 20 19.9369C20 19.9386 20 19.9402 20 19.9419C20 19.9435 20 19.9452 20 19.9468C20 19.9485 20 19.9501 20 19.9518C20 19.9534 20 19.955 20 19.9567C20 19.9583 20 19.9599 20 19.9616C20 19.9632 20 19.9648 20 19.9664C20 19.9681 20 19.9697 20 19.9713C20 19.9729 20 19.9745 20 19.9761C20 19.9777 20 19.9794 20 19.981C20 19.9826 20 19.9842 20 19.9857C20 19.9873 20 19.9889 20 19.9905C20 19.9921 20 19.9937 20 19.9953C20 19.9968 20 19.9984 20 20H22C22 19.9984 22 19.9968 22 19.9953C22 19.9937 22 19.9921 22 19.9905C22 19.9889 22 19.9873 22 19.9857C22 19.9842 22 19.9826 22 19.981C22 19.9794 22 19.9777 22 19.9761C22 19.9745 22 19.9729 22 19.9713C22 19.9697 22 19.9681 22 19.9664C22 19.9648 22 19.9632 22 19.9616C22 19.9599 22 19.9583 22 19.9567C22 19.955 22 19.9534 22 19.9518C22 19.9501 22 19.9485 22 19.9468C22 19.9452 22 19.9435 22 19.9419C22 19.9402 22 19.9386 22 19.9369C22 19.9352 22 19.9336 22 19.9319C22 19.9302 22 19.9286 22 19.9269C22 19.9252 22 19.9235 22 19.9218C22 19.9202 22 19.9185 22 19.9168C22 19.9151 22 19.9134 22 19.9117C22 19.91 22 19.9083 22 19.9066C22 19.9049 22 19.9032 22 19.9015C22 19.8998 22 19.8981 22 19.8964C22 19.8947 22 19.8929 22 19.8912C22 19.8895 22 19.8878 22 19.8861C22 19.8843 22 19.8826 22 19.8809C22 19.8791 22 19.8774 22 19.8757C22 19.8739 22 19.8722 22 19.8704C22 19.8687 22 19.8669 22 19.8652C22 19.8634 22 19.8617 22 19.8599C22 19.8582 22 19.8564 22 19.8546C22 19.8529 22 19.8511 22 19.8493C22 19.8476 22 19.8458 22 19.844C22 19.8422 22 19.8405 22 19.8387C22 19.8369 22 19.8351 22 19.8333C22 19.8315 22 19.8298 22 19.828C22 19.8262 22 19.8244 22 19.8226C22 19.8208 22 19.819 22 19.8172C22 19.8154 22 19.8135 22 19.8117C22 19.8099 22 19.8081 22 19.8063C22 19.8045 22 19.8027 22 19.8008C22 19.799 22 19.7972 22 19.7954C22 19.7935 22 19.7917 22 19.7899C22 19.788 22 19.7862 22 19.7843C22 19.7825 22 19.7807 22 19.7788C22 19.777 22 19.7751 22 19.7733C22 19.7714 22 19.7696 22 19.7677C22 19.7659 22 19.764 22 19.7621C22 19.7603 22 19.7584 22 19.7565C22 19.7547 22 19.7528 22 19.7509C22 19.749 22 19.7472 22 19.7453C22 19.7434 22 19.7415 22 19.7396C22 19.7378 22 19.7359 22 19.734C22 19.7321 22 19.7302 22 19.7283C22 19.7264 22 19.7245 22 19.7226C22 19.7207 22 19.7188 22 19.7169C22 19.715 22 19.7131 22 19.7112C22 19.7093 22 19.7074 22 19.7054C22 19.7035 22 19.7016 22 19.6997C22 19.6978 22 19.6958 22 19.6939C22 19.692 22 19.6901 22 19.6881C22 19.6862 22 19.6843 22 19.6823C22 19.6804 22 19.6784 22 19.6765C22 19.6746 22 19.6726 22 19.6707C22 19.6687 22 19.6668 22 19.6648C22 19.6629 22 19.6609 22 19.659C22 19.657 22 19.655 22 19.6531C22 19.6511 22 19.6491 22 19.6472C22 19.6452 22 19.6432 22 19.6413C22 19.6393 22 19.6373 22 19.6353C22 19.6334 22 19.6314 22 19.6294C22 19.6274 22 19.6254 22 19.6235C22 19.6215 22 19.6195 22 19.6175C22 19.6155 22 19.6135 22 19.6115C22 19.6095 22 19.6075 22 19.6055C22 19.6035 22 19.6015 22 19.5995C22 19.5975 22 19.5955 22 19.5935C22 19.5915 22 19.5895 22 19.5875C22 19.5854 22 19.5834 22 19.5814C22 19.5794 22 19.5774 22 19.5753C22 19.5733 22 19.5713 22 19.5693C22 19.5672 22 19.5652 22 19.5632C22 19.5611 22 19.5591 22 19.5571C22 19.555 22 19.553 22 19.551C22 19.5489 22 19.5469 22 19.5448C22 19.5428 22 19.5407 22 19.5387C22 19.5366 22 19.5346 22 19.5325C22 19.5305 22 19.5284 22 19.5264C22 19.5243 22 19.5222 22 19.5202C22 19.5181 22 19.5161 22 19.514C22 19.5119 22 19.5099 22 19.5078C22 19.5057 22 19.5036 22 19.5016C22 19.4995 22 19.4974 22 19.4953C22 19.4933 22 19.4912 22 19.4891C22 19.487 22 19.4849 22 19.4828C22 19.4808 22 19.4787 22 19.4766C22 19.4745 22 19.4724 22 19.4703C22 19.4682 22 19.4661 22 19.464C22 19.4619 22 19.4598 22 19.4577C22 19.4556 22 19.4535 22 19.4514C22 19.4493 22 19.4472 22 19.4451C22 19.4429 22 19.4408 22 19.4387C22 19.4366 22 19.4345 22 19.4324C22 19.4303 22 19.4281 22 19.426C22 19.4239 22 19.4218 22 19.4196C22 19.4175 22 19.4154 22 19.4133C22 19.4111 22 19.409 22 19.4069C22 19.4047 22 19.4026 22 19.4005C22 19.3983 22 19.3962 22 19.394C22 19.3919 22 19.3898 22 19.3876C22 19.3855 22 19.3833 22 19.3812C22 19.379 22 19.3769 22 19.3747C22 19.3726 22 19.3704 22 19.3683C22 19.3661 22 19.364 22 19.3618C22 19.3597 22 19.3575 22 19.3553C22 19.3532 22 19.351 22 19.3489C22 19.3467 22 19.3445 22 19.3424C22 19.3402 22 19.338 22 19.3359C22 19.3337 22 19.3315 22 19.3293C22 19.3272 22 19.325 22 19.3228C22 19.3206 22 19.3185 22 19.3163C22 19.3141 22 19.3119 22 19.3097C22 19.3075 22 19.3054 22 19.3032C22 19.301 22 19.2988 22 19.2966C22 19.2944 22 19.2922 22 19.29C22 19.2878 22 19.2856 22 19.2835C22 19.2813 22 19.2791 22 19.2769C22 19.2747 22 19.2725 22 19.2703C22 19.2681 22 19.2659 22 19.2636C22 19.2614 22 19.2592 22 19.257C22 19.2548 22 19.2526 22 19.2504C22 19.2482 22 19.246 22 19.2438C22 19.2416 22 19.2393 22 19.2371C22 19.2349 22 19.2327 22 19.2305C22 19.2283 22 19.226 22 19.2238C22 19.2216 22 19.2194 22 19.2171C22 19.2149 22 19.2127 22 19.2105C22 19.2082 22 19.206 22 19.2038C22 19.2016 22 19.1993 22 19.1971C22 19.1949 22 19.1926 22 19.1904C22 19.1882 22 19.1859 22 19.1837C22 19.1814 22 19.1792 22 19.177C22 19.1747 22 19.1725 22 19.1702C22 19.168 22 19.1658 22 19.1635C22 19.1613 22 19.159 22 19.1568C22 19.1545 22 19.1523 22 19.15C22 19.1478 22 19.1455 22 19.1433C22 19.141 22 19.1388 22 19.1365C22 19.1343 22 19.132 22 19.1298C22 19.1275 22 19.1253 22 19.123C22 19.1207 22 19.1185 22 19.1162C22 19.114 22 19.1117 22 19.1094C22 19.1072 22 19.1049 22 19.1026C22 19.1004 22 19.0981 22 19.0958C22 19.0936 22 19.0913 22 19.089C22 19.0868 22 19.0845 22 19.0822C22 19.08 22 19.0777 22 19.0754C22 19.0731 22 19.0709 22 19.0686C22 19.0663 22 19.064 22 19.0618C22 19.0595 22 19.0572 22 19.0549C22 19.0526 22 19.0504 22 19.0481C22 19.0458 22 19.0435 22 19.0412C22 19.039 22 19.0367 22 19.0344C22 19.0321 22 19.0298 22 19.0275C22 19.0252 22 19.023 22 19.0207C22 19.0184 22 19.0161 22 19.0138C22 19.0115 22 19.0092 22 19.0069C22 19.0046 22 19.0023 22 19.0001C22 18.9978 22 18.9955 22 18.9932C22 18.9909 22 18.9886 22 18.9863C22 18.984 22 18.9817 22 18.9794C22 18.9771 22 18.9748 22 18.9725C22 18.9702 22 18.9679 22 18.9656C22 18.9633 22 18.961 22 18.9587C22 18.9564 22 18.9541 22 18.9518C22 18.9495 22 18.9472 22 18.9449C22 18.9426 22 18.9403 22 18.938C22 18.9356 22 18.9333 22 18.931C22 18.9287 22 18.9264 22 18.9241C22 18.9218 22 18.9195 22 18.9172C22 18.9149 22 18.9126 22 18.9102C22 18.9079 22 18.9056 22 18.9033C22 18.901 22 18.8987 22 18.8964C22 18.8941 22 18.8917 22 18.8894C22 18.8871 22 18.8848 22 18.8825C22 18.8802 22 18.8778 22 18.8755C22 18.8732 22 18.8709 22 18.8686C22 18.8663 22 18.8639 22 18.8616C22 18.8593 22 18.857 22 18.8547C22 18.8523 22 18.85 22 18.8477C22 18.8454 22 18.8431 22 18.8407C22 18.8384 22 18.8361 22 18.8338C22 18.8314 22 18.8291 22 18.8268C22 18.8245 22 18.8221 22 18.8198C22 18.8175 22 18.8152 22 18.8128C22 18.8105 22 18.8082 22 18.8059C22 18.8035 22 18.8012 22 18.7989C22 18.7966 22 18.7942 22 18.7919C22 18.7896 22 18.7873 22 18.7849C22 18.7826 22 18.7803 22 18.7779C22 18.7756 22 18.7733 22 18.771C22 18.7686 22 18.7663 22 18.764C22 18.7616 22 18.7593 22 18.757C22 18.7546 22 18.7523 22 18.75C22 18.7477 22 18.7453 22 18.743C22 18.7407 22 18.7383 22 18.736C22 18.7337 22 18.7313 22 18.729C22 18.7267 22 18.7243 22 18.722C22 18.7197 22 18.7173 22 18.715C22 18.7127 22 18.7103 22 18.708C22 18.7057 22 18.7033 22 18.701C22 18.6987 22 18.6963 22 18.694C22 18.6917 22 18.6893 22 18.687C22 18.6847 22 18.6823 22 18.68C22 18.6777 22 18.6753 22 18.673C22 18.6707 22 18.6683 22 18.666C22 18.6637 22 18.6613 22 18.659C22 18.6567 22 18.6543 22 18.652C22 18.6497 22 18.6473 22 18.645C22 18.6427 22 18.6403 22 18.638C22 18.6357 22 18.6333 22 18.631C22 18.6287 22 18.6263 22 18.624C22 18.6217 22 18.6193 22 18.617C22 18.6147 22 18.6123 22 18.61C22 18.6077 22 18.6053 22 18.603C22 18.6007 22 18.5983 22 18.596C22 18.5937 22 18.5913 22 18.589C22 18.5867 22 18.5843 22 18.582C22 18.5797 22 18.5773 22 18.575C22 18.5727 22 18.5703 22 18.568C22 18.5657 22 18.5633 22 18.561C22 18.5587 22 18.5563 22 18.554C22 18.5517 22 18.5493 22 18.547C22 18.5447 22 18.5423 22 18.54C22 18.5377 22 18.5354 22 18.533C22 18.5307 22 18.5284 22 18.526C22 18.5237 22 18.5214 22 18.5191C22 18.5167 22 18.5144 22 18.5121C22 18.5097 22 18.5074 22 18.5051C22 18.5028 22 18.5004 22 18.4981C22 18.4958 22 18.4935 22 18.4911C22 18.4888 22 18.4865 22 18.4842C22 18.4818 22 18.4795 22 18.4772C22 18.4749 22 18.4725 22 18.4702C22 18.4679 22 18.4656 22 18.4632C22 18.4609 22 18.4586 22 18.4563C22 18.454 22 18.4516 22 18.4493C22 18.447 22 18.4447 22 18.4423C22 18.44 22 18.4377 22 18.4354C22 18.4331 22 18.4308 22 18.4284C22 18.4261 22 18.4238 22 18.4215C22 18.4192 22 18.4169 22 18.4145C22 18.4122 22 18.4099 22 18.4076C22 18.4053 22 18.403 22 18.4006C22 18.3983 22 18.396 22 18.3937C22 18.3914 22 18.3891 22 18.3868C22 18.3845 22 18.3822 22 18.3798C22 18.3775 22 18.3752 22 18.3729C22 18.3706 22 18.3683 22 18.366C22 18.3637 22 18.3614 22 18.3591C22 18.3568 22 18.3545 22 18.3522C22 18.3499 22 18.3476 22 18.3452C22 18.3429 22 18.3406 22 18.3383C22 18.336 22 18.3337 22 18.3314C22 18.3291 22 18.3268 22 18.3245C22 18.3222 22 18.3199 22 18.3176C22 18.3153 22 18.3131 22 18.3108C22 18.3085 22 18.3062 22 18.3039C22 18.3016 22 18.2993 22 18.297C22 18.2947 22 18.2924 22 18.2901C22 18.2878 22 18.2855 22 18.2832C22 18.281 22 18.2787 22 18.2764C22 18.2741 22 18.2718 22 18.2695C22 18.2672 22 18.265 22 18.2627C22 18.2604 22 18.2581 22 18.2558C22 18.2535 22 18.2513 22 18.249C22 18.2467 22 18.2444 22 18.2421C22 18.2399 22 18.2376 22 18.2353C22 18.233 22 18.2308 22 18.2285C22 18.2262 22 18.2239 22 18.2217C22 18.2194 22 18.2171 22 18.2149C22 18.2126 22 18.2103 22 18.208C22 18.2058 22 18.2035 22 18.2012C22 18.199 22 18.1967 22 18.1945C22 18.1922 22 18.1899 22 18.1877C22 18.1854 22 18.1831 22 18.1809C22 18.1786 22 18.1764 22 18.1741C22 18.1718 22 18.1696 22 18.1673C22 18.1651 22 18.1628 22 18.1606C22 18.1583 22 18.1561 22 18.1538C22 18.1516 22 18.1493 22 18.1471C22 18.1448 22 18.1426 22 18.1403C22 18.1381 22 18.1358 22 18.1336C22 18.1314 22 18.1291 22 18.1269C22 18.1246 22 18.1224 22 18.1202C22 18.1179 22 18.1157 22 18.1134C22 18.1112 22 18.109 22 18.1067C22 18.1045 22 18.1023 22 18.1C22 18.0978 22 18.0956 22 18.0934C22 18.0911 22 18.0889 22 18.0867C22 18.0844 22 18.0822 22 18.08C22 18.0778 22 18.0756 22 18.0733C22 18.0711 22 18.0689 22 18.0667C22 18.0645 22 18.0622 22 18.06C22 18.0578 22 18.0556 22 18.0534C22 18.0512 22 18.049 22 18.0468C22 18.0446 22 18.0423 22 18.0401C22 18.0379 22 18.0357 22 18.0335C22 18.0313 22 18.0291 22 18.0269C22 18.0247 22 18.0225 22 18.0203C22 18.0181 22 18.0159 22 18.0137C22 18.0115 22 18.0093 22 18.0072C22 18.005 22 18.0028 22 18.0006C22 17.9984 22 17.9962 22 17.994C22 17.9918 22 17.9897 22 17.9875C22 17.9853 22 17.9831 22 17.9809C22 17.9788 22 17.9766 22 17.9744C22 17.9722 22 17.9701 22 17.9679C22 17.9657 22 17.9635 22 17.9614C22 17.9592 22 17.957 22 17.9549C22 17.9527 22 17.9505 22 17.9484C22 17.9462 22 17.9441 22 17.9419C22 17.9397 22 17.9376 22 17.9354C22 17.9333 22 17.9311 22 17.929C22 17.9268 22 17.9247 22 17.9225C22 17.9204 22 17.9182 22 17.9161C22 17.9139 22 17.9118 22 17.9096C22 17.9075 22 17.9054 22 17.9032C22 17.9011 22 17.8989 22 17.8968C22 17.8947 22 17.8925 22 17.8904C22 17.8883 22 17.8861 22 17.884C22 17.8819 22 17.8798 22 17.8776C22 17.8755 22 17.8734 22 17.8713C22 17.8692 22 17.867 22 17.8649C22 17.8628 22 17.8607 22 17.8586C22 17.8565 22 17.8544 22 17.8522C22 17.8501 22 17.848 22 17.8459C22 17.8438 22 17.8417 22 17.8396C22 17.8375 22 17.8354 22 17.8333C22 17.8312 22 17.8291 22 17.827C22 17.8249 22 17.8229 22 17.8208C22 17.8187 22 17.8166 22 17.8145C22 17.8124 22 17.8103 22 17.8083C22 17.8062 22 17.8041 22 17.802C22 17.7999 22 17.7979 22 17.7958C22 17.7937 22 17.7916 22 17.7896C22 17.7875 22 17.7854 22 17.7834C22 17.7813 22 17.7793 22 17.7772C22 17.7751 22 17.7731 22 17.771C22 17.769 22 17.7669 22 17.7649C22 17.7628 22 17.7608 22 17.7587C22 17.7567 22 17.7546 22 17.7526C22 17.7505 22 17.7485 22 17.7464C22 17.7444 22 17.7424 22 17.7403C22 17.7383 22 17.7363 22 17.7342C22 17.7322 22 17.7302 22 17.7282C22 17.7261 22 17.7241 22 17.7221C22 17.7201 22 17.718 22 17.716C22 17.714 22 17.712 22 17.71C22 17.708 22 17.706 22 17.704C22 17.702 22 17.6999 22 17.6979C22 17.6959 22 17.6939 22 17.6919C22 17.6899 22 17.6879 22 17.686C22 17.684 22 17.682 22 17.68C22 17.678 22 17.676 22 17.674C22 17.672 22 17.6701 22 17.6681C22 17.6661 22 17.6641 22 17.6621C22 17.6602 22 17.6582 22 17.6562C22 17.6543 22 17.6523 22 17.6503C22 17.6484 22 17.6464 22 17.6444C22 17.6425 22 17.6405 22 17.6386C22 17.6366 22 17.6347 22 17.6327C22 17.6308 22 17.6288 22 17.6269C22 17.6249 22 17.623 22 17.621C22 17.6191 22 17.6172 22 17.6152C22 17.6133 22 17.6114 22 17.6094C22 17.6075 22 17.6056 22 17.6037C22 17.6017 22 17.5998 22 17.5979C22 17.596 22 17.5941 22 17.5921C22 17.5902 22 17.5883 22 17.5864C22 17.5845 22 17.5826 22 17.5807C22 17.5788 22 17.5769 22 17.575C22 17.5731 22 17.5712 22 17.5693C22 17.5674 22 17.5655 22 17.5636C22 17.5617 22 17.5599 22 17.558C22 17.5561 22 17.5542 22 17.5523C22 17.5505 22 17.5486 22 17.5467C22 17.5449 22 17.543 22 17.5411C22 17.5393 22 17.5374 22 17.5355C22 17.5337 22 17.5318 22 17.53C22 17.5281 22 17.5263 22 17.5244C22 17.5226 22 17.5207 22 17.5189C22 17.517 22 17.5152 22 17.5133C22 17.5115 22 17.5097 22 17.5078C22 17.506 22 17.5042 22 17.5024C22 17.5005 22 17.4987 22 17.4969C22 17.4951 22 17.4932 22 17.4914C22 17.4896 22 17.4878 22 17.486C22 17.4842 22 17.4824 22 17.4806C22 17.4788 22 17.477 22 17.4752C22 17.4734 22 17.4716 22 17.4698C22 17.468 22 17.4662 22 17.4644C22 17.4626 22 17.4609 22 17.4591C22 17.4573 22 17.4555 22 17.4538C22 17.452 22 17.4502 22 17.4485C22 17.4467 22 17.4449 22 17.4432C22 17.4414 22 17.4396 22 17.4379C22 17.4361 22 17.4344 22 17.4326C22 17.4309 22 17.4291 22 17.4274C22 17.4257 22 17.4239 22 17.4222C22 17.4204 22 17.4187 22 17.417C22 17.4152 22 17.4135 22 17.4118C22 17.4101 22 17.4084 22 17.4066C22 17.4049 22 17.4032 22 17.4015C22 17.3998 22 17.3981 22 17.3964C22 17.3947 22 17.393 22 17.3913C22 17.3896 22 17.3879 22 17.3862C22 17.3845 22 17.3828 22 17.3811C22 17.3794 22 17.3777 22 17.3761C22 17.3744 22 17.3727 22 17.371C22 17.3694 22 17.3677 22 17.366C22 17.3644 22 17.3627 22 17.3611C22 17.3594 22 17.3577 22 17.3561C22 17.3544 22 17.3528 22 17.3511C22 17.3495 22 17.3478 22 17.3462C22 17.3446 22 17.3429 22 17.3413C22 17.3397 22 17.338 22 17.3364C22 17.3348 22 17.3332 22 17.3316C22 17.3299 22 17.3283 22 17.3267C22 17.3251 22 17.3235 22 17.3219C22 17.3203 22 17.3187 22 17.3171C22 17.3155 22 17.3139 22 17.3123C22 17.3107 22 17.3091 22 17.3075C22 17.3059 22 17.3044 22 17.3028C22 17.3012 22 17.2996 22 17.2981C22 17.2965 22 17.2949 22 17.2934C22 17.2918 22 17.2902 22 17.2887C22 17.2871 22 17.2856 22 17.284C22 17.2825 22 17.2809 22 17.2794C22 17.2779 22 17.2763 22 17.2748C22 17.2732 22 17.2717 22 17.2702C22 17.2687 22 17.2671 22 17.2656C22 17.2641 22 17.2626 22 17.2611C22 17.2596 22 17.2581 22 17.2565C22 17.255 22 17.2535 22 17.252C22 17.2505 22 17.249 22 17.2476C22 17.2461 22 17.2446 22 17.2431C22 17.2416 22 17.2401 22 17.2387C22 17.2372 22 17.2357 22 17.2342C22 17.2328 22 17.2313 22 17.2299C22 17.2284 22 17.2269 22 17.2255C22 17.224 22 17.2226 22 17.2211C22 17.2197 22 17.2182 22 17.2168C22 17.2154 22 17.2139 22 17.2125C22 17.2111 22 17.2096 22 17.2082C22 17.2068 22 17.2054 22 17.204C22 17.2026 22 17.2011 22 17.1997C22 17.1983 22 17.1969 22 17.1955C22 17.1941 22 17.1927 22 17.1913C22 17.19 22 17.1886 22 17.1872C22 17.1858 22 17.1844 22 17.183C22 17.1817 22 17.1803 22 17.1789C22 17.1776 22 17.1762 22 17.1748C22 17.1735 22 17.1721 22 17.1708C22 17.1694 22 17.1681 22 17.1667C22 17.1654 22 17.164 22 17.1627C22 17.1614 22 17.16 22 17.1587C22 17.1574 22 17.1561 22 17.1547C22 17.1534 22 17.1521 22 17.1508C22 17.1495 22 17.1482 22 17.1469C22 17.1456 22 17.1443 22 17.143C22 17.1417 22 17.1404 22 17.1391C22 17.1378 22 17.1365 22 17.1352C22 17.134 22 17.1327 22 17.1314C22 17.1302 22 17.1289 22 17.1276C22 17.1264 22 17.1251 22 17.1239C22 17.1226 22 17.1214 22 17.1201C22 17.1189 22 17.1176 22 17.1164C22 17.1151 22 17.1139 22 17.1127C22 17.1115 22 17.1102 22 17.109C22 17.1078 22 17.1066 22 17.1054C22 17.1042 22 17.1029 22 17.1017C22 17.1005 22 17.0993 22 17.0982C22 17.097 22 17.0958 22 17.0946C22 17.0934 22 17.0922 22 17.091C22 17.0899 22 17.0887 22 17.0875C22 17.0864 22 17.0852 22 17.084C22 17.0829 22 17.0817 22 17.0806C22 17.0794 22 17.0783 22 17.0771C22 17.076 22 17.0748 22 17.0737C22 17.0726 22 17.0715 22 17.0703C22 17.0692 22 17.0681 22 17.067C22 17.0659 22 17.0647 22 17.0636C22 17.0625 22 17.0614 22 17.0603C22 17.0592 22 17.0581 22 17.0571C22 17.056 22 17.0549 22 17.0538C22 17.0527 22 17.0516 22 17.0506C22 17.0495 22 17.0484 22 17.0474C22 17.0463 22 17.0453 22 17.0442C22 17.0432 22 17.0421 22 17.0411C22 17.04 22 17.039 22 17.038C22 17.0369 22 17.0359 22 17.0349C22 17.0338 22 17.0328 22 17.0318C22 17.0308 22 17.0298 22 17.0288C22 17.0278 22 17.0268 22 17.0258C22 17.0248 22 17.0238 22 17.0228C22 17.0218 22 17.0208 22 17.0198C22 17.0189 22 17.0179 22 17.0169C22 17.016 22 17.015 22 17.014C22 17.0131 22 17.0121 22 17.0112C22 17.0102 22 17.0093 22 17.0083C22 17.0074 22 17.0065 22 17.0055C22 17.0046 22 17.0037 22 17.0027C22 17.0018 22 17.0009 22 17H20Z" fill="#101214"/>
<path d="M32 17C32 16.4477 31.5523 16 31 16C30.4477 16 30 16.4477 30 17H32ZM30 17C30 17.0009 30 17.0018 30 17.0027C30 17.0037 30 17.0046 30 17.0055C30 17.0065 30 17.0074 30 17.0083C30 17.0093 30 17.0102 30 17.0112C30 17.0121 30 17.0131 30 17.014C30 17.015 30 17.016 30 17.0169C30 17.0179 30 17.0189 30 17.0198C30 17.0208 30 17.0218 30 17.0228C30 17.0238 30 17.0248 30 17.0258C30 17.0268 30 17.0278 30 17.0288C30 17.0298 30 17.0308 30 17.0318C30 17.0328 30 17.0338 30 17.0349C30 17.0359 30 17.0369 30 17.038C30 17.039 30 17.04 30 17.0411C30 17.0421 30 17.0432 30 17.0442C30 17.0453 30 17.0463 30 17.0474C30 17.0484 30 17.0495 30 17.0506C30 17.0516 30 17.0527 30 17.0538C30 17.0549 30 17.056 30 17.0571C30 17.0581 30 17.0592 30 17.0603C30 17.0614 30 17.0625 30 17.0636C30 17.0647 30 17.0659 30 17.067C30 17.0681 30 17.0692 30 17.0703C30 17.0715 30 17.0726 30 17.0737C30 17.0748 30 17.076 30 17.0771C30 17.0783 30 17.0794 30 17.0806C30 17.0817 30 17.0829 30 17.084C30 17.0852 30 17.0864 30 17.0875C30 17.0887 30 17.0899 30 17.091C30 17.0922 30 17.0934 30 17.0946C30 17.0958 30 17.097 30 17.0982C30 17.0993 30 17.1005 30 17.1017C30 17.1029 30 17.1042 30 17.1054C30 17.1066 30 17.1078 30 17.109C30 17.1102 30 17.1115 30 17.1127C30 17.1139 30 17.1151 30 17.1164C30 17.1176 30 17.1189 30 17.1201C30 17.1214 30 17.1226 30 17.1239C30 17.1251 30 17.1264 30 17.1276C30 17.1289 30 17.1302 30 17.1314C30 17.1327 30 17.134 30 17.1352C30 17.1365 30 17.1378 30 17.1391C30 17.1404 30 17.1417 30 17.143C30 17.1443 30 17.1456 30 17.1469C30 17.1482 30 17.1495 30 17.1508C30 17.1521 30 17.1534 30 17.1547C30 17.1561 30 17.1574 30 17.1587C30 17.16 30 17.1614 30 17.1627C30 17.164 30 17.1654 30 17.1667C30 17.1681 30 17.1694 30 17.1708C30 17.1721 30 17.1735 30 17.1748C30 17.1762 30 17.1776 30 17.1789C30 17.1803 30 17.1817 30 17.183C30 17.1844 30 17.1858 30 17.1872C30 17.1886 30 17.19 30 17.1913C30 17.1927 30 17.1941 30 17.1955C30 17.1969 30 17.1983 30 17.1997C30 17.2011 30 17.2026 30 17.204C30 17.2054 30 17.2068 30 17.2082C30 17.2096 30 17.2111 30 17.2125C30 17.2139 30 17.2154 30 17.2168C30 17.2182 30 17.2197 30 17.2211C30 17.2226 30 17.224 30 17.2255C30 17.2269 30 17.2284 30 17.2299C30 17.2313 30 17.2328 30 17.2342C30 17.2357 30 17.2372 30 17.2387C30 17.2401 30 17.2416 30 17.2431C30 17.2446 30 17.2461 30 17.2476C30 17.249 30 17.2505 30 17.252C30 17.2535 30 17.255 30 17.2565C30 17.2581 30 17.2596 30 17.2611C30 17.2626 30 17.2641 30 17.2656C30 17.2671 30 17.2687 30 17.2702C30 17.2717 30 17.2732 30 17.2748C30 17.2763 30 17.2779 30 17.2794C30 17.2809 30 17.2825 30 17.284C30 17.2856 30 17.2871 30 17.2887C30 17.2902 30 17.2918 30 17.2934C30 17.2949 30 17.2965 30 17.2981C30 17.2996 30 17.3012 30 17.3028C30 17.3044 30 17.3059 30 17.3075C30 17.3091 30 17.3107 30 17.3123C30 17.3139 30 17.3155 30 17.3171C30 17.3187 30 17.3203 30 17.3219C30 17.3235 30 17.3251 30 17.3267C30 17.3283 30 17.3299 30 17.3316C30 17.3332 30 17.3348 30 17.3364C30 17.338 30 17.3397 30 17.3413C30 17.3429 30 17.3446 30 17.3462C30 17.3478 30 17.3495 30 17.3511C30 17.3528 30 17.3544 30 17.3561C30 17.3577 30 17.3594 30 17.3611C30 17.3627 30 17.3644 30 17.366C30 17.3677 30 17.3694 30 17.371C30 17.3727 30 17.3744 30 17.3761C30 17.3777 30 17.3794 30 17.3811C30 17.3828 30 17.3845 30 17.3862C30 17.3879 30 17.3896 30 17.3913C30 17.393 30 17.3947 30 17.3964C30 17.3981 30 17.3998 30 17.4015C30 17.4032 30 17.4049 30 17.4066C30 17.4084 30 17.4101 30 17.4118C30 17.4135 30 17.4152 30 17.417C30 17.4187 30 17.4204 30 17.4222C30 17.4239 30 17.4257 30 17.4274C30 17.4291 30 17.4309 30 17.4326C30 17.4344 30 17.4361 30 17.4379C30 17.4396 30 17.4414 30 17.4432C30 17.4449 30 17.4467 30 17.4485C30 17.4502 30 17.452 30 17.4538C30 17.4555 30 17.4573 30 17.4591C30 17.4609 30 17.4626 30 17.4644C30 17.4662 30 17.468 30 17.4698C30 17.4716 30 17.4734 30 17.4752C30 17.477 30 17.4788 30 17.4806C30 17.4824 30 17.4842 30 17.486C30 17.4878 30 17.4896 30 17.4914C30 17.4932 30 17.4951 30 17.4969C30 17.4987 30 17.5005 30 17.5024C30 17.5042 30 17.506 30 17.5078C30 17.5097 30 17.5115 30 17.5133C30 17.5152 30 17.517 30 17.5189C30 17.5207 30 17.5226 30 17.5244C30 17.5263 30 17.5281 30 17.53C30 17.5318 30 17.5337 30 17.5355C30 17.5374 30 17.5393 30 17.5411C30 17.543 30 17.5449 30 17.5467C30 17.5486 30 17.5505 30 17.5523C30 17.5542 30 17.5561 30 17.558C30 17.5599 30 17.5617 30 17.5636C30 17.5655 30 17.5674 30 17.5693C30 17.5712 30 17.5731 30 17.575C30 17.5769 30 17.5788 30 17.5807C30 17.5826 30 17.5845 30 17.5864C30 17.5883 30 17.5902 30 17.5921C30 17.5941 30 17.596 30 17.5979C30 17.5998 30 17.6017 30 17.6037C30 17.6056 30 17.6075 30 17.6094C30 17.6114 30 17.6133 30 17.6152C30 17.6172 30 17.6191 30 17.621C30 17.623 30 17.6249 30 17.6269C30 17.6288 30 17.6308 30 17.6327C30 17.6347 30 17.6366 30 17.6386C30 17.6405 30 17.6425 30 17.6444C30 17.6464 30 17.6484 30 17.6503C30 17.6523 30 17.6543 30 17.6562C30 17.6582 30 17.6602 30 17.6621C30 17.6641 30 17.6661 30 17.6681C30 17.6701 30 17.672 30 17.674C30 17.676 30 17.678 30 17.68C30 17.682 30 17.684 30 17.686C30 17.6879 30 17.6899 30 17.6919C30 17.6939 30 17.6959 30 17.6979C30 17.6999 30 17.702 30 17.704C30 17.706 30 17.708 30 17.71C30 17.712 30 17.714 30 17.716C30 17.718 30 17.7201 30 17.7221C30 17.7241 30 17.7261 30 17.7282C30 17.7302 30 17.7322 30 17.7342C30 17.7363 30 17.7383 30 17.7403C30 17.7424 30 17.7444 30 17.7464C30 17.7485 30 17.7505 30 17.7526C30 17.7546 30 17.7567 30 17.7587C30 17.7608 30 17.7628 30 17.7649C30 17.7669 30 17.769 30 17.771C30 17.7731 30 17.7751 30 17.7772C30 17.7793 30 17.7813 30 17.7834C30 17.7854 30 17.7875 30 17.7896C30 17.7916 30 17.7937 30 17.7958C30 17.7979 30 17.7999 30 17.802C30 17.8041 30 17.8062 30 17.8083C30 17.8103 30 17.8124 30 17.8145C30 17.8166 30 17.8187 30 17.8208C30 17.8229 30 17.8249 30 17.827C30 17.8291 30 17.8312 30 17.8333C30 17.8354 30 17.8375 30 17.8396C30 17.8417 30 17.8438 30 17.8459C30 17.848 30 17.8501 30 17.8522C30 17.8544 30 17.8565 30 17.8586C30 17.8607 30 17.8628 30 17.8649C30 17.867 30 17.8692 30 17.8713C30 17.8734 30 17.8755 30 17.8776C30 17.8798 30 17.8819 30 17.884C30 17.8861 30 17.8883 30 17.8904C30 17.8925 30 17.8947 30 17.8968C30 17.8989 30 17.9011 30 17.9032C30 17.9054 30 17.9075 30 17.9096C30 17.9118 30 17.9139 30 17.9161C30 17.9182 30 17.9204 30 17.9225C30 17.9247 30 17.9268 30 17.929C30 17.9311 30 17.9333 30 17.9354C30 17.9376 30 17.9397 30 17.9419C30 17.9441 30 17.9462 30 17.9484C30 17.9505 30 17.9527 30 17.9549C30 17.957 30 17.9592 30 17.9614C30 17.9635 30 17.9657 30 17.9679C30 17.9701 30 17.9722 30 17.9744C30 17.9766 30 17.9788 30 17.9809C30 17.9831 30 17.9853 30 17.9875C30 17.9897 30 17.9918 30 17.994C30 17.9962 30 17.9984 30 18.0006C30 18.0028 30 18.005 30 18.0072C30 18.0093 30 18.0115 30 18.0137C30 18.0159 30 18.0181 30 18.0203C30 18.0225 30 18.0247 30 18.0269C30 18.0291 30 18.0313 30 18.0335C30 18.0357 30 18.0379 30 18.0401C30 18.0423 30 18.0446 30 18.0468C30 18.049 30 18.0512 30 18.0534C30 18.0556 30 18.0578 30 18.06C30 18.0622 30 18.0645 30 18.0667C30 18.0689 30 18.0711 30 18.0733C30 18.0756 30 18.0778 30 18.08C30 18.0822 30 18.0844 30 18.0867C30 18.0889 30 18.0911 30 18.0934C30 18.0956 30 18.0978 30 18.1C30 18.1023 30 18.1045 30 18.1067C30 18.109 30 18.1112 30 18.1134C30 18.1157 30 18.1179 30 18.1202C30 18.1224 30 18.1246 30 18.1269C30 18.1291 30 18.1314 30 18.1336C30 18.1358 30 18.1381 30 18.1403C30 18.1426 30 18.1448 30 18.1471C30 18.1493 30 18.1516 30 18.1538C30 18.1561 30 18.1583 30 18.1606C30 18.1628 30 18.1651 30 18.1673C30 18.1696 30 18.1718 30 18.1741C30 18.1764 30 18.1786 30 18.1809C30 18.1831 30 18.1854 30 18.1877C30 18.1899 30 18.1922 30 18.1945C30 18.1967 30 18.199 30 18.2012C30 18.2035 30 18.2058 30 18.208C30 18.2103 30 18.2126 30 18.2149C30 18.2171 30 18.2194 30 18.2217C30 18.2239 30 18.2262 30 18.2285C30 18.2308 30 18.233 30 18.2353C30 18.2376 30 18.2399 30 18.2421C30 18.2444 30 18.2467 30 18.249C30 18.2513 30 18.2535 30 18.2558C30 18.2581 30 18.2604 30 18.2627C30 18.265 30 18.2672 30 18.2695C30 18.2718 30 18.2741 30 18.2764C30 18.2787 30 18.281 30 18.2832C30 18.2855 30 18.2878 30 18.2901C30 18.2924 30 18.2947 30 18.297C30 18.2993 30 18.3016 30 18.3039C30 18.3062 30 18.3085 30 18.3108C30 18.3131 30 18.3153 30 18.3176C30 18.3199 30 18.3222 30 18.3245C30 18.3268 30 18.3291 30 18.3314C30 18.3337 30 18.336 30 18.3383C30 18.3406 30 18.3429 30 18.3452C30 18.3476 30 18.3499 30 18.3522C30 18.3545 30 18.3568 30 18.3591C30 18.3614 30 18.3637 30 18.366C30 18.3683 30 18.3706 30 18.3729C30 18.3752 30 18.3775 30 18.3798C30 18.3822 30 18.3845 30 18.3868C30 18.3891 30 18.3914 30 18.3937C30 18.396 30 18.3983 30 18.4006C30 18.403 30 18.4053 30 18.4076C30 18.4099 30 18.4122 30 18.4145C30 18.4169 30 18.4192 30 18.4215C30 18.4238 30 18.4261 30 18.4284C30 18.4308 30 18.4331 30 18.4354C30 18.4377 30 18.44 30 18.4423C30 18.4447 30 18.447 30 18.4493C30 18.4516 30 18.454 30 18.4563C30 18.4586 30 18.4609 30 18.4632C30 18.4656 30 18.4679 30 18.4702C30 18.4725 30 18.4749 30 18.4772C30 18.4795 30 18.4818 30 18.4842C30 18.4865 30 18.4888 30 18.4911C30 18.4935 30 18.4958 30 18.4981C30 18.5004 30 18.5028 30 18.5051C30 18.5074 30 18.5097 30 18.5121C30 18.5144 30 18.5167 30 18.5191C30 18.5214 30 18.5237 30 18.526C30 18.5284 30 18.5307 30 18.533C30 18.5354 30 18.5377 30 18.54C30 18.5423 30 18.5447 30 18.547C30 18.5493 30 18.5517 30 18.554C30 18.5563 30 18.5587 30 18.561C30 18.5633 30 18.5657 30 18.568C30 18.5703 30 18.5727 30 18.575C30 18.5773 30 18.5797 30 18.582C30 18.5843 30 18.5867 30 18.589C30 18.5913 30 18.5937 30 18.596C30 18.5983 30 18.6007 30 18.603C30 18.6053 30 18.6077 30 18.61C30 18.6123 30 18.6147 30 18.617C30 18.6193 30 18.6217 30 18.624C30 18.6263 30 18.6287 30 18.631C30 18.6333 30 18.6357 30 18.638C30 18.6403 30 18.6427 30 18.645C30 18.6473 30 18.6497 30 18.652C30 18.6543 30 18.6567 30 18.659C30 18.6613 30 18.6637 30 18.666C30 18.6683 30 18.6707 30 18.673C30 18.6753 30 18.6777 30 18.68C30 18.6823 30 18.6847 30 18.687C30 18.6893 30 18.6917 30 18.694C30 18.6963 30 18.6987 30 18.701C30 18.7033 30 18.7057 30 18.708C30 18.7103 30 18.7127 30 18.715C30 18.7173 30 18.7197 30 18.722C30 18.7243 30 18.7267 30 18.729C30 18.7313 30 18.7337 30 18.736C30 18.7383 30 18.7407 30 18.743C30 18.7453 30 18.7477 30 18.75C30 18.7523 30 18.7546 30 18.757C30 18.7593 30 18.7616 30 18.764C30 18.7663 30 18.7686 30 18.771C30 18.7733 30 18.7756 30 18.7779C30 18.7803 30 18.7826 30 18.7849C30 18.7873 30 18.7896 30 18.7919C30 18.7942 30 18.7966 30 18.7989C30 18.8012 30 18.8035 30 18.8059C30 18.8082 30 18.8105 30 18.8128C30 18.8152 30 18.8175 30 18.8198C30 18.8221 30 18.8245 30 18.8268C30 18.8291 30 18.8314 30 18.8338C30 18.8361 30 18.8384 30 18.8407C30 18.8431 30 18.8454 30 18.8477C30 18.85 30 18.8523 30 18.8547C30 18.857 30 18.8593 30 18.8616C30 18.8639 30 18.8663 30 18.8686C30 18.8709 30 18.8732 30 18.8755C30 18.8778 30 18.8802 30 18.8825C30 18.8848 30 18.8871 30 18.8894C30 18.8917 30 18.8941 30 18.8964C30 18.8987 30 18.901 30 18.9033C30 18.9056 30 18.9079 30 18.9102C30 18.9126 30 18.9149 30 18.9172C30 18.9195 30 18.9218 30 18.9241C30 18.9264 30 18.9287 30 18.931C30 18.9333 30 18.9356 30 18.938C30 18.9403 30 18.9426 30 18.9449C30 18.9472 30 18.9495 30 18.9518C30 18.9541 30 18.9564 30 18.9587C30 18.961 30 18.9633 30 18.9656C30 18.9679 30 18.9702 30 18.9725C30 18.9748 30 18.9771 30 18.9794C30 18.9817 30 18.984 30 18.9863C30 18.9886 30 18.9909 30 18.9932C30 18.9955 30 18.9978 30 19.0001C30 19.0023 30 19.0046 30 19.0069C30 19.0092 30 19.0115 30 19.0138C30 19.0161 30 19.0184 30 19.0207C30 19.023 30 19.0252 30 19.0275C30 19.0298 30 19.0321 30 19.0344C30 19.0367 30 19.039 30 19.0412C30 19.0435 30 19.0458 30 19.0481C30 19.0504 30 19.0526 30 19.0549C30 19.0572 30 19.0595 30 19.0618C30 19.064 30 19.0663 30 19.0686C30 19.0709 30 19.0731 30 19.0754C30 19.0777 30 19.08 30 19.0822C30 19.0845 30 19.0868 30 19.089C30 19.0913 30 19.0936 30 19.0958C30 19.0981 30 19.1004 30 19.1026C30 19.1049 30 19.1072 30 19.1094C30 19.1117 30 19.114 30 19.1162C30 19.1185 30 19.1207 30 19.123C30 19.1253 30 19.1275 30 19.1298C30 19.132 30 19.1343 30 19.1365C30 19.1388 30 19.141 30 19.1433C30 19.1455 30 19.1478 30 19.15C30 19.1523 30 19.1545 30 19.1568C30 19.159 30 19.1613 30 19.1635C30 19.1658 30 19.168 30 19.1702C30 19.1725 30 19.1747 30 19.177C30 19.1792 30 19.1814 30 19.1837C30 19.1859 30 19.1882 30 19.1904C30 19.1926 30 19.1949 30 19.1971C30 19.1993 30 19.2016 30 19.2038C30 19.206 30 19.2082 30 19.2105C30 19.2127 30 19.2149 30 19.2171C30 19.2194 30 19.2216 30 19.2238C30 19.226 30 19.2283 30 19.2305C30 19.2327 30 19.2349 30 19.2371C30 19.2393 30 19.2416 30 19.2438C30 19.246 30 19.2482 30 19.2504C30 19.2526 30 19.2548 30 19.257C30 19.2592 30 19.2614 30 19.2636C30 19.2659 30 19.2681 30 19.2703C30 19.2725 30 19.2747 30 19.2769C30 19.2791 30 19.2813 30 19.2835C30 19.2856 30 19.2878 30 19.29C30 19.2922 30 19.2944 30 19.2966C30 19.2988 30 19.301 30 19.3032C30 19.3054 30 19.3075 30 19.3097C30 19.3119 30 19.3141 30 19.3163C30 19.3185 30 19.3206 30 19.3228C30 19.325 30 19.3272 30 19.3293C30 19.3315 30 19.3337 30 19.3359C30 19.338 30 19.3402 30 19.3424C30 19.3445 30 19.3467 30 19.3489C30 19.351 30 19.3532 30 19.3553C30 19.3575 30 19.3597 30 19.3618C30 19.364 30 19.3661 30 19.3683C30 19.3704 30 19.3726 30 19.3747C30 19.3769 30 19.379 30 19.3812C30 19.3833 30 19.3855 30 19.3876C30 19.3898 30 19.3919 30 19.394C30 19.3962 30 19.3983 30 19.4005C30 19.4026 30 19.4047 30 19.4069C30 19.409 30 19.4111 30 19.4133C30 19.4154 30 19.4175 30 19.4196C30 19.4218 30 19.4239 30 19.426C30 19.4281 30 19.4303 30 19.4324C30 19.4345 30 19.4366 30 19.4387C30 19.4408 30 19.4429 30 19.4451C30 19.4472 30 19.4493 30 19.4514C30 19.4535 30 19.4556 30 19.4577C30 19.4598 30 19.4619 30 19.464C30 19.4661 30 19.4682 30 19.4703C30 19.4724 30 19.4745 30 19.4766C30 19.4787 30 19.4808 30 19.4828C30 19.4849 30 19.487 30 19.4891C30 19.4912 30 19.4933 30 19.4953C30 19.4974 30 19.4995 30 19.5016C30 19.5036 30 19.5057 30 19.5078C30 19.5099 30 19.5119 30 19.514C30 19.5161 30 19.5181 30 19.5202C30 19.5222 30 19.5243 30 19.5264C30 19.5284 30 19.5305 30 19.5325C30 19.5346 30 19.5366 30 19.5387C30 19.5407 30 19.5428 30 19.5448C30 19.5469 30 19.5489 30 19.551C30 19.553 30 19.555 30 19.5571C30 19.5591 30 19.5611 30 19.5632C30 19.5652 30 19.5672 30 19.5693C30 19.5713 30 19.5733 30 19.5753C30 19.5774 30 19.5794 30 19.5814C30 19.5834 30 19.5854 30 19.5875C30 19.5895 30 19.5915 30 19.5935C30 19.5955 30 19.5975 30 19.5995C30 19.6015 30 19.6035 30 19.6055C30 19.6075 30 19.6095 30 19.6115C30 19.6135 30 19.6155 30 19.6175C30 19.6195 30 19.6215 30 19.6235C30 19.6254 30 19.6274 30 19.6294C30 19.6314 30 19.6334 30 19.6353C30 19.6373 30 19.6393 30 19.6413C30 19.6432 30 19.6452 30 19.6472C30 19.6491 30 19.6511 30 19.6531C30 19.655 30 19.657 30 19.659C30 19.6609 30 19.6629 30 19.6648C30 19.6668 30 19.6687 30 19.6707C30 19.6726 30 19.6746 30 19.6765C30 19.6784 30 19.6804 30 19.6823C30 19.6843 30 19.6862 30 19.6881C30 19.6901 30 19.692 30 19.6939C30 19.6958 30 19.6978 30 19.6997C30 19.7016 30 19.7035 30 19.7054C30 19.7074 30 19.7093 30 19.7112C30 19.7131 30 19.715 30 19.7169C30 19.7188 30 19.7207 30 19.7226C30 19.7245 30 19.7264 30 19.7283C30 19.7302 30 19.7321 30 19.734C30 19.7359 30 19.7378 30 19.7396C30 19.7415 30 19.7434 30 19.7453C30 19.7472 30 19.749 30 19.7509C30 19.7528 30 19.7547 30 19.7565C30 19.7584 30 19.7603 30 19.7621C30 19.764 30 19.7659 30 19.7677C30 19.7696 30 19.7714 30 19.7733C30 19.7751 30 19.777 30 19.7788C30 19.7807 30 19.7825 30 19.7843C30 19.7862 30 19.788 30 19.7899C30 19.7917 30 19.7935 30 19.7954C30 19.7972 30 19.799 30 19.8008C30 19.8027 30 19.8045 30 19.8063C30 19.8081 30 19.8099 30 19.8117C30 19.8135 30 19.8154 30 19.8172C30 19.819 30 19.8208 30 19.8226C30 19.8244 30 19.8262 30 19.828C30 19.8298 30 19.8315 30 19.8333C30 19.8351 30 19.8369 30 19.8387C30 19.8405 30 19.8422 30 19.844C30 19.8458 30 19.8476 30 19.8493C30 19.8511 30 19.8529 30 19.8546C30 19.8564 30 19.8582 30 19.8599C30 19.8617 30 19.8634 30 19.8652C30 19.8669 30 19.8687 30 19.8704C30 19.8722 30 19.8739 30 19.8757C30 19.8774 30 19.8791 30 19.8809C30 19.8826 30 19.8843 30 19.8861C30 19.8878 30 19.8895 30 19.8912C30 19.8929 30 19.8947 30 19.8964C30 19.8981 30 19.8998 30 19.9015C30 19.9032 30 19.9049 30 19.9066C30 19.9083 30 19.91 30 19.9117C30 19.9134 30 19.9151 30 19.9168C30 19.9185 30 19.9202 30 19.9218C30 19.9235 30 19.9252 30 19.9269C30 19.9286 30 19.9302 30 19.9319C30 19.9336 30 19.9352 30 19.9369C30 19.9386 30 19.9402 30 19.9419C30 19.9435 30 19.9452 30 19.9468C30 19.9485 30 19.9501 30 19.9518C30 19.9534 30 19.955 30 19.9567C30 19.9583 30 19.9599 30 19.9616C30 19.9632 30 19.9648 30 19.9664C30 19.9681 30 19.9697 30 19.9713C30 19.9729 30 19.9745 30 19.9761C30 19.9777 30 19.9794 30 19.981C30 19.9826 30 19.9842 30 19.9857C30 19.9873 30 19.9889 30 19.9905C30 19.9921 30 19.9937 30 19.9953C30 19.9968 30 19.9984 30 20H32C32 19.9984 32 19.9968 32 19.9953C32 19.9937 32 19.9921 32 19.9905C32 19.9889 32 19.9873 32 19.9857C32 19.9842 32 19.9826 32 19.981C32 19.9794 32 19.9777 32 19.9761C32 19.9745 32 19.9729 32 19.9713C32 19.9697 32 19.9681 32 19.9664C32 19.9648 32 19.9632 32 19.9616C32 19.9599 32 19.9583 32 19.9567C32 19.955 32 19.9534 32 19.9518C32 19.9501 32 19.9485 32 19.9468C32 19.9452 32 19.9435 32 19.9419C32 19.9402 32 19.9386 32 19.9369C32 19.9352 32 19.9336 32 19.9319C32 19.9302 32 19.9286 32 19.9269C32 19.9252 32 19.9235 32 19.9218C32 19.9202 32 19.9185 32 19.9168C32 19.9151 32 19.9134 32 19.9117C32 19.91 32 19.9083 32 19.9066C32 19.9049 32 19.9032 32 19.9015C32 19.8998 32 19.8981 32 19.8964C32 19.8947 32 19.8929 32 19.8912C32 19.8895 32 19.8878 32 19.8861C32 19.8843 32 19.8826 32 19.8809C32 19.8791 32 19.8774 32 19.8757C32 19.8739 32 19.8722 32 19.8704C32 19.8687 32 19.8669 32 19.8652C32 19.8634 32 19.8617 32 19.8599C32 19.8582 32 19.8564 32 19.8546C32 19.8529 32 19.8511 32 19.8493C32 19.8476 32 19.8458 32 19.844C32 19.8422 32 19.8405 32 19.8387C32 19.8369 32 19.8351 32 19.8333C32 19.8315 32 19.8298 32 19.828C32 19.8262 32 19.8244 32 19.8226C32 19.8208 32 19.819 32 19.8172C32 19.8154 32 19.8135 32 19.8117C32 19.8099 32 19.8081 32 19.8063C32 19.8045 32 19.8027 32 19.8008C32 19.799 32 19.7972 32 19.7954C32 19.7935 32 19.7917 32 19.7899C32 19.788 32 19.7862 32 19.7843C32 19.7825 32 19.7807 32 19.7788C32 19.777 32 19.7751 32 19.7733C32 19.7714 32 19.7696 32 19.7677C32 19.7659 32 19.764 32 19.7621C32 19.7603 32 19.7584 32 19.7565C32 19.7547 32 19.7528 32 19.7509C32 19.749 32 19.7472 32 19.7453C32 19.7434 32 19.7415 32 19.7396C32 19.7378 32 19.7359 32 19.734C32 19.7321 32 19.7302 32 19.7283C32 19.7264 32 19.7245 32 19.7226C32 19.7207 32 19.7188 32 19.7169C32 19.715 32 19.7131 32 19.7112C32 19.7093 32 19.7074 32 19.7054C32 19.7035 32 19.7016 32 19.6997C32 19.6978 32 19.6958 32 19.6939C32 19.692 32 19.6901 32 19.6881C32 19.6862 32 19.6843 32 19.6823C32 19.6804 32 19.6784 32 19.6765C32 19.6746 32 19.6726 32 19.6707C32 19.6687 32 19.6668 32 19.6648C32 19.6629 32 19.6609 32 19.659C32 19.657 32 19.655 32 19.6531C32 19.6511 32 19.6491 32 19.6472C32 19.6452 32 19.6432 32 19.6413C32 19.6393 32 19.6373 32 19.6353C32 19.6334 32 19.6314 32 19.6294C32 19.6274 32 19.6254 32 19.6235C32 19.6215 32 19.6195 32 19.6175C32 19.6155 32 19.6135 32 19.6115C32 19.6095 32 19.6075 32 19.6055C32 19.6035 32 19.6015 32 19.5995C32 19.5975 32 19.5955 32 19.5935C32 19.5915 32 19.5895 32 19.5875C32 19.5854 32 19.5834 32 19.5814C32 19.5794 32 19.5774 32 19.5753C32 19.5733 32 19.5713 32 19.5693C32 19.5672 32 19.5652 32 19.5632C32 19.5611 32 19.5591 32 19.5571C32 19.555 32 19.553 32 19.551C32 19.5489 32 19.5469 32 19.5448C32 19.5428 32 19.5407 32 19.5387C32 19.5366 32 19.5346 32 19.5325C32 19.5305 32 19.5284 32 19.5264C32 19.5243 32 19.5222 32 19.5202C32 19.5181 32 19.5161 32 19.514C32 19.5119 32 19.5099 32 19.5078C32 19.5057 32 19.5036 32 19.5016C32 19.4995 32 19.4974 32 19.4953C32 19.4933 32 19.4912 32 19.4891C32 19.487 32 19.4849 32 19.4828C32 19.4808 32 19.4787 32 19.4766C32 19.4745 32 19.4724 32 19.4703C32 19.4682 32 19.4661 32 19.464C32 19.4619 32 19.4598 32 19.4577C32 19.4556 32 19.4535 32 19.4514C32 19.4493 32 19.4472 32 19.4451C32 19.4429 32 19.4408 32 19.4387C32 19.4366 32 19.4345 32 19.4324C32 19.4303 32 19.4281 32 19.426C32 19.4239 32 19.4218 32 19.4196C32 19.4175 32 19.4154 32 19.4133C32 19.4111 32 19.409 32 19.4069C32 19.4047 32 19.4026 32 19.4005C32 19.3983 32 19.3962 32 19.394C32 19.3919 32 19.3898 32 19.3876C32 19.3855 32 19.3833 32 19.3812C32 19.379 32 19.3769 32 19.3747C32 19.3726 32 19.3704 32 19.3683C32 19.3661 32 19.364 32 19.3618C32 19.3597 32 19.3575 32 19.3553C32 19.3532 32 19.351 32 19.3489C32 19.3467 32 19.3445 32 19.3424C32 19.3402 32 19.338 32 19.3359C32 19.3337 32 19.3315 32 19.3293C32 19.3272 32 19.325 32 19.3228C32 19.3206 32 19.3185 32 19.3163C32 19.3141 32 19.3119 32 19.3097C32 19.3075 32 19.3054 32 19.3032C32 19.301 32 19.2988 32 19.2966C32 19.2944 32 19.2922 32 19.29C32 19.2878 32 19.2856 32 19.2835C32 19.2813 32 19.2791 32 19.2769C32 19.2747 32 19.2725 32 19.2703C32 19.2681 32 19.2659 32 19.2636C32 19.2614 32 19.2592 32 19.257C32 19.2548 32 19.2526 32 19.2504C32 19.2482 32 19.246 32 19.2438C32 19.2416 32 19.2393 32 19.2371C32 19.2349 32 19.2327 32 19.2305C32 19.2283 32 19.226 32 19.2238C32 19.2216 32 19.2194 32 19.2171C32 19.2149 32 19.2127 32 19.2105C32 19.2082 32 19.206 32 19.2038C32 19.2016 32 19.1993 32 19.1971C32 19.1949 32 19.1926 32 19.1904C32 19.1882 32 19.1859 32 19.1837C32 19.1814 32 19.1792 32 19.177C32 19.1747 32 19.1725 32 19.1702C32 19.168 32 19.1658 32 19.1635C32 19.1613 32 19.159 32 19.1568C32 19.1545 32 19.1523 32 19.15C32 19.1478 32 19.1455 32 19.1433C32 19.141 32 19.1388 32 19.1365C32 19.1343 32 19.132 32 19.1298C32 19.1275 32 19.1253 32 19.123C32 19.1207 32 19.1185 32 19.1162C32 19.114 32 19.1117 32 19.1094C32 19.1072 32 19.1049 32 19.1026C32 19.1004 32 19.0981 32 19.0958C32 19.0936 32 19.0913 32 19.089C32 19.0868 32 19.0845 32 19.0822C32 19.08 32 19.0777 32 19.0754C32 19.0731 32 19.0709 32 19.0686C32 19.0663 32 19.064 32 19.0618C32 19.0595 32 19.0572 32 19.0549C32 19.0526 32 19.0504 32 19.0481C32 19.0458 32 19.0435 32 19.0412C32 19.039 32 19.0367 32 19.0344C32 19.0321 32 19.0298 32 19.0275C32 19.0252 32 19.023 32 19.0207C32 19.0184 32 19.0161 32 19.0138C32 19.0115 32 19.0092 32 19.0069C32 19.0046 32 19.0023 32 19.0001C32 18.9978 32 18.9955 32 18.9932C32 18.9909 32 18.9886 32 18.9863C32 18.984 32 18.9817 32 18.9794C32 18.9771 32 18.9748 32 18.9725C32 18.9702 32 18.9679 32 18.9656C32 18.9633 32 18.961 32 18.9587C32 18.9564 32 18.9541 32 18.9518C32 18.9495 32 18.9472 32 18.9449C32 18.9426 32 18.9403 32 18.938C32 18.9356 32 18.9333 32 18.931C32 18.9287 32 18.9264 32 18.9241C32 18.9218 32 18.9195 32 18.9172C32 18.9149 32 18.9126 32 18.9102C32 18.9079 32 18.9056 32 18.9033C32 18.901 32 18.8987 32 18.8964C32 18.8941 32 18.8917 32 18.8894C32 18.8871 32 18.8848 32 18.8825C32 18.8802 32 18.8778 32 18.8755C32 18.8732 32 18.8709 32 18.8686C32 18.8663 32 18.8639 32 18.8616C32 18.8593 32 18.857 32 18.8547C32 18.8523 32 18.85 32 18.8477C32 18.8454 32 18.8431 32 18.8407C32 18.8384 32 18.8361 32 18.8338C32 18.8314 32 18.8291 32 18.8268C32 18.8245 32 18.8221 32 18.8198C32 18.8175 32 18.8152 32 18.8128C32 18.8105 32 18.8082 32 18.8059C32 18.8035 32 18.8012 32 18.7989C32 18.7966 32 18.7942 32 18.7919C32 18.7896 32 18.7873 32 18.7849C32 18.7826 32 18.7803 32 18.7779C32 18.7756 32 18.7733 32 18.771C32 18.7686 32 18.7663 32 18.764C32 18.7616 32 18.7593 32 18.757C32 18.7546 32 18.7523 32 18.75C32 18.7477 32 18.7453 32 18.743C32 18.7407 32 18.7383 32 18.736C32 18.7337 32 18.7313 32 18.729C32 18.7267 32 18.7243 32 18.722C32 18.7197 32 18.7173 32 18.715C32 18.7127 32 18.7103 32 18.708C32 18.7057 32 18.7033 32 18.701C32 18.6987 32 18.6963 32 18.694C32 18.6917 32 18.6893 32 18.687C32 18.6847 32 18.6823 32 18.68C32 18.6777 32 18.6753 32 18.673C32 18.6707 32 18.6683 32 18.666C32 18.6637 32 18.6613 32 18.659C32 18.6567 32 18.6543 32 18.652C32 18.6497 32 18.6473 32 18.645C32 18.6427 32 18.6403 32 18.638C32 18.6357 32 18.6333 32 18.631C32 18.6287 32 18.6263 32 18.624C32 18.6217 32 18.6193 32 18.617C32 18.6147 32 18.6123 32 18.61C32 18.6077 32 18.6053 32 18.603C32 18.6007 32 18.5983 32 18.596C32 18.5937 32 18.5913 32 18.589C32 18.5867 32 18.5843 32 18.582C32 18.5797 32 18.5773 32 18.575C32 18.5727 32 18.5703 32 18.568C32 18.5657 32 18.5633 32 18.561C32 18.5587 32 18.5563 32 18.554C32 18.5517 32 18.5493 32 18.547C32 18.5447 32 18.5423 32 18.54C32 18.5377 32 18.5354 32 18.533C32 18.5307 32 18.5284 32 18.526C32 18.5237 32 18.5214 32 18.5191C32 18.5167 32 18.5144 32 18.5121C32 18.5097 32 18.5074 32 18.5051C32 18.5028 32 18.5004 32 18.4981C32 18.4958 32 18.4935 32 18.4911C32 18.4888 32 18.4865 32 18.4842C32 18.4818 32 18.4795 32 18.4772C32 18.4749 32 18.4725 32 18.4702C32 18.4679 32 18.4656 32 18.4632C32 18.4609 32 18.4586 32 18.4563C32 18.454 32 18.4516 32 18.4493C32 18.447 32 18.4447 32 18.4423C32 18.44 32 18.4377 32 18.4354C32 18.4331 32 18.4308 32 18.4284C32 18.4261 32 18.4238 32 18.4215C32 18.4192 32 18.4169 32 18.4145C32 18.4122 32 18.4099 32 18.4076C32 18.4053 32 18.403 32 18.4006C32 18.3983 32 18.396 32 18.3937C32 18.3914 32 18.3891 32 18.3868C32 18.3845 32 18.3822 32 18.3798C32 18.3775 32 18.3752 32 18.3729C32 18.3706 32 18.3683 32 18.366C32 18.3637 32 18.3614 32 18.3591C32 18.3568 32 18.3545 32 18.3522C32 18.3499 32 18.3476 32 18.3452C32 18.3429 32 18.3406 32 18.3383C32 18.336 32 18.3337 32 18.3314C32 18.3291 32 18.3268 32 18.3245C32 18.3222 32 18.3199 32 18.3176C32 18.3153 32 18.3131 32 18.3108C32 18.3085 32 18.3062 32 18.3039C32 18.3016 32 18.2993 32 18.297C32 18.2947 32 18.2924 32 18.2901C32 18.2878 32 18.2855 32 18.2832C32 18.281 32 18.2787 32 18.2764C32 18.2741 32 18.2718 32 18.2695C32 18.2672 32 18.265 32 18.2627C32 18.2604 32 18.2581 32 18.2558C32 18.2535 32 18.2513 32 18.249C32 18.2467 32 18.2444 32 18.2421C32 18.2399 32 18.2376 32 18.2353C32 18.233 32 18.2308 32 18.2285C32 18.2262 32 18.2239 32 18.2217C32 18.2194 32 18.2171 32 18.2149C32 18.2126 32 18.2103 32 18.208C32 18.2058 32 18.2035 32 18.2012C32 18.199 32 18.1967 32 18.1945C32 18.1922 32 18.1899 32 18.1877C32 18.1854 32 18.1831 32 18.1809C32 18.1786 32 18.1764 32 18.1741C32 18.1718 32 18.1696 32 18.1673C32 18.1651 32 18.1628 32 18.1606C32 18.1583 32 18.1561 32 18.1538C32 18.1516 32 18.1493 32 18.1471C32 18.1448 32 18.1426 32 18.1403C32 18.1381 32 18.1358 32 18.1336C32 18.1314 32 18.1291 32 18.1269C32 18.1246 32 18.1224 32 18.1202C32 18.1179 32 18.1157 32 18.1134C32 18.1112 32 18.109 32 18.1067C32 18.1045 32 18.1023 32 18.1C32 18.0978 32 18.0956 32 18.0934C32 18.0911 32 18.0889 32 18.0867C32 18.0844 32 18.0822 32 18.08C32 18.0778 32 18.0756 32 18.0733C32 18.0711 32 18.0689 32 18.0667C32 18.0645 32 18.0622 32 18.06C32 18.0578 32 18.0556 32 18.0534C32 18.0512 32 18.049 32 18.0468C32 18.0446 32 18.0423 32 18.0401C32 18.0379 32 18.0357 32 18.0335C32 18.0313 32 18.0291 32 18.0269C32 18.0247 32 18.0225 32 18.0203C32 18.0181 32 18.0159 32 18.0137C32 18.0115 32 18.0093 32 18.0072C32 18.005 32 18.0028 32 18.0006C32 17.9984 32 17.9962 32 17.994C32 17.9918 32 17.9897 32 17.9875C32 17.9853 32 17.9831 32 17.9809C32 17.9788 32 17.9766 32 17.9744C32 17.9722 32 17.9701 32 17.9679C32 17.9657 32 17.9635 32 17.9614C32 17.9592 32 17.957 32 17.9549C32 17.9527 32 17.9505 32 17.9484C32 17.9462 32 17.9441 32 17.9419C32 17.9397 32 17.9376 32 17.9354C32 17.9333 32 17.9311 32 17.929C32 17.9268 32 17.9247 32 17.9225C32 17.9204 32 17.9182 32 17.9161C32 17.9139 32 17.9118 32 17.9096C32 17.9075 32 17.9054 32 17.9032C32 17.9011 32 17.8989 32 17.8968C32 17.8947 32 17.8925 32 17.8904C32 17.8883 32 17.8861 32 17.884C32 17.8819 32 17.8798 32 17.8776C32 17.8755 32 17.8734 32 17.8713C32 17.8692 32 17.867 32 17.8649C32 17.8628 32 17.8607 32 17.8586C32 17.8565 32 17.8544 32 17.8522C32 17.8501 32 17.848 32 17.8459C32 17.8438 32 17.8417 32 17.8396C32 17.8375 32 17.8354 32 17.8333C32 17.8312 32 17.8291 32 17.827C32 17.8249 32 17.8229 32 17.8208C32 17.8187 32 17.8166 32 17.8145C32 17.8124 32 17.8103 32 17.8083C32 17.8062 32 17.8041 32 17.802C32 17.7999 32 17.7979 32 17.7958C32 17.7937 32 17.7916 32 17.7896C32 17.7875 32 17.7854 32 17.7834C32 17.7813 32 17.7793 32 17.7772C32 17.7751 32 17.7731 32 17.771C32 17.769 32 17.7669 32 17.7649C32 17.7628 32 17.7608 32 17.7587C32 17.7567 32 17.7546 32 17.7526C32 17.7505 32 17.7485 32 17.7464C32 17.7444 32 17.7424 32 17.7403C32 17.7383 32 17.7363 32 17.7342C32 17.7322 32 17.7302 32 17.7282C32 17.7261 32 17.7241 32 17.7221C32 17.7201 32 17.718 32 17.716C32 17.714 32 17.712 32 17.71C32 17.708 32 17.706 32 17.704C32 17.702 32 17.6999 32 17.6979C32 17.6959 32 17.6939 32 17.6919C32 17.6899 32 17.6879 32 17.686C32 17.684 32 17.682 32 17.68C32 17.678 32 17.676 32 17.674C32 17.672 32 17.6701 32 17.6681C32 17.6661 32 17.6641 32 17.6621C32 17.6602 32 17.6582 32 17.6562C32 17.6543 32 17.6523 32 17.6503C32 17.6484 32 17.6464 32 17.6444C32 17.6425 32 17.6405 32 17.6386C32 17.6366 32 17.6347 32 17.6327C32 17.6308 32 17.6288 32 17.6269C32 17.6249 32 17.623 32 17.621C32 17.6191 32 17.6172 32 17.6152C32 17.6133 32 17.6114 32 17.6094C32 17.6075 32 17.6056 32 17.6037C32 17.6017 32 17.5998 32 17.5979C32 17.596 32 17.5941 32 17.5921C32 17.5902 32 17.5883 32 17.5864C32 17.5845 32 17.5826 32 17.5807C32 17.5788 32 17.5769 32 17.575C32 17.5731 32 17.5712 32 17.5693C32 17.5674 32 17.5655 32 17.5636C32 17.5617 32 17.5599 32 17.558C32 17.5561 32 17.5542 32 17.5523C32 17.5505 32 17.5486 32 17.5467C32 17.5449 32 17.543 32 17.5411C32 17.5393 32 17.5374 32 17.5355C32 17.5337 32 17.5318 32 17.53C32 17.5281 32 17.5263 32 17.5244C32 17.5226 32 17.5207 32 17.5189C32 17.517 32 17.5152 32 17.5133C32 17.5115 32 17.5097 32 17.5078C32 17.506 32 17.5042 32 17.5024C32 17.5005 32 17.4987 32 17.4969C32 17.4951 32 17.4932 32 17.4914C32 17.4896 32 17.4878 32 17.486C32 17.4842 32 17.4824 32 17.4806C32 17.4788 32 17.477 32 17.4752C32 17.4734 32 17.4716 32 17.4698C32 17.468 32 17.4662 32 17.4644C32 17.4626 32 17.4609 32 17.4591C32 17.4573 32 17.4555 32 17.4538C32 17.452 32 17.4502 32 17.4485C32 17.4467 32 17.4449 32 17.4432C32 17.4414 32 17.4396 32 17.4379C32 17.4361 32 17.4344 32 17.4326C32 17.4309 32 17.4291 32 17.4274C32 17.4257 32 17.4239 32 17.4222C32 17.4204 32 17.4187 32 17.417C32 17.4152 32 17.4135 32 17.4118C32 17.4101 32 17.4084 32 17.4066C32 17.4049 32 17.4032 32 17.4015C32 17.3998 32 17.3981 32 17.3964C32 17.3947 32 17.393 32 17.3913C32 17.3896 32 17.3879 32 17.3862C32 17.3845 32 17.3828 32 17.3811C32 17.3794 32 17.3777 32 17.3761C32 17.3744 32 17.3727 32 17.371C32 17.3694 32 17.3677 32 17.366C32 17.3644 32 17.3627 32 17.3611C32 17.3594 32 17.3577 32 17.3561C32 17.3544 32 17.3528 32 17.3511C32 17.3495 32 17.3478 32 17.3462C32 17.3446 32 17.3429 32 17.3413C32 17.3397 32 17.338 32 17.3364C32 17.3348 32 17.3332 32 17.3316C32 17.3299 32 17.3283 32 17.3267C32 17.3251 32 17.3235 32 17.3219C32 17.3203 32 17.3187 32 17.3171C32 17.3155 32 17.3139 32 17.3123C32 17.3107 32 17.3091 32 17.3075C32 17.3059 32 17.3044 32 17.3028C32 17.3012 32 17.2996 32 17.2981C32 17.2965 32 17.2949 32 17.2934C32 17.2918 32 17.2902 32 17.2887C32 17.2871 32 17.2856 32 17.284C32 17.2825 32 17.2809 32 17.2794C32 17.2779 32 17.2763 32 17.2748C32 17.2732 32 17.2717 32 17.2702C32 17.2687 32 17.2671 32 17.2656C32 17.2641 32 17.2626 32 17.2611C32 17.2596 32 17.2581 32 17.2565C32 17.255 32 17.2535 32 17.252C32 17.2505 32 17.249 32 17.2476C32 17.2461 32 17.2446 32 17.2431C32 17.2416 32 17.2401 32 17.2387C32 17.2372 32 17.2357 32 17.2342C32 17.2328 32 17.2313 32 17.2299C32 17.2284 32 17.2269 32 17.2255C32 17.224 32 17.2226 32 17.2211C32 17.2197 32 17.2182 32 17.2168C32 17.2154 32 17.2139 32 17.2125C32 17.2111 32 17.2096 32 17.2082C32 17.2068 32 17.2054 32 17.204C32 17.2026 32 17.2011 32 17.1997C32 17.1983 32 17.1969 32 17.1955C32 17.1941 32 17.1927 32 17.1913C32 17.19 32 17.1886 32 17.1872C32 17.1858 32 17.1844 32 17.183C32 17.1817 32 17.1803 32 17.1789C32 17.1776 32 17.1762 32 17.1748C32 17.1735 32 17.1721 32 17.1708C32 17.1694 32 17.1681 32 17.1667C32 17.1654 32 17.164 32 17.1627C32 17.1614 32 17.16 32 17.1587C32 17.1574 32 17.1561 32 17.1547C32 17.1534 32 17.1521 32 17.1508C32 17.1495 32 17.1482 32 17.1469C32 17.1456 32 17.1443 32 17.143C32 17.1417 32 17.1404 32 17.1391C32 17.1378 32 17.1365 32 17.1352C32 17.134 32 17.1327 32 17.1314C32 17.1302 32 17.1289 32 17.1276C32 17.1264 32 17.1251 32 17.1239C32 17.1226 32 17.1214 32 17.1201C32 17.1189 32 17.1176 32 17.1164C32 17.1151 32 17.1139 32 17.1127C32 17.1115 32 17.1102 32 17.109C32 17.1078 32 17.1066 32 17.1054C32 17.1042 32 17.1029 32 17.1017C32 17.1005 32 17.0993 32 17.0982C32 17.097 32 17.0958 32 17.0946C32 17.0934 32 17.0922 32 17.091C32 17.0899 32 17.0887 32 17.0875C32 17.0864 32 17.0852 32 17.084C32 17.0829 32 17.0817 32 17.0806C32 17.0794 32 17.0783 32 17.0771C32 17.076 32 17.0748 32 17.0737C32 17.0726 32 17.0715 32 17.0703C32 17.0692 32 17.0681 32 17.067C32 17.0659 32 17.0647 32 17.0636C32 17.0625 32 17.0614 32 17.0603C32 17.0592 32 17.0581 32 17.0571C32 17.056 32 17.0549 32 17.0538C32 17.0527 32 17.0516 32 17.0506C32 17.0495 32 17.0484 32 17.0474C32 17.0463 32 17.0453 32 17.0442C32 17.0432 32 17.0421 32 17.0411C32 17.04 32 17.039 32 17.038C32 17.0369 32 17.0359 32 17.0349C32 17.0338 32 17.0328 32 17.0318C32 17.0308 32 17.0298 32 17.0288C32 17.0278 32 17.0268 32 17.0258C32 17.0248 32 17.0238 32 17.0228C32 17.0218 32 17.0208 32 17.0198C32 17.0189 32 17.0179 32 17.0169C32 17.016 32 17.015 32 17.014C32 17.0131 32 17.0121 32 17.0112C32 17.0102 32 17.0093 32 17.0083C32 17.0074 32 17.0065 32 17.0055C32 17.0046 32 17.0037 32 17.0027C32 17.0018 32 17.0009 32 17H30Z" fill="#101214"/>
<path d="M17 24C19.8 24 30.1667 24 35 24" stroke="#101214" stroke-width="2"/>
</g>
<defs>
<clipPath id="clip0_1051_295">
<rect width="20" height="20" fill="white" transform="translate(16 16)"/>
</clipPath>
</defs>
</svg>
