<svg width="125" height="32" viewBox="0 0 125 32" fill="none" xmlns="http://www.w3.org/2000/svg">
<path fill-rule="evenodd" clip-rule="evenodd" d="M0 16C0 8.19317 5.5912 1.69224 12.9877 0.283137C11.8375 9.29386 7.87665 17.4263 2.01207 23.7737C0.730257 21.4722 0 18.8214 0 16ZM11.4359 31.3396C12.8822 31.7693 14.4142 32 16 32C17.5858 32 19.1177 31.7693 20.5641 31.3396L16.6482 0.0128916C16.4332 0.00432435 16.2171 0 16 0C15.7829 0 15.5667 0.00432547 15.3517 0.0128949L11.4359 31.3396ZM19.0122 0.283121C20.1625 9.29388 24.1233 17.4264 29.9879 23.7738C31.2697 21.4722 32 18.8214 32 16C32 8.19314 26.4088 1.69219 19.0122 0.283121Z" fill="#E33C26"/>
<path d="M42.7812 10.7891V8H55.9219V10.7891H51.0234V24H47.6797V10.7891H42.7812ZM56.7773 24V12H60.0039V14.0937H60.1289C60.3477 13.349 60.7148 12.7865 61.2305 12.4063C61.7461 12.0208 62.3398 11.8281 63.0117 11.8281C63.1784 11.8281 63.3581 11.8385 63.5508 11.8594C63.7435 11.8802 63.9128 11.9089 64.0586 11.9453V14.8984C63.9023 14.8516 63.6862 14.8099 63.4102 14.7734C63.1341 14.737 62.8815 14.7188 62.6523 14.7188C62.1628 14.7188 61.7253 14.8255 61.3398 15.0391C60.9596 15.2474 60.6576 15.5391 60.4336 15.9141C60.2148 16.2891 60.1055 16.7214 60.1055 17.2109V24H56.7773ZM65.7793 24V12H69.1074V24H65.7793ZM67.4512 10.4531C66.9564 10.4531 66.5319 10.2891 66.1777 9.96094C65.8288 9.6276 65.6543 9.22917 65.6543 8.76562C65.6543 8.30729 65.8288 7.91406 66.1777 7.58594C66.5319 7.2526 66.9564 7.08594 67.4512 7.08594C67.946 7.08594 68.3678 7.2526 68.7168 7.58594C69.071 7.91406 69.248 8.30729 69.248 8.76562C69.248 9.22917 69.071 9.6276 68.7168 9.96094C68.3678 10.2891 67.946 10.4531 67.4512 10.4531ZM71.7734 28.5V12H75.0547V14.0156H75.2031C75.349 13.6927 75.5599 13.3646 75.8359 13.0312C76.1172 12.6927 76.4818 12.4115 76.9297 12.1875C77.3828 11.9583 77.9453 11.8438 78.6172 11.8438C79.4922 11.8438 80.2995 12.0729 81.0391 12.5313C81.7786 12.9844 82.3698 13.6693 82.8125 14.5859C83.2552 15.4974 83.4766 16.6406 83.4766 18.0156C83.4766 19.3542 83.2604 20.4844 82.8281 21.4062C82.401 22.3229 81.8177 23.0182 81.0781 23.4922C80.3438 23.9609 79.5208 24.1953 78.6094 24.1953C77.9635 24.1953 77.4141 24.0885 76.9609 23.875C76.513 23.6615 76.1458 23.3932 75.8594 23.0703C75.5729 22.7422 75.3542 22.4115 75.2031 22.0781H75.1016V28.5H71.7734ZM75.0313 18C75.0313 18.7135 75.1302 19.3359 75.3281 19.8672C75.526 20.3984 75.8125 20.8125 76.1875 21.1094C76.5625 21.401 77.0182 21.5469 77.5547 21.5469C78.0964 21.5469 78.5547 21.3984 78.9297 21.1016C79.3047 20.7995 79.5885 20.3828 79.7813 19.8516C79.9792 19.3151 80.0781 18.6979 80.0781 18C80.0781 17.3073 79.9818 16.6979 79.7891 16.1719C79.5964 15.6458 79.3125 15.2344 78.9375 14.9375C78.5625 14.6406 78.1016 14.4922 77.5547 14.4922C77.013 14.4922 76.5547 14.6354 76.1797 14.9219C75.8099 15.2083 75.526 15.6146 75.3281 16.1406C75.1302 16.6667 75.0313 17.2865 75.0313 18ZM85.7578 24V8H92.1641C93.3411 8 94.3229 8.17448 95.1094 8.52344C95.8958 8.8724 96.487 9.35677 96.8828 9.97656C97.2786 10.5911 97.4766 11.2995 97.4766 12.1016C97.4766 12.7266 97.3516 13.276 97.1016 13.75C96.8516 14.2187 96.5078 14.6042 96.0703 14.9062C95.638 15.2031 95.1432 15.4141 94.5859 15.5391V15.6953C95.1953 15.7214 95.7656 15.8932 96.2969 16.2109C96.8333 16.5286 97.2682 16.974 97.6016 17.5469C97.9349 18.1146 98.1016 18.7917 98.1016 19.5781C98.1016 20.4271 97.8906 21.1849 97.4687 21.8516C97.0521 22.513 96.4349 23.0365 95.6172 23.4219C94.7995 23.8073 93.7917 24 92.5937 24H85.7578ZM89.1406 21.2344H91.8984C92.8411 21.2344 93.5286 21.0547 93.9609 20.6953C94.3932 20.3307 94.6094 19.8464 94.6094 19.2422C94.6094 18.7995 94.5026 18.4089 94.2891 18.0703C94.0755 17.7318 93.7708 17.4661 93.375 17.2734C92.9844 17.0807 92.5182 16.9844 91.9766 16.9844H89.1406V21.2344ZM89.1406 14.6953H91.6484C92.112 14.6953 92.5234 14.6146 92.8828 14.4531C93.2474 14.2865 93.5339 14.0521 93.7422 13.75C93.9557 13.4479 94.0625 13.0859 94.0625 12.6641C94.0625 12.0859 93.8568 11.6198 93.4453 11.2656C93.0391 10.9115 92.4609 10.7344 91.7109 10.7344H89.1406V14.6953ZM105.662 24.2344C104.449 24.2344 103.399 23.9766 102.514 23.4609C101.633 22.9401 100.954 22.2161 100.475 21.2891C99.9954 20.3568 99.7559 19.276 99.7559 18.0469C99.7559 16.8073 99.9954 15.724 100.475 14.7969C100.954 13.8646 101.633 13.1406 102.514 12.625C103.399 12.1042 104.449 11.8438 105.662 11.8438C106.876 11.8438 107.923 12.1042 108.803 12.625C109.688 13.1406 110.37 13.8646 110.85 14.7969C111.329 15.724 111.568 16.8073 111.568 18.0469C111.568 19.276 111.329 20.3568 110.85 21.2891C110.37 22.2161 109.688 22.9401 108.803 23.4609C107.923 23.9766 106.876 24.2344 105.662 24.2344ZM105.678 21.6562C106.23 21.6562 106.691 21.5 107.061 21.1875C107.43 20.8698 107.709 20.4375 107.896 19.8906C108.089 19.3437 108.186 18.7214 108.186 18.0234C108.186 17.3255 108.089 16.7031 107.896 16.1562C107.709 15.6094 107.43 15.1771 107.061 14.8594C106.691 14.5417 106.23 14.3828 105.678 14.3828C105.12 14.3828 104.652 14.5417 104.271 14.8594C103.896 15.1771 103.613 15.6094 103.42 16.1562C103.232 16.7031 103.139 17.3255 103.139 18.0234C103.139 18.7214 103.232 19.3437 103.42 19.8906C103.613 20.4375 103.896 20.8698 104.271 21.1875C104.652 21.5 105.12 21.6562 105.678 21.6562ZM116.084 12L118.287 16.1953L120.545 12H123.959L120.482 18L124.053 24H120.654L118.287 19.8516L115.959 24H112.521L116.084 18L112.646 12H116.084Z" fill="#101214"/>
</svg>
