<svg width="21" height="16" viewBox="0 0 21 16" fill="none" xmlns="http://www.w3.org/2000/svg">
<g clip-path="url(#clip0_2876_7400)">
<path d="M5 15C2.51562 15 0.5 12.9844 0.5 10.5C0.5 8.5375 1.75625 6.86875 3.50625 6.25313C3.50312 6.16875 3.5 6.08437 3.5 6C3.5 3.2375 5.7375 1 8.5 1C10.3531 1 11.9688 2.00625 12.8344 3.50625C13.3094 3.1875 13.8844 3 14.5 3C16.1562 3 17.5 4.34375 17.5 6C17.5 6.38125 17.4281 6.74375 17.3 7.08125C19.125 7.45 20.5 9.06563 20.5 11C20.5 13.2094 18.7094 15 16.5 15H5ZM7.46875 8.21875C7.175 8.5125 7.175 8.9875 7.46875 9.27812C7.7625 9.56875 8.2375 9.57187 8.52812 9.27812L9.74687 8.05937L9.75 12.25C9.75 12.6656 10.0844 13 10.5 13C10.9156 13 11.25 12.6656 11.25 12.25V8.05937L12.4688 9.27812C12.7625 9.57187 13.2375 9.57187 13.5281 9.27812C13.8187 8.98438 13.8219 8.50938 13.5281 8.21875L11.0281 5.71875C10.7344 5.425 10.2594 5.425 9.96875 5.71875L7.46875 8.21875Z" fill="black"/>
</g>
<defs>
<clipPath id="clip0_2876_7400">
<rect width="20" height="16" fill="white" transform="translate(0.5)"/>
</clipPath>
</defs>
</svg>
