<svg width="21" height="16" viewBox="0 0 21 16" fill="none" xmlns="http://www.w3.org/2000/svg">
<g clip-path="url(#clip0_2006_5857)">
<path d="M5 15C2.51562 15 0.5 12.9844 0.5 10.5C0.5 8.5375 1.75625 6.86875 3.50625 6.25313C3.50312 6.16875 3.5 6.08437 3.5 6C3.5 3.2375 5.7375 1 8.5 1C10.3531 1 11.9688 2.00625 12.8344 3.50625C13.3094 3.1875 13.8844 3 14.5 3C16.1562 3 17.5 4.34375 17.5 6C17.5 6.38125 17.4281 6.74375 17.3 7.08125C19.125 7.45 20.5 9.06563 20.5 11C20.5 13.2094 18.7094 15 16.5 15H5ZM7.46875 9.78125L9.96875 12.2812C10.2625 12.575 10.7375 12.575 11.0281 12.2812L13.5281 9.78125C13.8219 9.4875 13.8219 9.0125 13.5281 8.72188C13.2344 8.43125 12.7594 8.42813 12.4688 8.72188L11.25 9.94063V5.75C11.25 5.33437 10.9156 5 10.5 5C10.0844 5 9.75 5.33437 9.75 5.75V9.94063L8.53125 8.72188C8.2375 8.42813 7.7625 8.42813 7.47188 8.72188C7.18125 9.01562 7.17813 9.49063 7.47188 9.78125H7.46875Z" fill="#E33626"/>
</g>
<defs>
<clipPath id="clip0_2006_5857">
<rect width="20" height="16" fill="white" transform="translate(0.5)"/>
</clipPath>
</defs>
</svg>
