<svg width="12" height="12" viewBox="0 0 12 12" fill="none" xmlns="http://www.w3.org/2000/svg">
<g clip-path="url(#clip0_2890_9431)">
<path d="M8.50062 0.451172L7.36624 1.58555L10.4131 4.63242L11.5475 3.49805C12.1334 2.91211 12.1334 1.96289 11.5475 1.37695L10.6241 0.451172C10.0381 -0.134766 9.0889 -0.134766 8.50296 0.451172H8.50062ZM6.83656 2.11523L1.37328 7.58086C1.12953 7.82461 0.9514 8.12695 0.852963 8.45742L0.0232751 11.277C-0.0353187 11.4762 0.0185876 11.6895 0.1639 11.8348C0.309213 11.9801 0.522494 12.034 0.719369 11.9777L3.5389 11.148C3.86937 11.0496 4.17171 10.8715 4.41546 10.6277L9.88343 5.16211L6.83656 2.11523Z" fill="#727374"/>
</g>
<defs>
<clipPath id="clip0_2890_9431">
<rect width="12" height="12" fill="white"/>
</clipPath>
</defs>
</svg>
