<svg width="96" height="96" viewBox="0 0 96 96" fill="none" xmlns="http://www.w3.org/2000/svg">
<rect width="96" height="96" rx="48" fill="#BCBCBC"/>
<g clip-path="url(#clip0_2876_7396)">
<path d="M48 48C50.1217 48 52.1566 47.1571 53.6569 45.6569C55.1571 44.1566 56 42.1217 56 40C56 37.8783 55.1571 35.8434 53.6569 34.3431C52.1566 32.8429 50.1217 32 48 32C45.8783 32 43.8434 32.8429 42.3431 34.3431C40.8429 35.8434 40 37.8783 40 40C40 42.1217 40.8429 44.1566 42.3431 45.6569C43.8434 47.1571 45.8783 48 48 48ZM45.1438 51C38.9875 51 34 55.9875 34 62.1437C34 63.1687 34.8313 64 35.8563 64H60.1437C61.1687 64 62 63.1687 62 62.1437C62 55.9875 57.0125 51 50.8563 51H45.1438Z" fill="#F3F3F3"/>
</g>
<defs>
<clipPath id="clip0_2876_7396">
<rect width="28" height="32" fill="white" transform="translate(34 32)"/>
</clipPath>
</defs>
</svg>
