<svg width="15" height="16" viewBox="0 0 15 16" fill="none" xmlns="http://www.w3.org/2000/svg">
<path d="M5.82812 1.6125L5.23438 2.5H9.76562L9.17188 1.6125C9.125 1.54375 9.04688 1.5 8.9625 1.5H6.03438C5.95 1.5 5.87187 1.54062 5.825 1.6125H5.82812ZM10.4219 0.78125L11.5688 2.5H12H13.5H13.75C14.1656 2.5 14.5 2.83437 14.5 3.25C14.5 3.66563 14.1656 4 13.75 4H13.5V13.5C13.5 14.8813 12.3813 16 11 16H4C2.61875 16 1.5 14.8813 1.5 13.5V4H1.25C0.834375 4 0.5 3.66563 0.5 3.25C0.5 2.83437 0.834375 2.5 1.25 2.5H1.5H3H3.43125L4.57812 0.778125C4.90312 0.29375 5.45 0 6.03438 0H8.9625C9.54688 0 10.0938 0.29375 10.4187 0.778125L10.4219 0.78125ZM3 4V13.5C3 14.0531 3.44688 14.5 4 14.5H11C11.5531 14.5 12 14.0531 12 13.5V4H3ZM5.5 6V12.5C5.5 12.775 5.275 13 5 13C4.725 13 4.5 12.775 4.5 12.5V6C4.5 5.725 4.725 5.5 5 5.5C5.275 5.5 5.5 5.725 5.5 6ZM8 6V12.5C8 12.775 7.775 13 7.5 13C7.225 13 7 12.775 7 12.5V6C7 5.725 7.225 5.5 7.5 5.5C7.775 5.5 8 5.725 8 6ZM10.5 6V12.5C10.5 12.775 10.275 13 10 13C9.725 13 9.5 12.775 9.5 12.5V6C9.5 5.725 9.725 5.5 10 5.5C10.275 5.5 10.5 5.725 10.5 6Z" fill="white"/>
</svg>
