<svg width="16" height="16" viewBox="0 0 16 16" fill="none" xmlns="http://www.w3.org/2000/svg">
<g clip-path="url(#clip0_2771_7952)">
<path d="M13.7812 1.84102L14.1594 2.21914C14.4531 2.51289 14.4531 2.98789 14.1594 3.27852L13.25 4.19102L11.8094 2.75039L12.7188 1.84102C13.0125 1.54727 13.4875 1.54727 13.7781 1.84102H13.7812ZM6.55625 8.00664L10.75 3.80977L12.1906 5.25039L7.99375 9.44414C7.90313 9.53477 7.79062 9.60039 7.66875 9.63477L5.84062 10.1566L6.3625 8.32852C6.39688 8.20664 6.4625 8.09414 6.55312 8.00352L6.55625 8.00664ZM11.6594 0.781641L5.49375 6.94414C5.22188 7.21602 5.025 7.55039 4.92188 7.91602L4.02812 11.041C3.95312 11.3035 4.025 11.5848 4.21875 11.7785C4.4125 11.9723 4.69375 12.0441 4.95625 11.9691L8.08125 11.0754C8.45 10.9691 8.78438 10.7723 9.05313 10.5035L15.2188 4.34102C16.0969 3.46289 16.0969 2.03789 15.2188 1.15977L14.8406 0.781641C13.9625 -0.0964844 12.5375 -0.0964844 11.6594 0.781641ZM2.75 2.00039C1.23125 2.00039 0 3.23164 0 4.75039V13.2504C0 14.7691 1.23125 16.0004 2.75 16.0004H11.25C12.7688 16.0004 14 14.7691 14 13.2504V9.75039C14 9.33477 13.6656 9.00039 13.25 9.00039C12.8344 9.00039 12.5 9.33477 12.5 9.75039V13.2504C12.5 13.941 11.9406 14.5004 11.25 14.5004H2.75C2.05938 14.5004 1.5 13.941 1.5 13.2504V4.75039C1.5 4.05977 2.05938 3.50039 2.75 3.50039H6.25C6.66563 3.50039 7 3.16602 7 2.75039C7 2.33477 6.66563 2.00039 6.25 2.00039H2.75Z" fill="#727374"/>
</g>
<defs>
<clipPath id="clip0_2771_7952">
<rect width="16" height="16" fill="white"/>
</clipPath>
</defs>
</svg>
