<svg width="32" height="32" viewBox="0 0 32 32" fill="none" xmlns="http://www.w3.org/2000/svg">
<rect width="32" height="32" rx="8" fill="#ECEDEE"/>
<g clip-path="url(#clip0_1615_5589)">
<path d="M7.21268 8.15955C6.88768 7.9033 6.4158 7.96268 6.15955 8.28768C5.9033 8.61268 5.96268 9.08455 6.28768 9.3408L24.7877 23.8408C25.1127 24.097 25.5846 24.0377 25.8408 23.7127C26.0971 23.3877 26.0377 22.9158 25.7127 22.6596L22.4252 20.0846C23.6627 18.8158 24.5002 17.3939 24.9221 16.3846C25.0252 16.1377 25.0252 15.8627 24.9221 15.6158C24.4564 14.5002 23.4783 12.8752 22.0158 11.5189C20.5471 10.1502 18.5252 9.00018 16.0002 9.00018C13.8689 9.00018 12.0939 9.82205 10.7096 10.9002L7.21268 8.15955ZM12.9721 12.6721C13.7689 11.9439 14.8346 11.5002 16.0002 11.5002C18.4846 11.5002 20.5002 13.5158 20.5002 16.0002C20.5002 16.7783 20.3033 17.5096 19.9564 18.1471L18.7502 17.2033C19.0127 16.6002 19.0814 15.9096 18.9002 15.2252C18.5533 13.9283 17.4064 13.0564 16.1314 13.0033C15.9502 12.9971 15.8439 13.1939 15.9002 13.3689C15.9658 13.5689 16.0033 13.7814 16.0033 14.0033C16.0033 14.3221 15.9283 14.6221 15.7971 14.8877L12.9752 12.6752L12.9721 12.6721ZM17.6564 20.1846C17.1439 20.3877 16.5846 20.5002 16.0002 20.5002C13.5158 20.5002 11.5002 18.4846 11.5002 16.0002C11.5002 15.7846 11.5158 15.5752 11.5439 15.3689L8.59705 13.0471C7.88455 13.9752 7.37518 14.9002 7.0783 15.6158C6.97518 15.8627 6.97518 16.1377 7.0783 16.3846C7.54393 17.5002 8.52205 19.1252 9.98455 20.4814C11.4533 21.8502 13.4752 23.0002 16.0002 23.0002C17.4939 23.0002 18.8096 22.5971 19.9439 21.9846L17.6564 20.1846Z" fill="#CBCCCD"/>
</g>
<defs>
<clipPath id="clip0_1615_5589">
<rect width="20" height="16" fill="white" transform="translate(6 8)"/>
</clipPath>
</defs>
</svg>
