<svg width="32" height="32" viewBox="0 0 32 32" fill="none" xmlns="http://www.w3.org/2000/svg">
<rect width="32" height="32" rx="8" fill="#ECEDEE"/>
<g clip-path="url(#clip0_1632_2723)">
<path d="M16.0002 9C13.4752 9 11.4533 10.15 9.98145 11.5187C8.51895 12.875 7.54082 14.5 7.07832 15.6156C6.9752 15.8625 6.9752 16.1375 7.07832 16.3844C7.54082 17.5 8.51895 19.125 9.98145 20.4812C11.4533 21.85 13.4752 23 16.0002 23C18.5252 23 20.5471 21.85 22.0189 20.4812C23.4814 19.1219 24.4596 17.5 24.9252 16.3844C25.0283 16.1375 25.0283 15.8625 24.9252 15.6156C24.4596 14.5 23.4814 12.875 22.0189 11.5187C20.5471 10.15 18.5252 9 16.0002 9ZM11.5002 16C11.5002 14.8065 11.9743 13.6619 12.8182 12.818C13.6621 11.9741 14.8067 11.5 16.0002 11.5C17.1937 11.5 18.3383 11.9741 19.1822 12.818C20.0261 13.6619 20.5002 14.8065 20.5002 16C20.5002 17.1935 20.0261 18.3381 19.1822 19.182C18.3383 20.0259 17.1937 20.5 16.0002 20.5C14.8067 20.5 13.6621 20.0259 12.8182 19.182C11.9743 18.3381 11.5002 17.1935 11.5002 16ZM16.0002 14C16.0002 15.1031 15.1033 16 14.0002 16C13.7783 16 13.5658 15.9625 13.3658 15.8969C13.1939 15.8406 12.9939 15.9469 13.0002 16.1281C13.0096 16.3438 13.0408 16.5594 13.1002 16.775C13.5283 18.375 15.1752 19.325 16.7752 18.8969C18.3752 18.4688 19.3252 16.8219 18.8971 15.2219C18.5502 13.925 17.4033 13.0531 16.1283 13C15.9471 12.9938 15.8408 13.1906 15.8971 13.3656C15.9627 13.5656 16.0002 13.7781 16.0002 14Z" fill="#6A6E76"/>
</g>
<defs>
<clipPath id="clip0_1632_2723">
<rect width="18" height="16" fill="white" transform="translate(7 8)"/>
</clipPath>
</defs>
</svg>
