<svg width="22" height="22" viewBox="0 0 22 22" fill="none" xmlns="http://www.w3.org/2000/svg">
<path d="M21.1649 0.83534C21.2821 0.95255 21.3479 1.11152 21.3479 1.27728C21.3479 1.44304 21.2821 1.60201 21.1649 1.71922L11.8841 11L21.1649 20.2808C21.2821 20.398 21.3479 20.557 21.3479 20.7227C21.3479 20.8885 21.2821 21.0474 21.1649 21.1647C21.0477 21.2819 20.8887 21.3477 20.7229 21.3477C20.5572 21.3477 20.3982 21.2819 20.281 21.1647L11.0002 11.8839L1.71944 21.1647C1.60223 21.2819 1.44326 21.3477 1.2775 21.3477C1.11174 21.3477 0.952768 21.2819 0.835558 21.1647C0.718348 21.0474 0.6525 20.8885 0.6525 20.7227C0.6525 20.557 0.718348 20.398 0.835558 20.2808L10.1163 11L0.835558 1.71922C0.718348 1.60201 0.6525 1.44304 0.6525 1.27728C0.6525 1.11152 0.718348 0.95255 0.835558 0.83534C0.952768 0.71813 1.11174 0.652282 1.2775 0.652282C1.44326 0.652282 1.60223 0.71813 1.71944 0.83534L11.0002 10.1161L20.281 0.83534C20.3982 0.71813 20.5572 0.652281 20.7229 0.652281C20.8887 0.652281 21.0477 0.71813 21.1649 0.83534Z" fill="#707070"/>
</svg>
