<svg width="24" height="24" viewBox="0 0 24 24" fill="none" xmlns="http://www.w3.org/2000/svg">
<path d="M17.452 6H6.54702C6.40168 6 6.2623 6.05774 6.15953 6.16051C6.05676 6.26328 5.99902 6.40266 5.99902 6.548C5.99902 6.69334 6.05676 6.83272 6.15953 6.93549C6.2623 7.03826 6.40168 7.096 6.54702 7.096H16.132L6.16202 17.066C6.11133 17.1167 6.07112 17.1769 6.04369 17.2431C6.01626 17.3093 6.00214 17.3803 6.00214 17.452C6.00214 17.5237 6.01626 17.5947 6.04369 17.6609C6.07112 17.7271 6.11133 17.7873 6.16202 17.838C6.21271 17.8887 6.27289 17.9289 6.33912 17.9563C6.40535 17.9838 6.47634 17.9979 6.54802 17.9979C6.61971 17.9979 6.6907 17.9838 6.75693 17.9563C6.82316 17.9289 6.88333 17.8887 6.93402 17.838L16.904 7.867V17.453C16.904 17.5983 16.9618 17.7377 17.0645 17.8405C17.1673 17.9433 17.3067 18.001 17.452 18.001C17.5974 18.001 17.7367 17.9433 17.8395 17.8405C17.9423 17.7377 18 17.5983 18 17.453V6.546C17.999 6.40117 17.9408 6.2626 17.8382 6.16038C17.7356 6.05815 17.5969 6.00052 17.452 6Z" fill="#070707"/>
</svg>
