<svg width="32" height="32" viewBox="0 0 32 32" fill="none" xmlns="http://www.w3.org/2000/svg">
<g clip-path="url(#clip0_1945_3930)">
<path d="M24.675 9.13126C24.8781 9.27188 25 9.50313 25 9.75001V20.25C25 20.5625 24.8062 20.8406 24.5156 20.95L19.2656 22.95C19.1031 23.0125 18.925 23.0156 18.7625 22.9594L13.0156 21.0469L8.01562 22.9531C7.78438 23.0406 7.525 23.0094 7.32188 22.8688C7.11875 22.7281 7 22.4969 7 22.25V11.75C7 11.4375 7.19063 11.1594 7.48438 11.05L12.7344 9.05001C12.8969 8.98751 13.075 8.98438 13.2375 9.04063L18.9844 10.9531L23.9844 9.04688C24.2156 8.95938 24.475 8.99063 24.6781 9.13126H24.675ZM8.5 12.2656V21.1594L12.25 19.7313V10.8375L8.5 12.2656ZM18.25 21.2094V12.2906L13.75 10.7906V19.7094L18.25 21.2094ZM19.75 21.1625L23.5 19.7344V10.8406L19.75 12.2656V21.1594V21.1625Z" fill="#6A6E76"/>
</g>
<defs>
<clipPath id="clip0_1945_3930">
<rect width="18" height="16" fill="white" transform="translate(7 8)"/>
</clipPath>
</defs>
</svg>
