<svg width="32" height="32" viewBox="0 0 32 32" fill="none" xmlns="http://www.w3.org/2000/svg">
<g clip-path="url(#clip0_1945_3929)">
<path d="M21 14.5C21 15.9344 20.5344 17.2594 19.75 18.3344L23.7063 22.2937C24.0969 22.6844 24.0969 23.3188 23.7063 23.7094C23.3156 24.1 22.6812 24.1 22.2906 23.7094L18.3344 19.75C17.2594 20.5375 15.9344 21 14.5 21C10.9094 21 8 18.0906 8 14.5C8 10.9094 10.9094 8 14.5 8C18.0906 8 21 10.9094 21 14.5ZM14.5 19C15.0909 19 15.6761 18.8836 16.2221 18.6575C16.768 18.4313 17.2641 18.0998 17.682 17.682C18.0998 17.2641 18.4313 16.768 18.6575 16.2221C18.8836 15.6761 19 15.0909 19 14.5C19 13.9091 18.8836 13.3239 18.6575 12.7779C18.4313 12.232 18.0998 11.7359 17.682 11.318C17.2641 10.9002 16.768 10.5687 16.2221 10.3425C15.6761 10.1164 15.0909 10 14.5 10C13.9091 10 13.3239 10.1164 12.7779 10.3425C12.232 10.5687 11.7359 10.9002 11.318 11.318C10.9002 11.7359 10.5687 12.232 10.3425 12.7779C10.1164 13.3239 10 13.9091 10 14.5C10 15.0909 10.1164 15.6761 10.3425 16.2221C10.5687 16.768 10.9002 17.2641 11.318 17.682C11.7359 18.0998 12.232 18.4313 12.7779 18.6575C13.3239 18.8836 13.9091 19 14.5 19Z" fill="#6A6E76"/>
</g>
<defs>
<clipPath id="clip0_1945_3929">
<rect width="16" height="16" fill="white" transform="translate(8 8)"/>
</clipPath>
</defs>
</svg>
