<svg width="32" height="32" viewBox="0 0 32 32" fill="none" xmlns="http://www.w3.org/2000/svg">
<g clip-path="url(#clip0_1945_3933)">
<path d="M23.4967 13.2063C23.5967 13.4781 23.5123 13.7812 23.2967 13.975L21.9436 15.2063C21.9779 15.4656 21.9967 15.7312 21.9967 16C21.9967 16.2688 21.9779 16.5344 21.9436 16.7937L23.2967 18.025C23.5123 18.2188 23.5967 18.5219 23.4967 18.7937C23.3592 19.1656 23.1936 19.5219 23.0029 19.8656L22.8561 20.1187C22.6498 20.4625 22.4186 20.7875 22.1654 21.0938C21.9811 21.3188 21.6748 21.3937 21.3998 21.3062L19.6592 20.7531C19.2404 21.075 18.7779 21.3438 18.2842 21.5469L17.8936 23.3313C17.8311 23.6156 17.6123 23.8406 17.3248 23.8875C16.8936 23.9594 16.4498 23.9969 15.9967 23.9969C15.5436 23.9969 15.0998 23.9594 14.6686 23.8875C14.3811 23.8406 14.1623 23.6156 14.0998 23.3313L13.7092 21.5469C13.2154 21.3438 12.7529 21.075 12.3342 20.7531L10.5967 21.3094C10.3217 21.3969 10.0154 21.3188 9.83106 21.0969C9.57794 20.7906 9.34669 20.4656 9.14044 20.1219L8.99356 19.8687C8.80294 19.525 8.63731 19.1687 8.49981 18.7969C8.39981 18.525 8.48419 18.2219 8.69981 18.0281L10.0529 16.7969C10.0186 16.5344 9.99981 16.2688 9.99981 16C9.99981 15.7312 10.0186 15.4656 10.0529 15.2063L8.69981 13.975C8.48419 13.7812 8.39981 13.4781 8.49981 13.2063C8.63731 12.8344 8.80294 12.4781 8.99356 12.1344L9.14044 11.8812C9.34669 11.5375 9.57794 11.2125 9.83106 10.9062C10.0154 10.6813 10.3217 10.6062 10.5967 10.6937L12.3373 11.2469C12.7561 10.925 13.2186 10.6562 13.7123 10.4531L14.1029 8.66875C14.1654 8.38437 14.3842 8.15937 14.6717 8.1125C15.1029 8.0375 15.5467 8 15.9998 8C16.4529 8 16.8967 8.0375 17.3279 8.10938C17.6154 8.15625 17.8342 8.38125 17.8967 8.66562L18.2873 10.45C18.7811 10.6531 19.2436 10.9219 19.6623 11.2438L21.4029 10.6906C21.6779 10.6031 21.9842 10.6813 22.1686 10.9031C22.4217 11.2094 22.6529 11.5344 22.8592 11.8781L23.0061 12.1312C23.1967 12.475 23.3623 12.8313 23.4998 13.2031L23.4967 13.2063ZM15.9998 18.5C16.6629 18.5 17.2987 18.2366 17.7676 17.7678C18.2364 17.2989 18.4998 16.663 18.4998 16C18.4998 15.337 18.2364 14.7011 17.7676 14.2322C17.2987 13.7634 16.6629 13.5 15.9998 13.5C15.3368 13.5 14.7009 13.7634 14.232 14.2322C13.7632 14.7011 13.4998 15.337 13.4998 16C13.4998 16.663 13.7632 17.2989 14.232 17.7678C14.7009 18.2366 15.3368 18.5 15.9998 18.5Z" fill="#6A6E76"/>
</g>
<defs>
<clipPath id="clip0_1945_3933">
<rect width="16" height="16" fill="white" transform="translate(8 8)"/>
</clipPath>
</defs>
</svg>
