<svg width="10" height="14" viewBox="0 0 10 14" fill="none" xmlns="http://www.w3.org/2000/svg">
<path d="M4.29354 0.292969C4.68416 -0.0976562 5.31854 -0.0976562 5.70916 0.292969L9.70916 4.29297C9.99666 4.58047 10.081 5.00859 9.92479 5.38359C9.76854 5.75859 9.40604 6.00234 8.99979 6.00234L0.999786 5.99922C0.596662 5.99922 0.231037 5.75547 0.0747866 5.38047C-0.0814634 5.00547 0.00603655 4.57734 0.290412 4.28984L4.29041 0.289844L4.29354 0.292969ZM4.29354 13.7086L0.293537 9.70859C0.00603655 9.42109 -0.0783385 8.99297 0.0779115 8.61797C0.234162 8.24297 0.596661 7.99922 1.00291 7.99922H9.00291C9.40604 7.99922 9.77166 8.24297 9.92791 8.61797C10.0842 8.99297 9.99666 9.42109 9.71229 9.70859L5.71229 13.7086C5.32166 14.0992 4.68729 14.0992 4.29666 13.7086H4.29354Z" fill="#1C1E21"/>
</svg>
