<svg width="32" height="32" viewBox="0 0 32 32" fill="none" xmlns="http://www.w3.org/2000/svg">
<rect width="32" height="32" rx="5" fill="#ECEDEE"/>
<g clip-path="url(#clip0_943_5235)">
<path d="M22.0719 14C23.1406 14 25 14.9062 25 16C25 17.125 23.1406 18 22.0719 18H18.4281L15.2875 23.4969C15.1094 23.8094 14.7781 24 14.4187 24H12.6625C12.3312 24 12.0906 23.6813 12.1813 23.3625L13.7125 18H10.5L9.15 19.8C9.05625 19.925 8.90625 20 8.75 20H7.4375C7.19375 20 7 19.8031 7 19.5625C7 19.5219 7.00625 19.4812 7.01562 19.4406L8 16L7.01562 12.5594C7.00312 12.5187 7 12.4781 7 12.4375C7 12.1937 7.19688 12 7.4375 12H8.75C8.90625 12 9.05625 12.075 9.15 12.2L10.5 14H13.7156L12.1844 8.6375C12.0906 8.31875 12.3312 8 12.6625 8H14.4187C14.7781 8 15.1094 8.19375 15.2875 8.50313L18.4281 14H22.0719Z" fill="#6A6E76"/>
</g>
<defs>
<clipPath id="clip0_943_5235">
<rect width="18" height="16" fill="white" transform="translate(7 8)"/>
</clipPath>
</defs>
</svg>
