<svg width="16" height="16" viewBox="0 0 16 16" fill="none" xmlns="http://www.w3.org/2000/svg">
<path d="M7.75078 6.09447L4.09507 9.48887C4.03404 9.54551 4 9.62076 4 9.69901C4 9.77726 4.03404 9.8525 4.09507 9.90914L4.0992 9.91279C4.12879 9.94035 4.1644 9.96229 4.20387 9.97728C4.24334 9.99227 4.28585 10 4.3288 10C4.37176 10 4.41426 9.99227 4.45374 9.97728C4.49321 9.96229 4.52882 9.94035 4.5584 9.91279L8.00069 6.71634L11.4416 9.91279C11.4712 9.94035 11.5068 9.96229 11.5463 9.97728C11.5857 9.99227 11.6282 10 11.6712 10C11.7142 10 11.7567 9.99227 11.7961 9.97728C11.8356 9.96229 11.8712 9.94035 11.9008 9.91279L11.9049 9.90914C11.966 9.8525 12 9.77726 12 9.69901C12 9.62076 11.966 9.54551 11.9049 9.48887L8.24922 6.09447C8.21707 6.06462 8.17841 6.04085 8.13557 6.02461C8.09273 6.00837 8.04661 6 8 6C7.95339 6 7.90727 6.00837 7.86443 6.02461C7.82159 6.04085 7.78293 6.06462 7.75078 6.09447Z" fill="white"/>
</svg>
