<svg width="9" height="8" viewBox="0 0 9 8" fill="none" xmlns="http://www.w3.org/2000/svg">
<path d="M1.49954 6.33288H7.49954C7.56029 6.33269 7.61983 6.31593 7.67177 6.28442C7.7237 6.25291 7.76605 6.20782 7.79427 6.15403C7.82249 6.10023 7.8355 6.03976 7.83191 5.97912C7.82831 5.91848 7.80825 5.85997 7.77387 5.80988L4.77387 1.47655C4.64954 1.29688 4.35021 1.29688 4.22554 1.47655L1.22554 5.80988C1.19082 5.85986 1.17045 5.9184 1.16666 5.97914C1.16287 6.03989 1.1758 6.10051 1.20404 6.15442C1.23229 6.20833 1.27477 6.25346 1.32686 6.28493C1.37896 6.31639 1.43868 6.33298 1.49954 6.33288ZM4.49954 2.25188L6.86354 5.66621H2.13554L4.49954 2.25188Z" fill="#6A6E76"/>
</svg>
