<svg width="9" height="8" viewBox="0 0 9 8" fill="none" xmlns="http://www.w3.org/2000/svg">
<path d="M1.49954 1.66712H7.49954C7.56029 1.66731 7.61983 1.68407 7.67177 1.71558C7.7237 1.74709 7.76605 1.79218 7.79427 1.84597C7.82249 1.89977 7.8355 1.96024 7.83191 2.02088C7.82831 2.08152 7.80825 2.14003 7.77387 2.19012L4.77387 6.52345C4.64954 6.70312 4.35021 6.70312 4.22554 6.52345L1.22554 2.19012C1.19082 2.14014 1.17045 2.0816 1.16666 2.02086C1.16287 1.96011 1.1758 1.89949 1.20404 1.84558C1.23229 1.79167 1.27477 1.74654 1.32686 1.71507C1.37896 1.68361 1.43868 1.66702 1.49954 1.66712Z" fill="#1C1E21"/>
</svg>
