<svg width="43" height="43" viewBox="0 0 43 43" fill="none" xmlns="http://www.w3.org/2000/svg">
<rect y="3" width="40" height="40" rx="20" fill="#F2F2F3"/>
<circle cx="36" cy="7" r="5.5" fill="#26D980" stroke="#101214" stroke-width="3"/>
<path d="M19.9998 14.6666C15.4048 14.6666 11.6665 18.405 11.6665 23V26.4525C11.6665 27.3058 12.414 28 13.3332 28H14.1665C14.3875 28 14.5995 27.9122 14.7558 27.7559C14.912 27.5996 14.9998 27.3876 14.9998 27.1666V22.8808C14.9998 22.6598 14.912 22.4478 14.7558 22.2915C14.5995 22.1353 14.3875 22.0475 14.1665 22.0475H13.4098C13.8732 18.8225 16.6482 16.3333 19.9998 16.3333C23.3515 16.3333 26.1265 18.8225 26.5898 22.0475H25.8332C25.6122 22.0475 25.4002 22.1353 25.2439 22.2915C25.0876 22.4478 24.9998 22.6598 24.9998 22.8808V28C24.9998 28.9191 24.2523 29.6666 23.3332 29.6666H21.6665V28.8333H18.3332V31.3333H23.3332C25.1715 31.3333 26.6665 29.8383 26.6665 28C27.5857 28 28.3332 27.3058 28.3332 26.4525V23C28.3332 18.405 24.5948 14.6666 19.9998 14.6666Z" fill="#101214"/>
</svg>
