<svg width="40" height="40" viewBox="0 0 40 40" fill="none" xmlns="http://www.w3.org/2000/svg">
<path d="M11.4996 1.50769C21.4983 1.24444 26.3879 12.31 19.6088 19.9083C34.1947 15.594 24.2236 -5.79854 11.4996 1.50769Z" fill="white"/>
<path d="M0 14.6717C6.0263 6.76393 17.8086 9.87641 19.579 19.864C25.2681 5.87782 2.16668 0.262063 0 14.6717Z" fill="white"/>
<path d="M3.2201 31.7853C0.736093 22.1878 10.5388 15.0034 19.5256 19.8594C12.0338 6.73324 -6.80207 21.123 3.2201 31.7853Z" fill="white"/>
<path d="M18.735 39.9617C9.6112 35.9015 10.0527 23.8303 19.4886 19.898C4.45739 17.5161 4.07088 41.0757 18.735 39.9617Z" fill="white"/>
<path d="M29.0595 2.20611C35.5013 9.78558 29.8162 20.4716 19.5924 19.9589C32.0917 28.5653 42.7593 7.505 29.0595 2.20611Z" fill="white"/>
<path d="M39.4566 16.241C37.4908 25.9557 25.512 28.2154 19.5422 19.9778C20.5427 35.0241 43.8161 30.1548 39.4566 16.241Z" fill="white"/>
<path d="M34.8618 33.0438C25.9686 37.5784 16.7164 29.7102 19.496 19.9507C8.24423 30.1067 26.5981 45.0952 34.8618 33.0438Z" fill="white"/>
</svg>
