<svg width="14" height="14" viewBox="0 0 14 14" fill="none" xmlns="http://www.w3.org/2000/svg">
<g clip-path="url(#clip0_3001_1915)">
<path d="M7 14C6.0375 14 5.25 13.2125 5.25 12.25V1.75C5.25 0.7875 6.0375 0 7 0C7.9625 0 8.75 0.7875 8.75 1.75V12.25C8.75 13.2125 7.9625 14 7 14ZM12.25 14C11.2875 14 10.5 13.2125 10.5 12.25V5.25C10.5 4.2875 11.2875 3.5 12.25 3.5C13.2125 3.5 14 4.2875 14 5.25V12.25C14 13.2125 13.2125 14 12.25 14ZM1.75 14C0.7875 14 0 13.2125 0 12.25V8.75C0 7.7875 0.7875 7 1.75 7C2.7125 7 3.5 7.7875 3.5 8.75V12.25C3.5 13.2125 2.7125 14 1.75 14Z" fill="white"/>
</g>
<defs>
<clipPath id="clip0_3001_1915">
<rect width="14" height="14" fill="white"/>
</clipPath>
</defs>
</svg>
