<svg width="9" height="8" viewBox="0 0 9 8" fill="none" xmlns="http://www.w3.org/2000/svg">
<g clip-path="url(#clip0_1416_4487)">
<path d="M1.69974 1.66712H7.69974C7.76048 1.66731 7.82003 1.68407 7.87196 1.71558C7.92389 1.74709 7.96625 1.79218 7.99447 1.84597C8.02269 1.89977 8.0357 1.96024 8.0321 2.02088C8.02851 2.08152 8.00844 2.14003 7.97407 2.19012L4.97407 6.52345C4.84974 6.70312 4.5504 6.70312 4.42574 6.52345L1.42574 2.19012C1.39101 2.14014 1.37065 2.0816 1.36686 2.02086C1.36307 1.96011 1.376 1.89949 1.40424 1.84558C1.43248 1.79167 1.47496 1.74654 1.52706 1.71507C1.57915 1.68361 1.63888 1.66702 1.69974 1.66712Z" fill="#6A6E76"/>
</g>
<defs>
<clipPath id="clip0_1416_4487">
<rect width="8" height="8" fill="white" transform="matrix(1 0 0 -1 0.700195 8)"/>
</clipPath>
</defs>
</svg>
