<svg width="40" height="40" viewBox="0 0 40 40" fill="none" xmlns="http://www.w3.org/2000/svg">
<rect width="40" height="40" rx="20" fill="#ECEDEE"/>
<g clip-path="url(#clip0_960_1529)">
<path d="M20 20C21.0609 20 22.0783 19.5786 22.8284 18.8284C23.5786 18.0783 24 17.0609 24 16C24 14.9391 23.5786 13.9217 22.8284 13.1716C22.0783 12.4214 21.0609 12 20 12C18.9391 12 17.9217 12.4214 17.1716 13.1716C16.4214 13.9217 16 14.9391 16 16C16 17.0609 16.4214 18.0783 17.1716 18.8284C17.9217 19.5786 18.9391 20 20 20ZM18.5719 21.5C15.4938 21.5 13 23.9937 13 27.0719C13 27.5844 13.4156 28 13.9281 28H26.0719C26.5844 28 27 27.5844 27 27.0719C27 23.9937 24.5063 21.5 21.4281 21.5H18.5719Z" fill="#6A6E76"/>
</g>
<defs>
<clipPath id="clip0_960_1529">
<rect width="14" height="16" fill="white" transform="translate(13 12)"/>
</clipPath>
</defs>
</svg>
