<svg width="48" height="48" viewBox="0 0 48 48" fill="none" xmlns="http://www.w3.org/2000/svg">
<g clip-path="url(#clip0_2838_305)">
<path d="M21 6.96832C21.5523 6.96832 22.0001 6.52057 22.0001 5.96829C22.0001 5.41601 21.5523 4.96826 21 4.96826C9.40758 4.98148 0.0132644 14.3758 4.56671e-05 25.9683V31.9683C-0.0172981 38.0611 4.90776 43.0144 11.0005 43.0317C17.0933 43.049 22.0466 38.124 22.0639 32.0313C22.0813 25.9384 17.1562 20.9852 11.0635 20.9678C9.29081 20.9628 7.54302 21.385 5.96813 22.1987C4.39323 23.0123 3.0376 24.1936 2.01605 25.6423C2.2012 15.2859 10.6419 6.98304 21 6.96832ZM37 20.9684C35.2374 20.9698 33.501 21.3952 31.9374 22.2086C30.3738 23.0221 29.0288 24.1999 28.016 25.6424C28.2013 15.2859 36.642 6.98304 47 6.96842C47.5523 6.96842 48 6.52067 48 5.96839C48 5.41611 47.5523 4.96836 47 4.96836C35.4075 4.98157 26.0132 14.3759 26 25.9684V31.9684C26 38.0434 30.9249 42.9683 37 42.9683C43.0751 42.9683 48 38.0434 48 31.9684C48 25.8933 43.0752 20.9684 37 20.9684Z" fill="#E33C26"/>
</g>
<defs>
<clipPath id="clip0_2838_305">
<rect width="48" height="48" fill="white"/>
</clipPath>
</defs>
</svg>
