<svg width="20" height="20" viewBox="0 0 20 20" fill="none" xmlns="http://www.w3.org/2000/svg">
<g clip-path="url(#clip0_2890_9639)">
<path fill-rule="evenodd" clip-rule="evenodd" d="M12.3876 11.1691C12.0091 11.3238 11.7673 11.9164 11.522 12.2191C11.3962 12.3742 11.2462 12.3984 11.0528 12.3207C9.63214 11.7547 8.54308 10.8066 7.75909 9.49922C7.62628 9.29648 7.65011 9.13633 7.81027 8.94805C8.04698 8.66914 8.34464 8.35234 8.4087 7.97656C8.55089 7.14531 7.46417 4.5668 6.02902 5.73516C1.89933 9.10039 12.9181 18.0258 14.9067 13.1984C15.4692 11.8301 13.015 10.9121 12.3876 11.1691ZM10.0001 18.2531C8.53956 18.2531 7.10245 17.8648 5.84425 17.1297C5.6423 17.0113 5.39816 16.9801 5.17238 17.0414L2.43839 17.7918L3.39073 15.6938C3.45443 15.5537 3.47996 15.3993 3.46473 15.2461C3.4495 15.093 3.39405 14.9467 3.30402 14.8219C2.28527 13.4098 1.74659 11.7426 1.74659 10C1.74659 5.44883 5.44894 1.74648 10.0001 1.74648C14.5513 1.74648 18.2532 5.44883 18.2532 10C18.2532 14.5508 14.5509 18.2531 10.0001 18.2531ZM10.0001 0C4.48605 0 0.000109568 4.48594 0.000109568 10C0.000109568 11.9398 0.550891 13.8027 1.59738 15.4195L0.0782346 18.7652C0.00958849 18.9164 -0.014597 19.0839 0.0085083 19.2483C0.0316136 19.4126 0.101054 19.567 0.208703 19.6934C0.290805 19.7894 0.392747 19.8666 0.507516 19.9195C0.622285 19.9725 0.747159 19.9999 0.873547 20C1.43683 20 4.50831 19.0348 5.28995 18.8203C6.73488 19.5934 8.35558 20 10.0001 20C15.5138 20 20.0001 15.5137 20.0001 10C20.0001 4.48594 15.5138 0 10.0001 0Z" fill="#39AE41"/>
</g>
<defs>
<clipPath id="clip0_2890_9639">
<rect width="20" height="20" fill="white"/>
</clipPath>
</defs>
</svg>
