<svg width="139" height="32" viewBox="0 0 139 32" fill="none" xmlns="http://www.w3.org/2000/svg">
<path fill-rule="evenodd" clip-rule="evenodd" d="M0 16C0 8.19317 5.5912 1.69224 12.9877 0.283137C11.8375 9.29386 7.87665 17.4263 2.01207 23.7737C0.730257 21.4722 0 18.8214 0 16ZM11.4359 31.3396C12.8822 31.7693 14.4142 32 16 32C17.5858 32 19.1177 31.7693 20.5641 31.3396L16.6482 0.0128916C16.4332 0.00432435 16.2171 0 16 0C15.7829 0 15.5667 0.00432547 15.3517 0.0128949L11.4359 31.3396ZM19.0122 0.283121C20.1625 9.29388 24.1233 17.4264 29.9879 23.7738C31.2697 21.4722 32 18.8214 32 16C32 8.19314 26.4088 1.69219 19.0122 0.283121Z" fill="white"/>
<path d="M42.7812 10.7891V8H55.9219V10.7891H51.0234V24H47.6797V10.7891H42.7812ZM58.0859 24V8H64.3984C65.6068 8 66.638 8.21615 67.4922 8.64844C68.3516 9.07552 69.0052 9.68229 69.4531 10.4688C69.9063 11.25 70.1328 12.1693 70.1328 13.2266C70.1328 14.2891 69.9036 15.2031 69.4453 15.9687C68.987 16.7292 68.3229 17.3125 67.4531 17.7187C66.5885 18.125 65.5417 18.3281 64.3125 18.3281H60.0859V15.6094H63.7656C64.4115 15.6094 64.9479 15.5208 65.375 15.3438C65.8021 15.1667 66.1198 14.901 66.3281 14.5469C66.5417 14.1927 66.6484 13.7526 66.6484 13.2266C66.6484 12.6953 66.5417 12.2474 66.3281 11.8828C66.1198 11.5182 65.7995 11.2422 65.3672 11.0547C64.9401 10.862 64.401 10.7656 63.75 10.7656H61.4688V24H58.0859ZM66.7266 16.7188L70.7031 24H66.9688L63.0781 16.7188H66.7266ZM75.9063 8V24H72.5234V8H75.9063ZM78.6895 24V8H85.002C86.2155 8 87.2493 8.23177 88.1035 8.69531C88.9577 9.15365 89.6087 9.79167 90.0566 10.6094C90.5098 11.4219 90.7363 12.3594 90.7363 13.4219C90.7363 14.4844 90.5072 15.4219 90.0488 16.2344C89.5905 17.0469 88.9264 17.6797 88.0566 18.1328C87.1921 18.5859 86.1452 18.8125 84.916 18.8125H80.8926V16.1016H84.3691C85.0202 16.1016 85.5566 15.9896 85.9785 15.7656C86.4056 15.5365 86.7233 15.2214 86.9316 14.8203C87.1452 14.4141 87.252 13.9479 87.252 13.4219C87.252 12.8906 87.1452 12.4271 86.9316 12.0312C86.7233 11.6302 86.4056 11.3203 85.9785 11.1016C85.5514 10.8776 85.0098 10.7656 84.3535 10.7656H82.0723V24H78.6895ZM92.9336 24V8H99.3398C100.517 8 101.499 8.17448 102.285 8.52344C103.072 8.8724 103.663 9.35677 104.059 9.97656C104.454 10.5911 104.652 11.2995 104.652 12.1016C104.652 12.7266 104.527 13.276 104.277 13.75C104.027 14.2187 103.684 14.6042 103.246 14.9062C102.814 15.2031 102.319 15.4141 101.762 15.5391V15.6953C102.371 15.7214 102.941 15.8932 103.473 16.2109C104.009 16.5286 104.444 16.974 104.777 17.5469C105.111 18.1146 105.277 18.7917 105.277 19.5781C105.277 20.4271 105.066 21.1849 104.645 21.8516C104.228 22.513 103.611 23.0365 102.793 23.4219C101.975 23.8073 100.967 24 99.7695 24H92.9336ZM96.3164 21.2344H99.0742C100.017 21.2344 100.704 21.0547 101.137 20.6953C101.569 20.3307 101.785 19.8464 101.785 19.2422C101.785 18.7995 101.678 18.4089 101.465 18.0703C101.251 17.7318 100.947 17.4661 100.551 17.2734C100.16 17.0807 99.694 16.9844 99.1523 16.9844H96.3164V21.2344ZM96.3164 14.6953H98.8242C99.2878 14.6953 99.6992 14.6146 100.059 14.4531C100.423 14.2865 100.71 14.0521 100.918 13.75C101.132 13.4479 101.238 13.0859 101.238 12.6641C101.238 12.0859 101.033 11.6198 100.621 11.2656C100.215 10.9115 99.6367 10.7344 98.8867 10.7344H96.3164V14.6953ZM122.182 16C122.182 17.7448 121.851 19.2292 121.189 20.4531C120.533 21.6771 119.637 22.612 118.502 23.2578C117.372 23.8984 116.101 24.2187 114.689 24.2187C113.268 24.2187 111.992 23.8958 110.861 23.25C109.731 22.6042 108.838 21.6693 108.182 20.4453C107.525 19.2214 107.197 17.7396 107.197 16C107.197 14.2552 107.525 12.7708 108.182 11.5469C108.838 10.3229 109.731 9.39062 110.861 8.75C111.992 8.10417 113.268 7.78125 114.689 7.78125C116.101 7.78125 117.372 8.10417 118.502 8.75C119.637 9.39062 120.533 10.3229 121.189 11.5469C121.851 12.7708 122.182 14.2552 122.182 16ZM118.752 16C118.752 14.8698 118.583 13.9167 118.244 13.1406C117.911 12.3646 117.439 11.776 116.83 11.375C116.221 10.974 115.507 10.7734 114.689 10.7734C113.872 10.7734 113.158 10.974 112.549 11.375C111.939 11.776 111.465 12.3646 111.127 13.1406C110.794 13.9167 110.627 14.8698 110.627 16C110.627 17.1302 110.794 18.0833 111.127 18.8594C111.465 19.6354 111.939 20.224 112.549 20.625C113.158 21.026 113.872 21.2266 114.689 21.2266C115.507 21.2266 116.221 21.026 116.83 20.625C117.439 20.224 117.911 19.6354 118.244 18.8594C118.583 18.0833 118.752 17.1302 118.752 16ZM127.107 8L130.334 13.4531H130.459L133.701 8H137.521L132.639 16L137.631 24H133.74L130.459 18.5391H130.334L127.053 24H123.178L128.186 16L123.271 8H127.107Z" fill="#FAFAFA"/>
</svg>
