<svg width="560" height="160" viewBox="0 0 560 160" fill="none" xmlns="http://www.w3.org/2000/svg">
<path d="M200 80C200 40.9658 227.956 8.46105 264.939 1.41564C259.188 46.4694 239.383 87.1319 210.06 118.869C203.651 107.361 200 94.1069 200 80Z" fill="#CBCCCD"/>
<path d="M257.179 156.698C264.411 158.846 272.071 160 280 160C287.929 160 295.589 158.846 302.82 156.698L283.241 0.0644643C282.166 0.0216238 281.086 0 280 0C278.914 0 277.834 0.0216245 276.759 0.0644663L257.179 156.698Z" fill="#CBCCCD"/>
<path d="M295.061 1.41563C300.812 46.4694 320.616 87.1319 349.939 118.869C356.349 107.361 360 94.107 360 80C360 40.9658 332.044 8.46103 295.061 1.41563Z" fill="#CBCCCD"/>
</svg>
