<svg width="13" height="12" viewBox="0 0 13 12" fill="none" xmlns="http://www.w3.org/2000/svg">
<g clip-path="url(#clip0_1208_2842)">
<path d="M3.66875 2.75156L3.05703 4.5H9.94297L9.33125 2.75156C9.22578 2.45156 8.94219 2.25 8.62344 2.25H4.37656C4.05781 2.25 3.77422 2.45156 3.66875 2.75156ZM1.42812 4.6125L2.25313 2.25703C2.56953 1.35469 3.42031 0.75 4.37656 0.75H8.62344C9.57969 0.75 10.4305 1.35469 10.7469 2.25703L11.5719 4.6125C12.1156 4.8375 12.5 5.37422 12.5 6V9.375V10.5C12.5 10.9148 12.1648 11.25 11.75 11.25H11C10.5852 11.25 10.25 10.9148 10.25 10.5V9.375H2.75V10.5C2.75 10.9148 2.41484 11.25 2 11.25H1.25C0.835156 11.25 0.5 10.9148 0.5 10.5V9.375V6C0.5 5.37422 0.884375 4.8375 1.42812 4.6125ZM3.5 6.75C3.5 6.55109 3.42098 6.36032 3.28033 6.21967C3.13968 6.07902 2.94891 6 2.75 6C2.55109 6 2.36032 6.07902 2.21967 6.21967C2.07902 6.36032 2 6.55109 2 6.75C2 6.94891 2.07902 7.13968 2.21967 7.28033C2.36032 7.42098 2.55109 7.5 2.75 7.5C2.94891 7.5 3.13968 7.42098 3.28033 7.28033C3.42098 7.13968 3.5 6.94891 3.5 6.75ZM10.25 7.5C10.4489 7.5 10.6397 7.42098 10.7803 7.28033C10.921 7.13968 11 6.94891 11 6.75C11 6.55109 10.921 6.36032 10.7803 6.21967C10.6397 6.07902 10.4489 6 10.25 6C10.0511 6 9.86032 6.07902 9.71967 6.21967C9.57902 6.36032 9.5 6.55109 9.5 6.75C9.5 6.94891 9.57902 7.13968 9.71967 7.28033C9.86032 7.42098 10.0511 7.5 10.25 7.5Z" fill="#1C1E21"/>
</g>
<defs>
<clipPath id="clip0_1208_2842">
<rect width="12" height="12" fill="white" transform="translate(0.5)"/>
</clipPath>
</defs>
</svg>
