<svg width="18" height="24" viewBox="0 0 18 24" fill="none" xmlns="http://www.w3.org/2000/svg">
<path d="M16.059 7.05898C16.6449 6.47305 16.6449 5.52148 16.059 4.93555C15.473 4.34961 14.5215 4.34961 13.9355 4.93555L8.99961 9.87617L4.05898 4.94023C3.47305 4.3543 2.52148 4.3543 1.93555 4.94023C1.34961 5.52617 1.34961 6.47773 1.93555 7.06367L6.87617 11.9996L1.94023 16.9402C1.3543 17.5262 1.3543 18.4777 1.94023 19.0637C2.52617 19.6496 3.47773 19.6496 4.06367 19.0637L8.99961 14.123L13.9402 19.059C14.5262 19.6449 15.4777 19.6449 16.0637 19.059C16.6496 18.473 16.6496 17.5215 16.0637 16.9355L11.123 11.9996L16.059 7.05898Z" fill="#727374"/>
</svg>
