<svg width="10" height="14" viewBox="0 0 10 14" fill="none" xmlns="http://www.w3.org/2000/svg">
<path d="M5.70407 0.292928C5.31376 -0.0976426 4.6799 -0.0976426 4.28959 0.292928L0.292819 4.29237C0.00555109 4.57983 -0.0787558 5.00789 0.0773681 5.38284C0.233492 5.75779 0.595699 6.00151 1.00162 6.00151H8.99517C9.39797 6.00151 9.7633 5.75779 9.91942 5.38284C10.0755 5.00789 9.98811 4.57983 9.70397 4.29237L5.7072 0.292928H5.70407Z" fill="#BCBCBC"/>
<path d="M5.70798 13.7071C5.31767 14.0976 4.68381 14.0976 4.2935 13.7071L0.296725 9.70763C0.00945734 9.42017 -0.0748496 8.99211 0.0812743 8.61716C0.237398 8.24221 0.599606 7.99849 1.00553 7.99849H8.99907C9.40187 7.99849 9.7672 8.24221 9.92333 8.61716C10.0794 8.99211 9.99202 9.42017 9.70787 9.70763L5.7111 13.7071H5.70798Z" fill="black"/>
</svg>
