<svg width="20" height="20" viewBox="0 0 20 20" fill="none" xmlns="http://www.w3.org/2000/svg">
<path d="M2.5 14.5501V17.0834C2.5 17.3167 2.68333 17.5001 2.91667 17.5001H5.45C5.55833 17.5001 5.66667 17.4584 5.74167 17.3751L14.8417 8.28342L11.7167 5.15842L2.625 14.2501C2.54167 14.3334 2.5 14.4334 2.5 14.5501ZM17.2583 5.86675C17.3356 5.78966 17.3969 5.69808 17.4387 5.59727C17.4805 5.49646 17.502 5.38839 17.502 5.27925C17.502 5.17011 17.4805 5.06204 17.4387 4.96123C17.3969 4.86042 17.3356 4.76885 17.2583 4.69175L15.3083 2.74175C15.2312 2.6645 15.1397 2.60321 15.0389 2.56139C14.938 2.51957 14.83 2.49805 14.7208 2.49805C14.6117 2.49805 14.5036 2.51957 14.4028 2.56139C14.302 2.60321 14.2104 2.6645 14.1333 2.74175L12.6083 4.26675L15.7333 7.39175L17.2583 5.86675Z" fill="black"/>
</svg>
