<svg width="64" height="64" viewBox="0 0 64 64" fill="none" xmlns="http://www.w3.org/2000/svg">
<g clip-path="url(#clip0_2493_8129)">
<path d="M26.3752 0.912358C25.6252 0.124858 24.5002 -0.175142 23.4502 0.0998581C22.4002 0.374858 21.5877 1.21236 21.3127 2.26236L19.3377 10.0749L11.5877 7.88736C10.5377 7.58736 9.41272 7.88736 8.65022 8.64986C7.88772 9.41236 7.58772 10.5374 7.88772 11.5874L10.0752 19.3374L2.26272 21.3249C1.21272 21.5874 0.387724 22.4124 0.100224 23.4624C-0.187276 24.5124 0.125224 25.6249 0.912724 26.3749L6.68772 31.9999L0.912724 37.6249C0.125224 38.3749 -0.174776 39.4999 0.100224 40.5499C0.375224 41.5999 1.21272 42.4124 2.26272 42.6874L10.0752 44.6624L7.88772 52.4124C7.58772 53.4624 7.88772 54.5874 8.65022 55.3499C9.41272 56.1124 10.5377 56.4124 11.5877 56.1124L19.3377 53.9249L21.3127 61.7374C21.5752 62.7874 22.4002 63.6124 23.4502 63.8999C24.5002 64.1874 25.6127 63.8749 26.3752 63.0999L32.0002 57.3249L37.6252 63.0999C38.3877 63.8749 39.5002 64.1874 40.5502 63.8999C41.6002 63.6124 42.4127 62.7874 42.6877 61.7374L44.6627 53.9249L52.4127 56.1124C53.4627 56.4124 54.5877 56.1124 55.3502 55.3499C56.1127 54.5874 56.4127 53.4624 56.1127 52.4124L53.9252 44.6624L61.7377 42.6874C62.7877 42.4249 63.6127 41.5999 63.9002 40.5499C64.1877 39.4999 63.8752 38.3749 63.1002 37.6249L57.3252 31.9999L63.1002 26.3749C63.8752 25.6124 64.1877 24.4999 63.9002 23.4499C63.6127 22.3999 62.7877 21.5874 61.7377 21.3124L53.9252 19.3374L56.1127 11.5874C56.4127 10.5374 56.1127 9.41236 55.3502 8.64986C54.5877 7.88736 53.4627 7.58736 52.4127 7.88736L44.6627 10.0749L42.6752 2.26236C42.4127 1.21236 41.5877 0.387358 40.5377 0.0998581C39.4877 -0.187642 38.3752 0.124858 37.6252 0.912358L32.0002 6.68736L26.3752 0.912358Z" fill="#E22E1D"/>
<g clip-path="url(#clip1_2493_8129)">
<path d="M30.5 23V26H36.5L34.25 23H30.5ZM36.65 21.2L40.25 26H44C44.8297 26 45.5 26.6703 45.5 27.5V30.5C46.3297 30.5 47 31.1703 47 32C47 32.8297 46.3297 33.5 45.5 33.5C44.1313 31.6766 41.9516 30.5 39.5 30.5C37.0484 30.5 34.8687 31.6766 33.5 33.5H30.5C29.1313 31.6766 26.9516 30.5 24.5 30.5C22.0484 30.5 19.8688 31.6766 18.5 33.5C17.6703 33.5 17 32.8297 17 32C17 31.1703 17.6703 30.5 18.5 30.5V27.5C18.5 26.6703 19.1703 26 20 26H27.5V22.25C27.5 21.0078 28.5078 20 29.75 20H34.25C35.1922 20 36.0828 20.4453 36.65 21.2ZM24.125 32H24.875C25.4422 32 25.9109 32.4172 25.9906 32.9656C26.3469 33.0688 26.6891 33.2141 27.0078 33.3875C27.4484 33.0594 28.0766 33.0922 28.475 33.4953L29.0047 34.025C29.4078 34.4281 29.4406 35.0516 29.1125 35.4922C29.2859 35.8109 29.4312 36.1531 29.5344 36.5094C30.0781 36.5891 30.5 37.0578 30.5 37.625V38.375C30.5 38.9422 30.0828 39.4109 29.5344 39.4906C29.4312 39.8469 29.2859 40.1891 29.1125 40.5078C29.4406 40.9484 29.4078 41.5766 29.0047 41.975L28.475 42.5047C28.0719 42.9078 27.4484 42.9406 27.0078 42.6078C26.6891 42.7812 26.3469 42.9266 25.9906 43.0297C25.9109 43.5828 25.4422 44 24.875 44H24.125C23.5578 44 23.0891 43.5828 23.0094 43.0344C22.6531 42.9312 22.3109 42.7859 21.9922 42.6125C21.5516 42.9453 20.9234 42.9078 20.525 42.5094L19.9906 41.9797C19.5875 41.5766 19.5547 40.9531 19.8828 40.5125C19.7094 40.1891 19.5641 39.8516 19.4609 39.4906C18.9172 39.4109 18.5 38.9422 18.5 38.375V37.625C18.5 37.0578 18.9172 36.5891 19.4656 36.5094C19.5687 36.1531 19.7141 35.8109 19.8875 35.4875C19.5594 35.0469 19.5922 34.4188 19.9953 34.0203L20.525 33.4906C20.9281 33.0875 21.5516 33.0547 21.9922 33.3828C22.3109 33.2094 22.6531 33.0641 23.0094 32.9609C23.0891 32.4172 23.5578 31.9953 24.125 31.9953V32ZM24.5 40.25C25.0967 40.25 25.669 40.0129 26.091 39.591C26.5129 39.169 26.75 38.5967 26.75 38C26.75 37.4033 26.5129 36.831 26.091 36.409C25.669 35.9871 25.0967 35.75 24.5 35.75C23.9033 35.75 23.331 35.9871 22.909 36.409C22.4871 36.831 22.25 37.4033 22.25 38C22.25 38.5967 22.4871 39.169 22.909 39.591C23.331 40.0129 23.9033 40.25 24.5 40.25ZM38.0094 32.9656C38.0891 32.4219 38.5578 32 39.125 32H39.875C40.4422 32 40.9109 32.4172 40.9906 32.9656C41.3469 33.0688 41.6891 33.2141 42.0125 33.3875C42.4531 33.0594 43.0813 33.0922 43.4797 33.4953L44.0094 34.025C44.4125 34.4281 44.4453 35.0516 44.1125 35.4922C44.2859 35.8109 44.4313 36.1531 44.5344 36.5094C45.0781 36.5891 45.5 37.0578 45.5 37.625V38.375C45.5 38.9422 45.0828 39.4109 44.5344 39.4906C44.4313 39.8469 44.2859 40.1891 44.1125 40.5078C44.4406 40.9484 44.4078 41.5766 44.0094 41.975L43.4797 42.5047C43.0766 42.9078 42.4531 42.9406 42.0125 42.6078C41.6891 42.7812 41.3516 42.9266 40.9906 43.0297C40.9109 43.5828 40.4422 44 39.875 44H39.125C38.5578 44 38.0891 43.5828 38.0094 43.0344C37.6531 42.9312 37.3109 42.7859 36.9922 42.6125C36.5516 42.9453 35.9234 42.9078 35.525 42.5094L34.9953 41.9797C34.5922 41.5766 34.5594 40.9531 34.8922 40.5125C34.7188 40.1891 34.5734 39.8516 34.4703 39.4906C33.9172 39.4109 33.5 38.9422 33.5 38.375V37.625C33.5 37.0578 33.9172 36.5891 34.4656 36.5094C34.5688 36.1531 34.7141 35.8109 34.8875 35.4875C34.5594 35.0469 34.5922 34.4188 34.9906 34.0203L35.5203 33.4906C35.9234 33.0875 36.5469 33.0547 36.9875 33.3828C37.3062 33.2094 37.6484 33.0641 38.0047 32.9609L38.0094 32.9656ZM41.75 38C41.75 37.4033 41.5129 36.831 41.091 36.409C40.669 35.9871 40.0967 35.75 39.5 35.75C38.9033 35.75 38.331 35.9871 37.909 36.409C37.4871 36.831 37.25 37.4033 37.25 38C37.25 38.5967 37.4871 39.169 37.909 39.591C38.331 40.0129 38.9033 40.25 39.5 40.25C40.0967 40.25 40.669 40.0129 41.091 39.591C41.5129 39.169 41.75 38.5967 41.75 38Z" fill="white"/>
</g>
</g>
<defs>
<clipPath id="clip0_2493_8129">
<rect width="64" height="64" fill="white"/>
</clipPath>
<clipPath id="clip1_2493_8129">
<rect width="30" height="24" fill="white" transform="translate(17 20)"/>
</clipPath>
</defs>
</svg>
