<svg width="64" height="64" viewBox="0 0 64 64" fill="none" xmlns="http://www.w3.org/2000/svg">
<g clip-path="url(#clip0_2493_8113)">
<path d="M26.3752 0.912358C25.6252 0.124858 24.5002 -0.175142 23.4502 0.0998581C22.4002 0.374858 21.5877 1.21236 21.3127 2.26236L19.3377 10.0749L11.5877 7.88736C10.5377 7.58736 9.41272 7.88736 8.65022 8.64986C7.88772 9.41236 7.58772 10.5374 7.88772 11.5874L10.0752 19.3374L2.26272 21.3249C1.21272 21.5874 0.387724 22.4124 0.100224 23.4624C-0.187276 24.5124 0.125224 25.6249 0.912724 26.3749L6.68772 31.9999L0.912724 37.6249C0.125224 38.3749 -0.174776 39.4999 0.100224 40.5499C0.375224 41.5999 1.21272 42.4124 2.26272 42.6874L10.0752 44.6624L7.88772 52.4124C7.58772 53.4624 7.88772 54.5874 8.65022 55.3499C9.41272 56.1124 10.5377 56.4124 11.5877 56.1124L19.3377 53.9249L21.3127 61.7374C21.5752 62.7874 22.4002 63.6124 23.4502 63.8999C24.5002 64.1874 25.6127 63.8749 26.3752 63.0999L32.0002 57.3249L37.6252 63.0999C38.3877 63.8749 39.5002 64.1874 40.5502 63.8999C41.6002 63.6124 42.4127 62.7874 42.6877 61.7374L44.6627 53.9249L52.4127 56.1124C53.4627 56.4124 54.5877 56.1124 55.3502 55.3499C56.1127 54.5874 56.4127 53.4624 56.1127 52.4124L53.9252 44.6624L61.7377 42.6874C62.7877 42.4249 63.6127 41.5999 63.9002 40.5499C64.1877 39.4999 63.8752 38.3749 63.1002 37.6249L57.3252 31.9999L63.1002 26.3749C63.8752 25.6124 64.1877 24.4999 63.9002 23.4499C63.6127 22.3999 62.7877 21.5874 61.7377 21.3124L53.9252 19.3374L56.1127 11.5874C56.4127 10.5374 56.1127 9.41236 55.3502 8.64986C54.5877 7.88736 53.4627 7.58736 52.4127 7.88736L44.6627 10.0749L42.6752 2.26236C42.4127 1.21236 41.5877 0.387358 40.5377 0.0998581C39.4877 -0.187642 38.3752 0.124858 37.6252 0.912358L32.0002 6.68736L26.3752 0.912358Z" fill="#E22E1D"/>
<g clip-path="url(#clip1_2493_8113)">
<path d="M31.461 26.3422C31.7938 26.0469 31.9251 25.5828 31.7516 25.1703C31.6438 24.9219 31.5266 24.6781 31.3954 24.4437L31.2501 24.1906C31.1094 23.9562 30.9547 23.7266 30.7907 23.5062C30.5235 23.15 30.0547 23.0328 29.6329 23.1734L28.311 23.6094C27.8094 23.1969 27.2329 22.8594 26.6141 22.6297L26.3282 21.2703C26.2391 20.8344 25.9016 20.4875 25.461 20.4359C25.1516 20.3938 24.8375 20.375 24.5188 20.375H24.486C24.1672 20.375 23.8532 20.3937 23.5438 20.4312C23.1032 20.4828 22.7657 20.8344 22.6766 21.2656L22.3907 22.6297C21.7672 22.8641 21.1954 23.1969 20.6938 23.6094L19.3672 23.1781C18.9454 23.0375 18.4766 23.1547 18.2094 23.5109C18.0454 23.7312 17.8907 23.9609 17.7454 24.1953L17.6047 24.4437C17.4735 24.6781 17.3563 24.9219 17.2485 25.175C17.0751 25.5828 17.2063 26.0469 17.5391 26.3469L18.5797 27.275C18.5282 27.5891 18.5001 27.9172 18.5001 28.25C18.5001 28.5828 18.5282 28.9109 18.5797 29.2297L17.5391 30.1578C17.2063 30.4531 17.0751 30.9172 17.2485 31.3297C17.3563 31.5781 17.4735 31.8219 17.6047 32.0609L17.7454 32.3047C17.886 32.5437 18.0407 32.7687 18.2094 32.9891C18.4766 33.3453 18.9454 33.4625 19.3672 33.3219L20.6891 32.8859C21.1907 33.2984 21.7672 33.6359 22.386 33.8656L22.6719 35.2297C22.761 35.6656 23.0985 36.0125 23.5391 36.0641C23.8532 36.1016 24.1719 36.1203 24.4954 36.1203C24.8188 36.1203 25.1375 36.1016 25.4516 36.0641C25.8922 36.0125 26.2297 35.6609 26.3188 35.2297L26.6047 33.8656C27.2282 33.6312 27.8 33.2984 28.3016 32.8859L29.6235 33.3219C30.0454 33.4625 30.5141 33.3453 30.7813 32.9891C30.9454 32.7687 31.1 32.5437 31.2407 32.3047L31.386 32.0516C31.5172 31.8172 31.6344 31.5734 31.7422 31.325C31.9157 30.9172 31.7844 30.4531 31.4516 30.1531L30.411 29.225C30.4626 28.9062 30.4907 28.5781 30.4907 28.2453C30.4907 27.9125 30.4626 27.5844 30.411 27.2656L31.4516 26.3375L31.461 26.3422ZM22.2501 28.25C22.2501 27.6533 22.4871 27.081 22.9091 26.659C23.331 26.2371 23.9033 26 24.5 26C25.0968 26 25.6691 26.2371 26.091 26.659C26.513 27.081 26.75 27.6533 26.75 28.25C26.75 28.8467 26.513 29.419 26.091 29.841C25.6691 30.2629 25.0968 30.5 24.5 30.5C23.9033 30.5 23.331 30.2629 22.9091 29.841C22.4871 29.419 22.2501 28.8467 22.2501 28.25ZM40.6579 43.4609C40.9532 43.7937 41.4172 43.925 41.8297 43.7516C42.0782 43.6437 42.3219 43.5266 42.5563 43.3953L42.8094 43.25C43.0438 43.1094 43.2735 42.9547 43.4938 42.7906C43.8501 42.5234 43.9672 42.0547 43.8266 41.6328L43.3907 40.3109C43.8032 39.8094 44.1407 39.2328 44.3704 38.6141L45.7344 38.3281C46.1704 38.2391 46.5172 37.9016 46.5688 37.4609C46.6063 37.1469 46.625 36.8281 46.625 36.5047C46.625 36.1812 46.6063 35.8625 46.5688 35.5484C46.5172 35.1078 46.1657 34.7703 45.7344 34.6812L44.3704 34.3906C44.136 33.7672 43.8032 33.1953 43.3907 32.6937L43.8266 31.3719C43.9672 30.95 43.8501 30.4812 43.4938 30.2141C43.2735 30.05 43.0438 29.8953 42.8094 29.75L42.561 29.6094C42.3266 29.4781 42.0829 29.3609 41.8297 29.2531C41.4219 29.0797 40.9579 29.2109 40.6579 29.5437L39.7297 30.5844C39.411 30.5328 39.0829 30.5047 38.75 30.5047C38.4172 30.5047 38.0891 30.5328 37.7704 30.5844L36.8422 29.5437C36.5469 29.2109 36.0829 29.0797 35.6704 29.2531C35.4219 29.3609 35.1782 29.4781 34.9391 29.6094L34.6954 29.75C34.4563 29.8906 34.2313 30.0453 34.011 30.2141C33.6547 30.4812 33.5375 30.95 33.6782 31.3719L34.1141 32.6937C33.7016 33.1953 33.3641 33.7719 33.1344 34.3906L31.7704 34.6719C31.3344 34.7609 30.9875 35.0984 30.936 35.5391C30.8985 35.8531 30.8797 36.1719 30.8797 36.4953C30.8797 36.8187 30.8985 37.1375 30.936 37.4516C30.9875 37.8922 31.3391 38.2297 31.7704 38.3187L33.1344 38.6047C33.3688 39.2281 33.7016 39.8 34.1141 40.3016L33.6782 41.6234C33.5375 42.0453 33.6547 42.5141 34.011 42.7812C34.2313 42.9453 34.4563 43.1 34.6954 43.2406L34.9485 43.3859C35.1829 43.5172 35.4266 43.6344 35.6751 43.7422C36.0829 43.9156 36.5469 43.7844 36.8469 43.4516L37.7751 42.4109C38.0938 42.4625 38.4219 42.4906 38.7547 42.4906C39.0876 42.4906 39.4157 42.4625 39.7344 42.4109L40.6625 43.4516L40.6579 43.4609ZM38.75 34.25C39.0455 34.25 39.3381 34.3082 39.6111 34.4213C39.8841 34.5343 40.1321 34.7001 40.341 34.909C40.55 35.1179 40.7157 35.366 40.8288 35.639C40.9419 35.9119 41 36.2045 41 36.5C41 36.7955 40.9419 37.0881 40.8288 37.361C40.7157 37.634 40.55 37.8821 40.341 38.091C40.1321 38.2999 39.8841 38.4657 39.6111 38.5787C39.3381 38.6918 39.0455 38.75 38.75 38.75C38.4546 38.75 38.162 38.6918 37.889 38.5787C37.616 38.4657 37.368 38.2999 37.1591 38.091C36.9501 37.8821 36.7844 37.634 36.6713 37.361C36.5582 37.0881 36.5 36.7955 36.5 36.5C36.5 36.2045 36.5582 35.9119 36.6713 35.639C36.7844 35.366 36.9501 35.1179 37.1591 34.909C37.368 34.7001 37.616 34.5343 37.889 34.4213C38.162 34.3082 38.4546 34.25 38.75 34.25Z" fill="white"/>
</g>
</g>
<defs>
<clipPath id="clip0_2493_8113">
<rect width="64" height="64" fill="white"/>
</clipPath>
<clipPath id="clip1_2493_8113">
<rect width="30" height="24" fill="white" transform="translate(17 20)"/>
</clipPath>
</defs>
</svg>
