<svg width="64" height="64" viewBox="0 0 64 64" fill="none" xmlns="http://www.w3.org/2000/svg">
<g clip-path="url(#clip0_2493_8121)">
<path d="M26.3752 0.912358C25.6252 0.124858 24.5002 -0.175142 23.4502 0.0998581C22.4002 0.374858 21.5877 1.21236 21.3127 2.26236L19.3377 10.0749L11.5877 7.88736C10.5377 7.58736 9.41272 7.88736 8.65022 8.64986C7.88772 9.41236 7.58772 10.5374 7.88772 11.5874L10.0752 19.3374L2.26272 21.3249C1.21272 21.5874 0.387724 22.4124 0.100224 23.4624C-0.187276 24.5124 0.125224 25.6249 0.912724 26.3749L6.68772 31.9999L0.912724 37.6249C0.125224 38.3749 -0.174776 39.4999 0.100224 40.5499C0.375224 41.5999 1.21272 42.4124 2.26272 42.6874L10.0752 44.6624L7.88772 52.4124C7.58772 53.4624 7.88772 54.5874 8.65022 55.3499C9.41272 56.1124 10.5377 56.4124 11.5877 56.1124L19.3377 53.9249L21.3127 61.7374C21.5752 62.7874 22.4002 63.6124 23.4502 63.8999C24.5002 64.1874 25.6127 63.8749 26.3752 63.0999L32.0002 57.3249L37.6252 63.0999C38.3877 63.8749 39.5002 64.1874 40.5502 63.8999C41.6002 63.6124 42.4127 62.7874 42.6877 61.7374L44.6627 53.9249L52.4127 56.1124C53.4627 56.4124 54.5877 56.1124 55.3502 55.3499C56.1127 54.5874 56.4127 53.4624 56.1127 52.4124L53.9252 44.6624L61.7377 42.6874C62.7877 42.4249 63.6127 41.5999 63.9002 40.5499C64.1877 39.4999 63.8752 38.3749 63.1002 37.6249L57.3252 31.9999L63.1002 26.3749C63.8752 25.6124 64.1877 24.4999 63.9002 23.4499C63.6127 22.3999 62.7877 21.5874 61.7377 21.3124L53.9252 19.3374L56.1127 11.5874C56.4127 10.5374 56.1127 9.41236 55.3502 8.64986C54.5877 7.88736 53.4627 7.58736 52.4127 7.88736L44.6627 10.0749L42.6752 2.26236C42.4127 1.21236 41.5877 0.387358 40.5377 0.0998581C39.4877 -0.187642 38.3752 0.124858 37.6252 0.912358L32.0002 6.68736L26.3752 0.912358Z" fill="#E22E1D"/>
<g clip-path="url(#clip1_2493_8121)">
<path d="M31 21.5H27.4937C26.2234 21.5 25.0891 22.3016 24.6672 23.4969L19.1453 39.0875C19.0516 39.3594 19 39.65 19 39.9406C19 41.3516 20.1484 42.5 21.5594 42.5H31V39.5C31 38.6703 31.6703 38 32.5 38C33.3297 38 34 38.6703 34 39.5V42.5H43.4406C44.8563 42.5 46 41.3516 46 39.9406C46 39.65 45.9484 39.3594 45.8547 39.0875L40.3328 23.4969C39.9062 22.3016 38.7766 21.5 37.5062 21.5H34V24.5C34 25.3297 33.3297 26 32.5 26C31.6703 26 31 25.3297 31 24.5V21.5ZM34 30.5V33.5C34 34.3297 33.3297 35 32.5 35C31.6703 35 31 34.3297 31 33.5V30.5C31 29.6703 31.6703 29 32.5 29C33.3297 29 34 29.6703 34 30.5Z" fill="white"/>
</g>
</g>
<defs>
<clipPath id="clip0_2493_8121">
<rect width="64" height="64" fill="white"/>
</clipPath>
<clipPath id="clip1_2493_8121">
<rect width="27" height="24" fill="white" transform="translate(19 20)"/>
</clipPath>
</defs>
</svg>
