<svg width="64" height="64" viewBox="0 0 64 64" fill="none" xmlns="http://www.w3.org/2000/svg">
<g clip-path="url(#clip0_2493_8137)">
<path d="M26.3752 0.912358C25.6252 0.124858 24.5002 -0.175142 23.4502 0.0998581C22.4002 0.374858 21.5877 1.21236 21.3127 2.26236L19.3377 10.0749L11.5877 7.88736C10.5377 7.58736 9.41272 7.88736 8.65022 8.64986C7.88772 9.41236 7.58772 10.5374 7.88772 11.5874L10.0752 19.3374L2.26272 21.3249C1.21272 21.5874 0.387724 22.4124 0.100224 23.4624C-0.187276 24.5124 0.125224 25.6249 0.912724 26.3749L6.68772 31.9999L0.912724 37.6249C0.125224 38.3749 -0.174776 39.4999 0.100224 40.5499C0.375224 41.5999 1.21272 42.4124 2.26272 42.6874L10.0752 44.6624L7.88772 52.4124C7.58772 53.4624 7.88772 54.5874 8.65022 55.3499C9.41272 56.1124 10.5377 56.4124 11.5877 56.1124L19.3377 53.9249L21.3127 61.7374C21.5752 62.7874 22.4002 63.6124 23.4502 63.8999C24.5002 64.1874 25.6127 63.8749 26.3752 63.0999L32.0002 57.3249L37.6252 63.0999C38.3877 63.8749 39.5002 64.1874 40.5502 63.8999C41.6002 63.6124 42.4127 62.7874 42.6877 61.7374L44.6627 53.9249L52.4127 56.1124C53.4627 56.4124 54.5877 56.1124 55.3502 55.3499C56.1127 54.5874 56.4127 53.4624 56.1127 52.4124L53.9252 44.6624L61.7377 42.6874C62.7877 42.4249 63.6127 41.5999 63.9002 40.5499C64.1877 39.4999 63.8752 38.3749 63.1002 37.6249L57.3252 31.9999L63.1002 26.3749C63.8752 25.6124 64.1877 24.4999 63.9002 23.4499C63.6127 22.3999 62.7877 21.5874 61.7377 21.3124L53.9252 19.3374L56.1127 11.5874C56.4127 10.5374 56.1127 9.41236 55.3502 8.64986C54.5877 7.88736 53.4627 7.58736 52.4127 7.88736L44.6627 10.0749L42.6752 2.26236C42.4127 1.21236 41.5877 0.387358 40.5377 0.0998581C39.4877 -0.187642 38.3752 0.124858 37.6252 0.912358L32.0002 6.68736L26.3752 0.912358Z" fill="#E22E1D"/>
<path d="M26.3375 25.5031L25.1141 29H38.8859L37.6625 25.5031C37.4516 24.9031 36.8844 24.5 36.2469 24.5H27.7531C27.1156 24.5 26.5484 24.9031 26.3375 25.5031ZM21.8562 29.225L23.5063 24.5141C24.1391 22.7094 25.8406 21.5 27.7531 21.5H36.2469C38.1594 21.5 39.8609 22.7094 40.4938 24.5141L42.1437 29.225C43.2312 29.675 44 30.7484 44 32V38.75V41C44 41.8297 43.3297 42.5 42.5 42.5H41C40.1703 42.5 39.5 41.8297 39.5 41V38.75H24.5V41C24.5 41.8297 23.8297 42.5 23 42.5H21.5C20.6703 42.5 20 41.8297 20 41V38.75V32C20 30.7484 20.7687 29.675 21.8562 29.225ZM26 33.5C26 33.1022 25.842 32.7206 25.5607 32.4393C25.2794 32.158 24.8978 32 24.5 32C24.1022 32 23.7206 32.158 23.4393 32.4393C23.158 32.7206 23 33.1022 23 33.5C23 33.8978 23.158 34.2794 23.4393 34.5607C23.7206 34.842 24.1022 35 24.5 35C24.8978 35 25.2794 34.842 25.5607 34.5607C25.842 34.2794 26 33.8978 26 33.5ZM39.5 35C39.8978 35 40.2794 34.842 40.5607 34.5607C40.842 34.2794 41 33.8978 41 33.5C41 33.1022 40.842 32.7206 40.5607 32.4393C40.2794 32.158 39.8978 32 39.5 32C39.1022 32 38.7206 32.158 38.4393 32.4393C38.158 32.7206 38 33.1022 38 33.5C38 33.8978 38.158 34.2794 38.4393 34.5607C38.7206 34.842 39.1022 35 39.5 35Z" fill="white"/>
</g>
<defs>
<clipPath id="clip0_2493_8137">
<rect width="64" height="64" fill="white"/>
</clipPath>
</defs>
</svg>
