<svg width="36" height="32" viewBox="0 0 36 32" fill="none" xmlns="http://www.w3.org/2000/svg">
<g clip-path="url(#clip0_2493_8096)">
<path d="M25 0H11C9.34375 0 7.99375 1.3625 8.05625 3.0125C8.06875 3.34375 8.08125 3.675 8.1 4H1.5C0.66875 4 0 4.66875 0 5.5C0 11.2875 2.09375 15.3125 4.90625 18.0438C7.675 20.7375 11.05 22.0938 13.5375 22.7812C15 23.1875 16 24.4062 16 25.6313C16 26.9375 14.9375 28 13.6313 28H12C10.8938 28 10 28.8937 10 30C10 31.1063 10.8938 32 12 32H24C25.1063 32 26 31.1063 26 30C26 28.8937 25.1063 28 24 28H22.3687C21.0625 28 20 26.9375 20 25.6313C20 24.4062 20.9937 23.1812 22.4625 22.7812C24.9562 22.0938 28.3313 20.7375 31.1 18.0438C33.9062 15.3125 36 11.2875 36 5.5C36 4.66875 35.3312 4 34.5 4H27.9C27.9187 3.675 27.9312 3.35 27.9438 3.0125C28.0063 1.3625 26.6562 0 25 0ZM3.05625 7H8.33125C8.9 12.6313 10.1562 16.3938 11.575 18.9125C10.0188 18.225 8.4 17.2563 7 15.8938C5 13.95 3.375 11.1438 3.0625 7H3.05625ZM29.0063 15.8938C27.6063 17.2563 25.9875 18.225 24.4312 18.9125C25.85 16.3938 27.1062 12.6313 27.675 7H32.95C32.6313 11.1438 31.0063 13.95 29.0125 15.8938H29.0063Z" fill="black"/>
</g>
<defs>
<clipPath id="clip0_2493_8096">
<rect width="36" height="32" fill="white"/>
</clipPath>
</defs>
</svg>
