<svg width="40" height="32" viewBox="0 0 40 32" fill="none" xmlns="http://www.w3.org/2000/svg">
<path d="M13.325 2H18V6C18 7.10625 18.8937 8 20 8C21.1063 8 22 7.10625 22 6V2H26.675C28.3687 2 29.8813 3.06875 30.4438 4.6625L33.1125 12.2C32.4312 12.0687 31.725 12 31 12C27.2812 12 23.9937 13.85 22 16.675V14C22 12.8938 21.1063 12 20 12C18.8937 12 18 12.8938 18 14V18C18 19.1063 18.8937 20 20 20C20.1437 20 20.2875 19.9812 20.425 19.9562C20.1437 20.925 20 21.9438 20 23C20 23.3375 20.0125 23.6688 20.0438 24H20C18.8937 24 18 24.8937 18 26V30H5.4125C3.53125 30 2 28.4688 2 26.5875C2 26.2 2.06875 25.8125 2.19375 25.45L9.55625 4.6625C10.125 3.06875 11.6312 2 13.325 2ZM22 23C22 20.6131 22.9482 18.3239 24.636 16.636C26.3239 14.9482 28.6131 14 31 14C33.3869 14 35.6761 14.9482 37.364 16.636C39.0518 18.3239 40 20.6131 40 23C40 25.3869 39.0518 27.6761 37.364 29.364C35.6761 31.0518 33.3869 32 31 32C28.6131 32 26.3239 31.0518 24.636 29.364C22.9482 27.6761 22 25.3869 22 23ZM35.2062 20.2938C34.8187 19.9062 34.1813 19.9062 33.7938 20.2938L30 24.0875L28.2062 22.2938C27.8187 21.9062 27.1813 21.9062 26.7938 22.2938C26.4062 22.6813 26.4062 23.3187 26.7938 23.7062L29.2938 26.2062C29.6813 26.5938 30.3187 26.5938 30.7062 26.2062L35.2062 21.7062C35.5938 21.3187 35.5938 20.6813 35.2062 20.2938Z" fill="black"/>
</svg>
