<svg width="32" height="32" viewBox="0 0 32 32" fill="none" xmlns="http://www.w3.org/2000/svg">
<g clip-path="url(#clip0_2493_8102)">
<path d="M21.5625 2.44375L29.55 10.525C32.825 13.8375 32.825 19.1625 29.55 22.475L22.55 29.5562C21.9688 30.1437 21.0187 30.15 20.4312 29.5688C19.8438 28.9875 19.8375 28.0375 20.4188 27.45L27.4125 20.3687C29.5312 18.225 29.5312 14.7812 27.4125 12.6375L19.4312 4.55625C18.85 3.96875 18.8563 3.01875 19.4438 2.4375C20.0312 1.85625 20.9813 1.8625 21.5625 2.45V2.44375ZM0 14.3438V5C0 3.34375 1.34375 2 3 2H12.3438C13.4062 2 14.425 2.41875 15.175 3.16875L25.675 13.6687C27.2375 15.2312 27.2375 17.7625 25.675 19.325L17.3312 27.6688C15.7687 29.2313 13.2375 29.2313 11.675 27.6688L1.175 17.1688C0.41875 16.4188 0 15.4062 0 14.3438ZM9 9C9 8.46957 8.78929 7.96086 8.41421 7.58579C8.03914 7.21071 7.53043 7 7 7C6.46957 7 5.96086 7.21071 5.58579 7.58579C5.21071 7.96086 5 8.46957 5 9C5 9.53043 5.21071 10.0391 5.58579 10.4142C5.96086 10.7893 6.46957 11 7 11C7.53043 11 8.03914 10.7893 8.41421 10.4142C8.78929 10.0391 9 9.53043 9 9Z" fill="black"/>
</g>
<defs>
<clipPath id="clip0_2493_8102">
<rect width="32" height="32" fill="white"/>
</clipPath>
</defs>
</svg>
