<svg width="32" height="32" viewBox="0 0 32 32" fill="none" xmlns="http://www.w3.org/2000/svg">
<path d="M16 0L19.3129 3.63615L24 2.14359L25.051 6.94903L29.8564 8L28.3638 12.6871L32 16L28.3638 19.3129L29.8564 24L25.051 25.051L24 29.8564L19.3129 28.3638L16 32L12.6871 28.3638L8 29.8564L6.94903 25.051L2.14359 24L3.63615 19.3129L0 16L3.63615 12.6871L2.14359 8L6.94903 6.94903L8 2.14359L12.6871 3.63615L16 0Z" fill="#E33626"/>
<path d="M19.9002 10L21.3144 11.4142L17.2287 15.5L21.6281 19.8995L20.2139 21.3137L15.8144 16.9142L11.4149 21.3137L10.0007 19.8995L14.4002 15.5L10.3144 11.4142L11.7287 10L15.8144 14.0858L19.9002 10Z" fill="white"/>
</svg>
