<svg width="18" height="16" viewBox="0 0 18 16" fill="none" xmlns="http://www.w3.org/2000/svg">
<g clip-path="url(#clip0_2528_7512)">
<path d="M17.9936 7.98438C17.9936 8.54688 17.5248 8.9875 16.9936 8.9875H15.9936L16.0154 13.9937C16.0154 14.0781 16.0092 14.1625 15.9998 14.2469V14.7531C15.9998 15.4438 15.4404 16.0031 14.7498 16.0031H14.2498C14.2154 16.0031 14.1811 16.0031 14.1467 16C14.1029 16.0031 14.0592 16.0031 14.0154 16.0031L12.9998 16H12.2498C11.5592 16 10.9998 15.4406 10.9998 14.75V14V12C10.9998 11.4469 10.5529 11 9.9998 11H7.9998C7.44668 11 6.9998 11.4469 6.9998 12V14V14.75C6.9998 15.4406 6.44043 16 5.7498 16H4.9998H4.00293C3.95605 16 3.90918 15.9969 3.8623 15.9937C3.8248 15.9969 3.7873 16 3.7498 16H3.2498C2.55918 16 1.9998 15.4406 1.9998 14.75V11.25C1.9998 11.2219 1.9998 11.1906 2.00293 11.1625V8.98438H1.00293C0.44043 8.98438 0.00292969 8.54688 0.00292969 7.98125C0.00292969 7.7 0.0966797 7.45 0.31543 7.23125L8.3248 0.25C8.54355 0.03125 8.79355 0 9.0123 0C9.23105 0 9.48105 0.0625 9.66855 0.21875L17.6498 7.23438C17.8998 7.45312 18.0248 7.70312 17.9936 7.98438Z" fill="black"/>
</g>
<defs>
<clipPath id="clip0_2528_7512">
<rect width="18" height="16" fill="white"/>
</clipPath>
</defs>
</svg>
