<svg width="24" height="24" viewBox="0 0 24 24" fill="none" xmlns="http://www.w3.org/2000/svg">
<path d="M24 12C24 12.2031 23.9193 12.398 23.7757 12.5416C23.632 12.6853 23.4372 12.766 23.234 12.766L12.766 12.766L12.766 23.234C12.766 23.4372 12.6853 23.632 12.5416 23.7757C12.398 23.9193 12.2031 24 12 24C11.7969 24 11.602 23.9193 11.4584 23.7757C11.3147 23.632 11.234 23.4372 11.234 23.234L11.234 12.766H0.765957C0.562813 12.766 0.367989 12.6853 0.224344 12.5416C0.0806988 12.398 0 12.2031 0 12C0 11.7969 0.0806988 11.602 0.224344 11.4584C0.367989 11.3147 0.562813 11.234 0.765957 11.234H11.234V0.765957C11.234 0.562813 11.3147 0.367989 11.4584 0.224344C11.602 0.0806988 11.7969 0 12 0C12.2031 0 12.398 0.0806988 12.5416 0.224344C12.6853 0.367989 12.766 0.562813 12.766 0.765957V11.234L23.234 11.234C23.4372 11.234 23.632 11.3147 23.7757 11.4584C23.9193 11.602 24 11.7969 24 12Z" fill="white"/>
</svg>
