<svg width="14" height="16" viewBox="0 0 14 16" fill="none" xmlns="http://www.w3.org/2000/svg">
<path d="M2 2.5C1.725 2.5 1.5 2.725 1.5 3V13C1.5 13.275 1.725 13.5 2 13.5H12C12.275 13.5 12.5 13.275 12.5 13V3C12.5 2.725 12.275 2.5 12 2.5H2ZM0 3C0 1.89688 0.896875 1 2 1H12C13.1031 1 14 1.89688 14 3V13C14 14.1031 13.1031 15 12 15H2C0.896875 15 0 14.1031 0 13V3ZM6.25 10.75V8.75H4.25C3.83437 8.75 3.5 8.41563 3.5 8C3.5 7.58437 3.83437 7.25 4.25 7.25H6.25V5.25C6.25 4.83437 6.58437 4.5 7 4.5C7.41563 4.5 7.75 4.83437 7.75 5.25V7.25H9.75C10.1656 7.25 10.5 7.58437 10.5 8C10.5 8.41563 10.1656 8.75 9.75 8.75H7.75V10.75C7.75 11.1656 7.41563 11.5 7 11.5C6.58437 11.5 6.25 11.1656 6.25 10.75Z" fill="black"/>
</svg>
