<svg width="18" height="12" viewBox="0 0 18 12" fill="none" xmlns="http://www.w3.org/2000/svg">
<path d="M2 0C0.896875 0 0 0.896875 0 2V10C0 11.1031 0.896875 12 2 12H16C17.1031 12 18 11.1031 18 10V2C18 0.896875 17.1031 0 16 0H2ZM3.5 5H8.5C8.775 5 9 5.225 9 5.5C9 5.775 8.775 6 8.5 6H3.5C3.225 6 3 5.775 3 5.5C3 5.225 3.225 5 3.5 5ZM3 8.5C3 8.225 3.225 8 3.5 8H14.5C14.775 8 15 8.225 15 8.5C15 8.775 14.775 9 14.5 9H3.5C3.225 9 3 8.775 3 8.5ZM11.75 3H14.25C14.6656 3 15 3.33437 15 3.75V5.25C15 5.66563 14.6656 6 14.25 6H11.75C11.3344 6 11 5.66563 11 5.25V3.75C11 3.33437 11.3344 3 11.75 3Z" fill="#1C1E21"/>
</svg>
