<svg width="33" height="32" viewBox="0 0 33 32" fill="none" xmlns="http://www.w3.org/2000/svg">
<path d="M29.8325 12.3346C29.5684 12.3381 29.316 12.4446 29.1292 12.6313C28.9424 12.8181 28.836 13.0705 28.8325 13.3346V21.3346L23.2592 14.9613C22.9051 14.5843 22.4775 14.2839 22.0028 14.0785C21.5281 13.8731 21.0164 13.7672 20.4992 13.7672C19.982 13.7672 19.4703 13.8731 18.9956 14.0785C18.5209 14.2839 18.0933 14.5843 17.7392 14.9613L13.9125 19.3346L12.6592 17.8146C12.3138 17.4003 11.8816 17.067 11.3931 16.8383C10.9047 16.6095 10.3719 16.491 9.83252 16.491C9.29315 16.491 8.76037 16.6095 8.2719 16.8383C7.78344 17.067 7.35122 17.4003 7.00586 17.8146L4.16586 21.2413V8.0013C4.16937 6.85311 4.62705 5.75295 5.43894 4.94106C6.25084 4.12916 7.351 3.67149 8.49919 3.66797H19.1659C19.4311 3.66797 19.6854 3.56261 19.873 3.37508C20.0605 3.18754 20.1659 2.93319 20.1659 2.66797C20.1659 2.40275 20.0605 2.1484 19.873 1.96086C19.6854 1.77333 19.4311 1.66797 19.1659 1.66797H8.49919C6.81948 1.66797 5.20858 2.33523 4.02085 3.52296C2.83312 4.71069 2.16586 6.3216 2.16586 8.0013V24.0013C2.15956 24.0231 2.15956 24.0462 2.16586 24.068C2.18342 25.7361 2.85842 27.3299 4.04425 28.5033C5.23008 29.6766 6.83097 30.3347 8.49919 30.3346H24.4992C26.1605 30.3313 27.7541 29.6753 28.9363 28.5081C30.1185 27.3408 30.7947 25.7558 30.8192 24.0946V13.3346C30.8158 13.0728 30.7112 12.8223 30.5273 12.6359C30.3433 12.4495 30.0943 12.3415 29.8325 12.3346ZM24.4992 28.3346H8.49919C7.41001 28.3312 6.36208 27.9176 5.56402 27.1764C4.76596 26.4352 4.2763 25.4206 4.19252 24.3346L8.49919 19.0946C8.6605 18.9149 8.85784 18.7712 9.07838 18.6728C9.29891 18.5744 9.5377 18.5235 9.77919 18.5235C10.0207 18.5235 10.2595 18.5744 10.48 18.6728C10.7005 18.7712 10.8979 18.9149 11.0592 19.0946L13.0725 21.5213C13.1649 21.6336 13.2809 21.7241 13.4122 21.7863C13.5436 21.8486 13.6871 21.881 13.8325 21.8813C14.1204 21.8654 14.3918 21.7416 14.5925 21.5346L19.1792 16.2813C19.3424 16.1094 19.5388 15.9726 19.7566 15.8791C19.9743 15.7855 20.2089 15.7373 20.4459 15.7373C20.6829 15.7373 20.9174 15.7855 21.1351 15.8791C21.3529 15.9726 21.5493 16.1094 21.7125 16.2813L28.7392 24.2813C28.6722 25.3665 28.1985 26.3866 27.4126 27.1379C26.6267 27.8892 25.5863 28.3166 24.4992 28.3346Z" fill="#6A6E76"/>
<path d="M6.16602 9.33464C6.16602 10.0598 6.38106 10.7687 6.78396 11.3717C7.18686 11.9747 7.75951 12.4447 8.42951 12.7222C9.09951 12.9997 9.83675 13.0723 10.548 12.9308C11.2593 12.7894 11.9126 12.4402 12.4254 11.9274C12.9382 11.4146 13.2874 10.7612 13.4289 10.05C13.5704 9.3387 13.4978 8.60146 13.2202 7.93146C12.9427 7.26147 12.4728 6.68881 11.8698 6.28591C11.2668 5.88302 10.5579 5.66797 9.83268 5.66797C8.86022 5.66797 7.92759 6.05428 7.23996 6.74191C6.55232 7.42954 6.16602 8.36217 6.16602 9.33464ZM11.4993 9.33464C11.4993 9.66427 11.4016 9.9865 11.2185 10.2606C11.0353 10.5347 10.775 10.7483 10.4705 10.8744C10.1659 11.0006 9.83083 11.0336 9.50753 10.9693C9.18423 10.905 8.88726 10.7462 8.65417 10.5131C8.42108 10.2801 8.26235 9.98309 8.19804 9.65979C8.13373 9.33648 8.16674 9.00137 8.29288 8.69683C8.41903 8.39229 8.63265 8.13199 8.90673 7.94885C9.18081 7.76572 9.50305 7.66797 9.83268 7.66797C10.2747 7.66797 10.6986 7.84356 11.0112 8.15612C11.3238 8.46869 11.4993 8.89261 11.4993 9.33464ZM21.8327 7.66797H24.8327V10.668C24.8327 10.9332 24.938 11.1875 25.1256 11.3751C25.3131 11.5626 25.5675 11.668 25.8327 11.668C26.0979 11.668 26.3523 11.5626 26.5398 11.3751C26.7273 11.1875 26.8327 10.9332 26.8327 10.668V7.66797H29.8327C30.0979 7.66797 30.3523 7.56261 30.5398 7.37508C30.7273 7.18754 30.8327 6.93319 30.8327 6.66797C30.8327 6.40275 30.7273 6.1484 30.5398 5.96086C30.3523 5.77333 30.0979 5.66797 29.8327 5.66797H26.8327V2.66797C26.8327 2.40275 26.7273 2.1484 26.5398 1.96086C26.3523 1.77333 26.0979 1.66797 25.8327 1.66797C25.5675 1.66797 25.3131 1.77333 25.1256 1.96086C24.938 2.1484 24.8327 2.40275 24.8327 2.66797V5.66797H21.8327C21.5675 5.66797 21.3131 5.77333 21.1256 5.96086C20.938 6.1484 20.8327 6.40275 20.8327 6.66797C20.8327 6.93319 20.938 7.18754 21.1256 7.37508C21.3131 7.56261 21.5675 7.66797 21.8327 7.66797Z" fill="#6A6E76"/>
</svg>
