<svg width="28" height="28" viewBox="0 0 28 28" fill="none" xmlns="http://www.w3.org/2000/svg">
<circle cx="14" cy="14" r="14" fill="white"/>
<path d="M13.9495 4.10103C16.2548 4.569 17.9899 6.60713 17.9899 9.05051C17.9899 11.4939 16.2548 13.532 13.9495 14C14.2758 14.0662 14.6138 14.101 14.9596 14.101C17.7488 14.101 20.0101 11.8398 20.0101 9.05051C20.0101 6.26119 17.7488 4 14.9596 4C14.6138 4 14.2758 4.03477 13.9495 4.10103Z" fill="#E33626"/>
<path d="M14.0505 14C11.7452 14.468 10.0101 16.5061 10.0101 18.9495C10.0101 21.3929 11.7452 23.431 14.0505 23.899C13.7242 23.9652 13.3862 24 13.0404 24C10.2512 24 7.9899 21.7388 7.9899 18.9495C7.9899 16.1602 10.2512 13.899 13.0404 13.899C13.3862 13.899 13.7242 13.9338 14.0505 14Z" fill="#E33626"/>
<path d="M6.96457 7.03609C8.92555 5.73691 11.5936 5.95116 13.3214 7.67889C15.0491 9.40662 15.2634 12.0747 13.9642 14.0357C14.2418 13.8518 14.5053 13.6374 14.7499 13.3929C16.7221 11.4206 16.7222 8.22274 14.7499 6.2504C12.7775 4.27805 9.57965 4.27812 7.60738 6.2504C7.36283 6.49494 7.14845 6.7585 6.96457 7.03609Z" fill="#E33626"/>
<path d="M14.0356 13.9643C12.7365 15.9253 12.9507 18.5934 14.6784 20.3211C16.4062 22.0488 19.0743 22.2631 21.0352 20.9639C20.8514 21.2415 20.637 21.5051 20.3924 21.7496C18.4202 23.7219 15.2223 23.722 13.2499 21.7496C11.2776 19.7773 11.2777 16.5794 13.2499 14.6071C13.4945 14.3626 13.758 14.1482 14.0356 13.9643Z" fill="#E33626"/>
<path d="M4.10104 14.0505C4.569 11.7452 6.60713 10.0101 9.05051 10.0101C11.4939 10.0101 13.532 11.7452 14 14.0505C14.0662 13.7242 14.101 13.3862 14.101 13.0404C14.101 10.2512 11.8398 7.9899 9.05051 7.9899C6.26119 7.9899 4 10.2512 4 13.0404C4 13.3862 4.03477 13.7242 4.10104 14.0505Z" fill="#E33626"/>
<path d="M14 13.9495C14.468 16.2548 16.5061 17.9899 18.9495 17.9899C21.3929 17.9899 23.431 16.2548 23.899 13.9495C23.9652 14.2758 24 14.6138 24 14.9596C24 17.7488 21.7388 20.0101 18.9495 20.0101C16.1602 20.0101 13.899 17.7488 13.899 14.9596C13.899 14.6138 13.9338 14.2758 14 13.9495Z" fill="#E33626"/>
<path d="M7.03611 21.0353C5.73693 19.0744 5.95119 16.4063 7.67892 14.6785C9.40665 12.9508 12.0747 12.7365 14.0357 14.0357C13.8518 13.7581 13.6375 13.4946 13.3929 13.25C11.4206 11.2778 8.22277 11.2777 6.25042 13.25C4.27807 15.2224 4.27814 18.4202 6.25042 20.3925C6.49497 20.6371 6.75852 20.8515 7.03611 21.0353Z" fill="#E33626"/>
<path d="M13.9643 13.9643C15.9253 15.2634 18.5934 15.0492 20.3211 13.3215C22.0489 11.5937 22.2631 8.92563 20.9639 6.96466C21.2415 7.14854 21.5051 7.36292 21.7496 7.60746C23.7219 9.57974 23.722 12.7776 21.7496 14.75C19.7773 16.7223 16.5794 16.7222 14.6071 14.75C14.3626 14.5054 14.1482 14.2419 13.9643 13.9643Z" fill="#E33626"/>
</svg>
