<svg width="14" height="14" viewBox="0 0 14 14" fill="none" xmlns="http://www.w3.org/2000/svg">
<g clip-path="url(#clip0_3001_1963)">
<path d="M13.4091 3.18047C13.3927 3.07722 13.2271 2.14972 12.5551 1.47247C11.8802 0.812141 10.9492 0.648807 10.8453 0.632474C10.7074 0.610058 10.5661 0.638455 10.4475 0.712391C10.4061 0.738057 9.79766 1.11897 8.59658 2.13456C9.21433 2.35272 10.0129 2.73131 10.6604 3.36481C11.3102 4.00064 11.6987 4.78289 11.9216 5.38956C12.9249 4.21706 13.3023 3.62322 13.3274 3.58239C13.4021 3.46281 13.4312 3.31989 13.4091 3.18047ZM7.55416 3.04689C6.80816 3.72236 6.07839 4.41556 5.36549 5.12589C1.82874 8.63756 0.901244 10.0416 0.863327 10.0994C0.810244 10.1811 0.778161 10.275 0.770577 10.3718L0.584494 12.7466C0.578304 12.8268 0.588762 12.9074 0.615212 12.9834C0.641662 13.0594 0.683532 13.1291 0.738196 13.1882C0.79286 13.2472 0.859137 13.2943 0.932869 13.3265C1.0066 13.3588 1.0862 13.3754 1.16666 13.3754C1.18124 13.3754 1.19641 13.3754 1.21158 13.3736L3.60383 13.1893C3.70008 13.1817 3.79283 13.1508 3.87391 13.0989C3.93224 13.0616 5.34566 12.1405 8.88183 8.62939C9.61039 7.9085 10.3213 7.16997 11.0139 6.41447C10.9258 6.03589 10.6184 4.95556 9.84433 4.19897C9.05916 3.43072 7.92983 3.12972 7.55416 3.04689Z" fill="white"/>
</g>
<defs>
<clipPath id="clip0_3001_1963">
<rect width="14" height="14" fill="white"/>
</clipPath>
</defs>
</svg>
