<svg width="20" height="20" viewBox="0 0 20 20" fill="none" xmlns="http://www.w3.org/2000/svg">
<path d="M15.736 14.4613C16.088 14.8133 16.088 15.384 15.736 15.736C15.384 16.088 14.8133 16.088 14.4613 15.736L10 11.2747L5.5387 15.736C5.18671 16.088 4.61602 16.088 4.26403 15.736C3.91204 15.384 3.91204 14.8133 4.26403 14.4613L8.72534 10L4.26399 5.53866C3.912 5.18667 3.912 4.61598 4.26399 4.26399C4.61598 3.912 5.18667 3.912 5.53866 4.26399L10 8.72534L14.4613 4.26399C14.8133 3.912 15.384 3.912 15.736 4.26399C16.088 4.61598 16.088 5.18667 15.736 5.53866L11.2747 10L15.736 14.4613Z" fill="#6A6E76"/>
</svg>
