<svg width="14" height="14" viewBox="0 0 14 14" fill="none" xmlns="http://www.w3.org/2000/svg">
<path d="M13.3636 11.9496C13.7541 12.3401 13.7541 12.9733 13.3636 13.3638C12.9731 13.7544 12.3399 13.7544 11.9494 13.3638L6.99965 8.41411L2.04993 13.3638C1.6594 13.7544 1.02624 13.7544 0.635712 13.3638C0.245188 12.9733 0.245188 12.3401 0.635712 11.9496L5.58544 6.99989L0.635667 2.05012C0.245142 1.6596 0.245142 1.02643 0.635667 0.635911C1.02619 0.245386 1.65936 0.245387 2.04988 0.635911L6.99965 5.58568L11.9494 0.635911C12.3399 0.245387 12.9731 0.245386 13.3636 0.635911C13.7542 1.02643 13.7542 1.6596 13.3636 2.05012L8.41386 6.99989L13.3636 11.9496Z" fill="#E33626"/>
</svg>
