<svg width="32" height="32" viewBox="0 0 32 32" fill="none" xmlns="http://www.w3.org/2000/svg">
<rect width="32" height="32" rx="5" fill="#ECEDEE"/>
<g clip-path="url(#clip0_3001_1421)">
<path d="M16.7406 23.6C18.3438 21.5938 22 16.7312 22 14C22 10.6875 19.3125 8 16 8C12.6875 8 10 10.6875 10 14C10 16.7312 13.6562 21.5938 15.2594 23.6C15.6438 24.0781 16.3562 24.0781 16.7406 23.6ZM16 12C16.5304 12 17.0391 12.2107 17.4142 12.5858C17.7893 12.9609 18 13.4696 18 14C18 14.5304 17.7893 15.0391 17.4142 15.4142C17.0391 15.7893 16.5304 16 16 16C15.4696 16 14.9609 15.7893 14.5858 15.4142C14.2107 15.0391 14 14.5304 14 14C14 13.4696 14.2107 12.9609 14.5858 12.5858C14.9609 12.2107 15.4696 12 16 12Z" fill="#6A6E76"/>
</g>
<defs>
<clipPath id="clip0_3001_1421">
<rect width="12" height="16" fill="white" transform="translate(10 8)"/>
</clipPath>
</defs>
</svg>
