<svg width="9" height="8" viewBox="0 0 9 8" fill="none" xmlns="http://www.w3.org/2000/svg">
<g clip-path="url(#clip0_1416_4485)">
<path d="M1.69974 6.33288H7.69974C7.76048 6.33269 7.82003 6.31593 7.87196 6.28442C7.92389 6.25291 7.96625 6.20782 7.99447 6.15403C8.02269 6.10023 8.0357 6.03976 8.0321 5.97912C8.02851 5.91848 8.00844 5.85997 7.97407 5.80988L4.97407 1.47655C4.84974 1.29688 4.5504 1.29688 4.42574 1.47655L1.42574 5.80988C1.39101 5.85986 1.37065 5.9184 1.36686 5.97914C1.36307 6.03989 1.376 6.10051 1.40424 6.15442C1.43248 6.20833 1.47496 6.25346 1.52706 6.28493C1.57915 6.31639 1.63888 6.33298 1.69974 6.33288Z" fill="#6A6E76"/>
</g>
<defs>
<clipPath id="clip0_1416_4485">
<rect width="8" height="8" fill="white" transform="translate(0.700195)"/>
</clipPath>
</defs>
</svg>
