<svg width="16" height="16" viewBox="0 0 16 16" fill="none" xmlns="http://www.w3.org/2000/svg">
<path d="M12.1364 7.58638V13.1705C12.1364 13.5231 11.9963 13.8612 11.7469 14.1106C11.4976 14.3599 11.1594 14.5 10.8068 14.5H2.82956C2.65496 14.5 2.48207 14.4656 2.32076 14.3988C2.15945 14.332 2.01288 14.2341 1.88941 14.1106C1.76595 13.9871 1.66801 13.8406 1.6012 13.6793C1.53438 13.518 1.5 13.3451 1.5 13.1705V5.19319C1.49999 5.01858 1.53437 4.84569 1.60118 4.68437C1.66799 4.52306 1.76593 4.37648 1.88939 4.25302C2.01286 4.12955 2.15943 4.03162 2.32075 3.96481C2.48206 3.89799 2.65496 3.86361 2.82956 3.86363H8.41362M14.5 5.63637V1.5M14.5 1.5H10.3636M14.5 1.5L6.75 9.25" stroke="white" stroke-linecap="round" stroke-linejoin="round"/>
</svg>
