<svg width="44" height="72" viewBox="0 0 44 72" fill="none" xmlns="http://www.w3.org/2000/svg">
<path d="M44 0H0V72L22 60L44 72V0Z" fill="#E33C26"/>
<path d="M14.9999 39C14.4695 39 13.9608 38.7893 13.5857 38.4142C13.2106 38.0391 12.9999 37.5304 12.9999 37C12.9999 36.4695 13.2106 35.9608 13.5857 35.5858C13.9608 35.2107 14.4695 35 14.9999 35H28.9999C29.5303 35 30.0391 35.2107 30.4141 35.5858C30.7892 35.9608 30.9999 36.4695 30.9999 37C30.9999 37.5304 30.7892 38.0391 30.4141 38.4142C30.0391 38.7893 29.5303 39 28.9999 39H14.9999ZM29.9999 24C29.623 23.9981 29.2534 24.1033 28.934 24.3033C28.6145 24.5033 28.3585 24.7899 28.1956 25.1298C28.0327 25.4696 27.9696 25.8487 28.0138 26.223C28.0579 26.5973 28.2074 26.9513 28.4449 27.244L24.9999 30L22.7879 24.838C23.2113 24.6565 23.559 24.3345 23.7724 23.9263C23.9857 23.5181 24.0517 23.0487 23.9591 22.5975C23.8664 22.1463 23.6209 21.741 23.2639 21.4498C22.907 21.1587 22.4605 20.9998 21.9999 20.9998C21.5393 20.9998 21.0928 21.1587 20.7359 21.4498C20.3789 21.741 20.1334 22.1463 20.0408 22.5975C19.9481 23.0487 20.0141 23.5181 20.2275 23.9263C20.4408 24.3345 20.7886 24.6565 21.2119 24.838L18.9999 30L15.5549 27.244C15.8349 26.8901 15.9864 26.4516 15.9847 26.0004C15.983 25.5491 15.8281 25.1118 15.5454 24.7601C15.2627 24.4084 14.869 24.163 14.4287 24.0643C13.9884 23.9655 13.5276 24.0192 13.1218 24.2165C12.7159 24.4138 12.3891 24.743 12.1948 25.1503C12.0005 25.5576 11.9503 26.0188 12.0523 26.4584C12.1543 26.8979 12.4026 27.2898 12.7564 27.5699C13.1102 27.85 13.5487 28.0016 13.9999 28C14.1198 27.9987 14.2392 27.9866 14.3569 27.964L15.5329 33H28.4669L29.6429 27.964C29.9159 28.0134 30.1962 28.0055 30.4659 27.9407C30.7356 27.8759 30.9889 27.7556 31.2096 27.5875C31.4303 27.4194 31.6136 27.2072 31.7478 26.9644C31.882 26.7216 31.9641 26.4535 31.989 26.1772C32.0139 25.9009 31.981 25.6224 31.8923 25.3596C31.8037 25.0967 31.6613 24.8552 31.4742 24.6503C31.287 24.4455 31.0593 24.2819 30.8055 24.17C30.5517 24.058 30.2773 24.0001 29.9999 24Z" fill="white"/>
</svg>
