<svg width="24" height="24" viewBox="0 0 24 24" fill="none" xmlns="http://www.w3.org/2000/svg">
<g clip-path="url(#clip0_461_7591)">
<path d="M12.0005 15.7065C11.4413 15.7065 10.9727 16.1752 10.9727 16.7344C10.9727 17.2935 11.4413 17.7622 12.0005 17.7622C12.5391 17.7622 13.0283 17.2935 13.0036 16.759C13.0283 16.1711 12.5637 15.7065 12.0005 15.7065Z" fill="#1C1E21"/>
<path d="M21.5133 19.3491C22.1588 18.2349 22.1629 16.907 21.5215 15.7969L15.0832 4.64706C14.446 3.52467 13.2948 2.85864 12.0039 2.85864C10.7129 2.85864 9.56175 3.52879 8.92449 4.64295L2.47796 15.8052C1.8366 16.9275 1.84071 18.2637 2.49029 19.3779C3.13166 20.4797 4.27871 21.1416 5.56144 21.1416H18.4216C19.7085 21.1416 20.8637 20.4715 21.5133 19.3491ZM20.1155 18.5433C19.7578 19.16 19.1247 19.5259 18.4175 19.5259H5.55733C4.85841 19.5259 4.22938 19.1682 3.87992 18.5638C3.52634 17.9513 3.52223 17.2194 3.8758 16.6028L10.3223 5.44466C10.6718 4.83207 11.2967 4.47028 12.0039 4.47028C12.7069 4.47028 13.3359 4.83618 13.6854 5.44877L20.1278 16.6069C20.4732 17.2071 20.469 17.9307 20.1155 18.5433Z" fill="#1C1E21"/>
<path d="M11.7447 8.49118C11.2554 8.63096 10.9512 9.07498 10.9512 9.61356C10.9758 9.93836 10.9964 10.2673 11.0211 10.5921C11.091 11.8296 11.1608 13.0424 11.2307 14.2799C11.2554 14.6993 11.5802 15.0035 11.9996 15.0035C12.4189 15.0035 12.7478 14.6787 12.7684 14.2552C12.7684 14.0003 12.7684 13.766 12.793 13.507C12.8383 12.7135 12.8876 11.92 12.9328 11.1265C12.9575 10.6126 13.0027 10.0987 13.0274 9.58478C13.0274 9.39977 13.0027 9.23532 12.9328 9.07087C12.7231 8.6104 12.2339 8.37606 11.7447 8.49118Z" fill="#1C1E21"/>
</g>
<defs>
<clipPath id="clip0_461_7591">
<rect width="20" height="20" fill="white" transform="translate(2 2)"/>
</clipPath>
</defs>
</svg>
