<svg width="40" height="40" viewBox="0 0 40 40" fill="none" xmlns="http://www.w3.org/2000/svg">
<rect width="40" height="40" rx="20" fill="#ECEDEE"/>
<g clip-path="url(#clip0_960_1526)">
<path d="M14 13.5C14 12.6719 14.6719 12 15.5 12V13.5V25.7937L19.5656 22.8906C19.825 22.7031 20.1781 22.7031 20.4375 22.8906L24.5 25.7937V13.5H15.5V12H24.5C25.3281 12 26 12.6719 26 13.5V27.25C26 27.5312 25.8438 27.7875 25.5938 27.9156C25.3438 28.0437 25.0437 28.0219 24.8156 27.8594L20 24.4219L15.1844 27.8594C14.9563 28.0219 14.6562 28.0437 14.4062 27.9156C14.1562 27.7875 14 27.5312 14 27.25V13.5Z" fill="#6A6E76"/>
</g>
<defs>
<clipPath id="clip0_960_1526">
<rect width="12" height="16" fill="white" transform="translate(14 12)"/>
</clipPath>
</defs>
</svg>
