<svg width="32" height="32" viewBox="0 0 32 32" fill="none" xmlns="http://www.w3.org/2000/svg">
<g clip-path="url(#clip0_2505_7293)">
<path d="M6.97913 13.5433C5.14138 13.5433 3.46525 12.8386 2.20631 11.6855C0.84925 12.9595 0 14.7685 0 16.7724V17.7099H13.9583V16.7724C13.9583 14.7685 13.1091 12.9595 11.752 11.6854C10.4931 12.8385 8.81694 13.5433 6.97913 13.5433Z" fill="#1C1E21"/>
<path d="M6.97931 11.6682C9.85012 11.6682 12.1774 9.34097 12.1774 6.47016C12.1774 3.59935 9.85012 1.27209 6.97931 1.27209C4.1085 1.27209 1.78125 3.59935 1.78125 6.47016C1.78125 9.34097 4.1085 11.6682 6.97931 11.6682Z" fill="#1C1E21"/>
<path d="M28.2564 22.3853C26.7666 23.6033 24.8644 24.335 22.7944 24.335C20.7244 24.335 18.8224 23.6033 17.3325 22.3853C15.0632 24.0634 13.5889 26.7579 13.5889 29.7905V30.728H32V29.7905C32 26.7579 30.5256 24.0634 28.2564 22.3853Z" fill="#1C1E21"/>
<path d="M27.5761 20.4784C30.2192 17.8353 30.2192 13.55 27.5761 10.9068C24.933 8.26372 20.6477 8.26372 18.0045 10.9068C15.3614 13.55 15.3614 17.8353 18.0045 20.4784C20.6477 23.1215 24.933 23.1215 27.5761 20.4784Z" fill="#1C1E21"/>
<path d="M7.58075 23.843L8.77381 25.0361H1.875V19.6428H0V26.9111H8.77381L7.58075 28.1042L8.90656 29.43L12.363 25.9736L8.90656 22.5172L7.58075 23.843Z" fill="#1C1E21"/>
</g>
<defs>
<clipPath id="clip0_2505_7293">
<rect width="32" height="32" fill="white"/>
</clipPath>
</defs>
</svg>
