<svg width="32" height="32" viewBox="0 0 32 32" fill="none" xmlns="http://www.w3.org/2000/svg">
<path d="M27.3806 17.0825H24.9059C25.1581 17.7731 25.2959 18.5184 25.2959 19.2952V28.6484C25.2959 28.9722 25.2396 29.2831 25.137 29.5722H29.2283C30.7566 29.5722 31.9999 28.3289 31.9999 26.8006V21.7018C32 19.1547 29.9277 17.0825 27.3806 17.0825ZM6.70406 19.2953C6.70406 18.5184 6.84187 17.7732 7.09412 17.0826H4.61938C2.07225 17.0826 0 19.1548 0 21.7019V26.8007C0 28.329 1.24331 29.5724 2.77163 29.5724H6.863C6.7577 29.2757 6.70394 28.9632 6.70406 28.6484V19.2953ZM18.8288 14.6759H13.1712C10.6241 14.6759 8.55181 16.7482 8.55181 19.2953V28.6484C8.55181 29.1586 8.96544 29.5723 9.47569 29.5723H22.5243C23.0346 29.5723 23.4482 29.1587 23.4482 28.6484V19.2953C23.4482 16.7482 21.3759 14.6759 18.8288 14.6759ZM16 2.42749C12.9368 2.42749 10.4446 4.91961 10.4446 7.98293C10.4446 10.0607 11.5914 11.8754 13.2851 12.8282C14.0884 13.2801 15.0145 13.5383 16 13.5383C16.9855 13.5383 17.9116 13.2801 18.7149 12.8282C20.4086 11.8754 21.5554 10.0607 21.5554 7.98293C21.5554 4.91968 19.0632 2.42749 16 2.42749ZM6.24487 7.60555C3.95394 7.60555 2.09019 9.4693 2.09019 11.7602C2.09019 14.0512 3.95394 15.9149 6.24487 15.9149C6.80785 15.9154 7.36498 15.8008 7.88206 15.5782C8.75119 15.204 9.46781 14.5416 9.91125 13.7119C10.2325 13.1116 10.4002 12.4411 10.3996 11.7602C10.3996 9.46937 8.53581 7.60555 6.24487 7.60555ZM25.7551 7.60555C23.4642 7.60555 21.6004 9.4693 21.6004 11.7602C21.5998 12.4411 21.7675 13.1116 22.0888 13.7119C22.5322 14.5417 23.2488 15.2041 24.1179 15.5782C24.635 15.8008 25.1922 15.9154 25.7551 15.9149C28.0461 15.9149 29.9098 14.0512 29.9098 11.7602C29.9098 9.4693 28.0461 7.60555 25.7551 7.60555Z" fill="#1C1E21"/>
</svg>
