<svg width="32" height="32" viewBox="0 0 32 32" fill="none" xmlns="http://www.w3.org/2000/svg">
<g clip-path="url(#clip0_2358_7218)">
<path d="M16 3C8.81875 3 3 8.81875 3 16V18.5C3 19.3312 2.33125 20 1.5 20C0.66875 20 0 19.3312 0 18.5V16C0 7.1625 7.1625 0 16 0C24.8375 0 32 7.1625 32 16V25.0063C32 28.0438 29.5375 30.5063 26.4937 30.5063L19.6 30.5C19.0813 31.3937 18.1125 32 17 32H15C13.3438 32 12 30.6562 12 29C12 27.3438 13.3438 26 15 26H17C18.1125 26 19.0813 26.6063 19.6 27.5L26.5 27.5063C27.8813 27.5063 29 26.3875 29 25.0063V16C29 8.81875 23.1812 3 16 3ZM9 13H10C11.1062 13 12 13.8938 12 15V22C12 23.1063 11.1062 24 10 24H9C6.79375 24 5 22.2062 5 20V17C5 14.7937 6.79375 13 9 13ZM23 13C25.2062 13 27 14.7937 27 17V20C27 22.2062 25.2062 24 23 24H22C20.8937 24 20 23.1063 20 22V15C20 13.8938 20.8937 13 22 13H23Z" fill="#E22E1D"/>
</g>
<defs>
<clipPath id="clip0_2358_7218">
<rect width="32" height="32" fill="white"/>
</clipPath>
</defs>
</svg>
