<svg width="123" height="32" viewBox="0 0 123 32" fill="none" xmlns="http://www.w3.org/2000/svg">
<path fill-rule="evenodd" clip-rule="evenodd" d="M20.5641 31.3396C19.1177 31.7693 17.5858 32 16 32C14.4142 32 12.8822 31.7693 11.4359 31.3396L15.3517 0.0128949C15.5667 0.00432547 15.7829 0 16 0C16.2171 0 16.4332 0.00432435 16.6482 0.0128916L20.5641 31.3396ZM29.9879 23.7738C31.2697 21.4722 32 18.8214 32 16C32 8.19314 26.4088 1.69219 19.0122 0.283121C20.1625 9.29388 24.1233 17.4264 29.9879 23.7738ZM12.9877 0.283137C5.5912 1.69224 0 8.19317 0 16C0 18.8214 0.730257 21.4722 2.01207 23.7737C7.87665 17.4263 11.8375 9.29386 12.9877 0.283137Z" fill="#E22E1D"/>
<path d="M49.6914 8.35938V24H46.2861V8.35938H49.6914ZM53.5264 8.35938V11.1309H42.5371V8.35938H53.5264ZM55.2451 8.35938H60.4336C61.4792 8.35938 62.3779 8.53841 63.1299 8.89648C63.8818 9.25456 64.4583 9.78451 64.8594 10.4863C65.2676 11.1882 65.4717 12.0547 65.4717 13.0859C65.4717 13.9596 65.3571 14.6973 65.1279 15.2988C64.8988 15.8932 64.5765 16.3874 64.1611 16.7812C63.7458 17.1751 63.2552 17.4938 62.6895 17.7373L61.6045 18.3711H57.4688L57.458 15.6104H60.3477C60.7344 15.6104 61.0531 15.5208 61.3037 15.3418C61.5544 15.1628 61.7406 14.9085 61.8623 14.5791C61.9912 14.2425 62.0557 13.8451 62.0557 13.3867C62.0557 12.9141 61.9948 12.5094 61.873 12.1729C61.7585 11.8363 61.583 11.5785 61.3467 11.3994C61.1175 11.2204 60.8132 11.1309 60.4336 11.1309H58.6611V24H55.2451V8.35938ZM62.2705 24L59.4453 17.0498L63.0332 17.0391L65.9229 23.8389V24H62.2705ZM71.1328 8.35938V24H67.7275V8.35938H71.1328ZM79.0283 18.5967H75.8594V15.8252H79.0283C79.4365 15.8252 79.766 15.7321 80.0166 15.5459C80.2673 15.3525 80.4499 15.0911 80.5645 14.7617C80.679 14.4251 80.7363 14.0456 80.7363 13.623C80.7363 13.179 80.679 12.7673 80.5645 12.3877C80.4499 12.0081 80.2673 11.7038 80.0166 11.4746C79.766 11.2454 79.4365 11.1309 79.0283 11.1309H77.041V24H73.625V8.35938H79.0283C80.0954 8.35938 81.012 8.58496 81.7783 9.03613C82.5518 9.4873 83.1462 10.1068 83.5615 10.8945C83.9769 11.6823 84.1846 12.5846 84.1846 13.6016C84.1846 14.6113 83.9769 15.4886 83.5615 16.2334C83.1462 16.9782 82.5518 17.5583 81.7783 17.9736C81.012 18.389 80.0954 18.5967 79.0283 18.5967ZM91.6289 17.2646H88.4062L88.3955 14.8906H91.0703C91.5 14.8906 91.8473 14.8226 92.1123 14.6865C92.3773 14.5433 92.5671 14.3356 92.6816 14.0635C92.8034 13.7913 92.8643 13.4548 92.8643 13.0537C92.8643 12.5882 92.8034 12.2158 92.6816 11.9365C92.5671 11.6572 92.3809 11.4531 92.123 11.3242C91.8652 11.1953 91.5286 11.1309 91.1133 11.1309H89.6309V24H86.2148V8.35938H91.1133C91.9225 8.35938 92.6423 8.44531 93.2725 8.61719C93.9098 8.78906 94.4505 9.05404 94.8945 9.41211C95.3457 9.77018 95.6895 10.2178 95.9258 10.7549C96.1621 11.292 96.2803 11.9258 96.2803 12.6562C96.2803 13.2936 96.1549 13.8916 95.9043 14.4502C95.6608 15.0016 95.2598 15.4492 94.7012 15.793C94.1497 16.1367 93.4049 16.3229 92.4668 16.3516L91.6289 17.2646ZM91.5107 24H87.5039L88.7607 21.2393H91.5107C91.9046 21.2393 92.2161 21.1569 92.4453 20.9922C92.6816 20.8203 92.8499 20.5911 92.9502 20.3047C93.0505 20.0182 93.1006 19.696 93.1006 19.3379C93.1006 18.9154 93.054 18.5501 92.9609 18.2422C92.8678 17.9271 92.7139 17.6872 92.499 17.5225C92.2913 17.3506 92.0013 17.2646 91.6289 17.2646H88.9004L88.9219 14.8906H92.166L92.9717 15.8359C93.8597 15.8001 94.5615 15.9541 95.0771 16.2979C95.5928 16.6344 95.958 17.082 96.1729 17.6406C96.3877 18.1921 96.4951 18.7721 96.4951 19.3809C96.4951 20.3978 96.3089 21.25 95.9365 21.9375C95.5641 22.6178 95.0055 23.1335 94.2607 23.4844C93.5231 23.8281 92.6064 24 91.5107 24ZM109.837 14.9873V17.4795C109.837 18.5895 109.701 19.5671 109.429 20.4121C109.157 21.25 108.766 21.9518 108.258 22.5176C107.757 23.0833 107.155 23.5094 106.453 23.7959C105.758 24.0752 104.989 24.2148 104.144 24.2148C103.291 24.2148 102.514 24.0752 101.812 23.7959C101.111 23.5094 100.506 23.0833 99.9971 22.5176C99.4886 21.9518 99.0947 21.25 98.8154 20.4121C98.5433 19.5671 98.4072 18.5895 98.4072 17.4795V14.9873C98.4072 13.863 98.5433 12.8747 98.8154 12.0225C99.0947 11.1631 99.485 10.4505 99.9863 9.88477C100.495 9.31185 101.096 8.87858 101.791 8.58496C102.493 8.29134 103.27 8.14453 104.122 8.14453C104.974 8.14453 105.748 8.29134 106.442 8.58496C107.144 8.87858 107.746 9.31185 108.247 9.88477C108.756 10.4505 109.146 11.1631 109.418 12.0225C109.697 12.8747 109.837 13.863 109.837 14.9873ZM106.41 17.4795V14.9658C106.41 14.2425 106.36 13.6266 106.26 13.1182C106.167 12.6097 106.023 12.1943 105.83 11.8721C105.637 11.5498 105.397 11.3135 105.11 11.1631C104.831 11.0127 104.502 10.9375 104.122 10.9375C103.735 10.9375 103.399 11.0127 103.112 11.1631C102.826 11.3135 102.586 11.5498 102.393 11.8721C102.206 12.1943 102.067 12.6097 101.974 13.1182C101.888 13.6266 101.845 14.2425 101.845 14.9658V17.4795C101.845 18.1813 101.891 18.7829 101.984 19.2842C102.077 19.7855 102.221 20.1937 102.414 20.5088C102.607 20.8239 102.847 21.0566 103.134 21.207C103.42 21.3574 103.757 21.4326 104.144 21.4326C104.516 21.4326 104.842 21.3574 105.121 21.207C105.408 21.0566 105.644 20.8239 105.83 20.5088C106.023 20.1937 106.167 19.7855 106.26 19.2842C106.36 18.7829 106.41 18.1813 106.41 17.4795ZM114.768 8.35938L116.776 13.5586L118.71 8.35938H122.534L118.893 16.1045L122.609 24H118.688L116.69 18.6934L114.682 24H110.793L114.553 16.0723L110.879 8.35938H114.768Z" fill="white"/>
</svg>
