<svg width="20" height="20" viewBox="0 0 20 20" fill="none" xmlns="http://www.w3.org/2000/svg">
<path d="M10 20C8.02219 20 6.08879 19.4135 4.4443 18.3147C2.79981 17.2159 1.51809 15.6541 0.761209 13.8268C0.00433286 11.9996 -0.193701 9.98891 0.192152 8.0491C0.578004 6.10929 1.53041 4.32746 2.92894 2.92894C4.32746 1.53041 6.10929 0.578004 8.0491 0.192152C9.98891 -0.193701 11.9996 0.00433286 13.8268 0.761209C15.6541 1.51809 17.2159 2.79981 18.3147 4.4443C19.4135 6.08879 20 8.02219 20 10C19.9971 12.6513 18.9426 15.1932 17.0679 17.0679C15.1932 18.9426 12.6513 19.9971 10 20ZM10 1.66667C8.35183 1.66667 6.74066 2.15541 5.37025 3.07109C3.99984 3.98677 2.93174 5.28826 2.30101 6.81098C1.67028 8.33369 1.50525 10.0092 1.82679 11.6258C2.14834 13.2423 2.94201 14.7271 4.10745 15.8926C5.27289 17.058 6.75774 17.8517 8.37425 18.1732C9.99076 18.4948 11.6663 18.3297 13.189 17.699C14.7118 17.0683 16.0132 16.0002 16.9289 14.6298C17.8446 13.2593 18.3333 11.6482 18.3333 10C18.3309 7.79061 17.4522 5.67241 15.8899 4.11013C14.3276 2.54785 12.2094 1.6691 10 1.66667Z" fill="#6A6E76"/>
<path d="M10.8332 12.5001H9.1665V11.881C9.15419 11.293 9.29948 10.7124 9.58728 10.1995C9.87507 9.68665 10.2949 9.26015 10.8032 8.96429C11.1111 8.79471 11.3575 8.53212 11.5071 8.21407C11.6568 7.89602 11.7021 7.53879 11.6365 7.19346C11.5716 6.86446 11.41 6.56228 11.1725 6.32553C10.935 6.08878 10.6324 5.92819 10.3032 5.86429C10.0629 5.81982 9.81587 5.82872 9.57945 5.89034C9.34304 5.95196 9.12306 6.06481 8.9351 6.22089C8.74714 6.37696 8.59579 6.57245 8.49178 6.79352C8.38776 7.01458 8.33361 7.25581 8.33317 7.50012H6.6665C6.66671 6.91221 6.82241 6.33481 7.1178 5.8265C7.41319 5.31818 7.83777 4.89704 8.34846 4.60578C8.85915 4.31452 9.4378 4.16351 10.0257 4.16807C10.6136 4.17263 11.1898 4.33259 11.6959 4.63174C12.202 4.93089 12.62 5.35857 12.9075 5.8714C13.195 6.38424 13.3417 6.96398 13.3328 7.55183C13.3239 8.13967 13.1597 8.7147 12.8568 9.21859C12.5539 9.72247 12.1231 10.1373 11.6082 10.421C11.3621 10.5748 11.1609 10.7907 11.0249 11.047C10.8888 11.3033 10.8227 11.591 10.8332 11.881V12.5001ZM9.1665 14.1668H10.8332V15.8335H9.1665V14.1668Z" fill="#6A6E76"/>
</svg>
